<svg width="1024" height="1024" viewBox="0 0 1024 1024" fill="none" xmlns="http://www.w3.org/2000/svg">
  <g transform="translate(512 512) scale(1.53) translate(-512 -512)">
    <path fill-rule="evenodd" clip-rule="evenodd" d="M527.741 319.492C672.342 327.179 786.996 441.292 786.996 581.03C786.996 725.721 663.786 842.909 511.998 842.909C360.21 842.909 237 725.721 237 581.03C237 441.292 351.654 327.179 496.083 319.492C456.04 433.264 383.483 498.861 383.483 563.434C383.483 638.257 415.483 713.25 511.656 713.25C607.828 713.25 640.17 638.257 640.17 563.434C640.17 498.349 567.956 433.264 527.741 319.492Z" fill="#0095DA"/>
    <path fill-rule="evenodd" clip-rule="evenodd" d="M514.552 181.013C524.904 181.513 534.881 185.04 543.248 191.157C551.615 197.274 558.005 205.711 561.625 215.425C565.244 225.138 565.936 235.701 563.613 245.803C561.29 255.906 556.054 265.105 548.556 272.26C541.057 279.416 531.625 284.213 521.426 286.059C511.228 287.904 500.713 286.717 491.183 282.643C481.654 278.569 473.528 271.788 467.814 263.14C462.1 254.492 459.047 244.357 459.035 233.99C459.392 219.607 465.437 205.953 475.845 196.022C486.252 186.091 500.172 180.693 514.552 181.013Z" fill="#0095DA"/>
  </g>
</svg>
