<svg preserveAspectRatio="none" width="100%" height="100%" overflow="visible" style="display: block;" viewBox="0 0 22.0503 22" fill="none" xmlns="http://www.w3.org/2000/svg">
<g id="Group">
<path id="Vector" d="M1.98513 15.95C1.0318 12.1367 0.555133 10.2311 1.55624 8.94889C2.55736 7.66667 4.52291 7.66667 8.45291 7.66667H13.5974C17.5285 7.66667 19.4929 7.66667 20.494 8.94889C21.4951 10.2311 21.0185 12.1378 20.0651 15.95C19.4585 18.3756 19.1562 19.5878 18.2518 20.2944C17.3474 21 16.0974 21 13.5974 21H8.45291C5.95291 21 4.70291 21 3.79847 20.2944C2.89402 19.5878 2.59069 18.3756 1.98513 15.95Z" stroke="var(--stroke-0, #151E21)" stroke-width="2"/>
<path id="Vector_2" d="M19.3587 8.22222L18.5698 5.32778C18.2654 4.21111 18.1131 3.65333 17.8009 3.23222C17.4896 2.81385 17.0668 2.49156 16.5809 2.30222C16.092 2.11111 15.5143 2.11111 14.3587 2.11111M2.69203 8.22222L3.48092 5.32778C3.78537 4.21111 3.93759 3.65333 4.24981 3.23222C4.56112 2.81385 4.98391 2.49156 5.46981 2.30222C5.9587 2.11111 6.53648 2.11111 7.69203 2.11111" stroke="var(--stroke-0, #151E21)" stroke-width="2"/>
<path id="Vector_3" d="M7.69204 2.11111C7.69204 1.81643 7.8091 1.53381 8.01747 1.32544C8.22585 1.11706 8.50846 1 8.80315 1H13.2476C13.5423 1 13.8249 1.11706 14.0333 1.32544C14.2416 1.53381 14.3587 1.81643 14.3587 2.11111C14.3587 2.4058 14.2416 2.68841 14.0333 2.89679C13.8249 3.10516 13.5423 3.22222 13.2476 3.22222H8.80315C8.50846 3.22222 8.22585 3.10516 8.01747 2.89679C7.8091 2.68841 7.69204 2.4058 7.69204 2.11111Z" fill="var(--fill-0, #151E21)" stroke="var(--stroke-0, #151E21)" stroke-width="2"/>
<path id="Vector_4" d="M6.58092 12.1111V16.5556M15.4698 12.1111V16.5556M11.0254 12.1111V16.5556" stroke="var(--stroke-0, #151E21)" stroke-width="2" stroke-linecap="round" stroke-linejoin="round"/>
</g>
</svg>
