<svg preserveAspectRatio="none" width="100%" height="100%" overflow="visible" style="display: block;" viewBox="0 0 31.0017 21" fill="none" xmlns="http://www.w3.org/2000/svg">
<g id="Group 2146">
<path id="Vector" d="M18.5248 19.9905H3.48954C1.98652 19.9905 0.826505 18.9132 1.02351 17.4977L1.13751 16.6721C1.34451 15.5321 2.44253 14.8149 3.63455 14.5689L10.9297 13.35H11.0737L18.3688 14.5689C19.5808 14.8349 20.6588 15.5122 20.8658 16.6721L20.9798 17.5082C21.1768 18.9237 20.0168 20 18.5138 20L18.5248 19.9905ZM16.0017 5.75C16.0017 7.00978 15.4749 8.21796 14.5372 9.10876C13.5995 9.99955 12.3278 10.5 11.0017 10.5C9.67555 10.5 8.40376 9.99955 7.46607 9.10876C6.52837 8.21796 6.00158 7.00978 6.00158 5.75C6.00158 4.49022 6.52837 3.28204 7.46607 2.39124C8.40376 1.50044 9.67555 1 11.0017 1C12.3278 1 13.5995 1.50044 14.5372 2.39124C15.4749 3.28204 16.0017 4.49022 16.0017 5.75Z" stroke="var(--stroke-0, #151E21)" stroke-width="2" stroke-linecap="round" stroke-linejoin="round"/>
<path id="Vector_2" d="M30.0017 10L19.0017 10M30.0017 10L25.2874 15M30.0017 10L25.2874 5" stroke="var(--stroke-0, #151E21)" stroke-width="2" stroke-linecap="round" stroke-linejoin="round"/>
</g>
</svg>
