<svg width="24" height="17" viewBox="0 0 24 17" fill="none" xmlns="http://www.w3.org/2000/svg">
<path d="M0.899902 5.78889V3.34445C0.899902 2.69614 1.15744 2.07438 1.61586 1.61596C2.07429 1.15754 2.69604 0.900002 3.34435 0.900002H5.78879M0.899902 5.78889C2.52912 5.78889 5.78879 4.81111 5.78879 0.900002M0.899902 5.78889V10.6778M5.78879 0.900002H18.011M0.899902 10.6778V13.1222C0.899902 13.7705 1.15744 14.3923 1.61586 14.8507C2.07429 15.3091 2.69604 15.5667 3.34435 15.5667H5.78879M0.899902 10.6778C2.52912 10.6778 5.78879 11.6556 5.78879 15.5667M22.8999 5.78889V3.34445C22.8999 2.69614 22.6424 2.07438 22.1839 1.61596C21.7255 1.15754 21.1038 0.900002 20.4555 0.900002H18.011M22.8999 5.78889C21.2707 5.78889 18.011 4.81111 18.011 0.900002M22.8999 5.78889V10.6778M22.8999 10.6778V13.1222C22.8999 13.7705 22.6424 14.3923 22.1839 14.8507C21.7255 15.3091 21.1038 15.5667 20.4555 15.5667H18.011M22.8999 10.6778C21.2707 10.6778 18.011 11.6556 18.011 15.5667M18.011 15.5667H5.78879" stroke="white" stroke-width="1.8" stroke-linecap="round" stroke-linejoin="round"/>
<path d="M11.9 10.6778C13.25 10.6778 14.3445 9.58336 14.3445 8.23333C14.3445 6.8833 13.25 5.78889 11.9 5.78889C10.55 5.78889 9.45557 6.8833 9.45557 8.23333C9.45557 9.58336 10.55 10.6778 11.9 10.6778Z" stroke="white" stroke-width="1.8" stroke-linecap="round" stroke-linejoin="round"/>
</svg>
