<svg preserveAspectRatio="none" width="100%" height="100%" overflow="visible" style="display: block;" viewBox="0 0 21 21" fill="none" xmlns="http://www.w3.org/2000/svg">
<path id="Vector" d="M7.76671 15.5334C5.59602 15.5334 3.75909 14.7815 2.25593 13.2775C0.752774 11.7735 0.000797218 9.93661 6.32211e-07 7.76671C-0.000795954 5.59681 0.751181 3.75989 2.25593 2.25593C3.76068 0.751977 5.59761 0 7.76671 0C9.93582 0 11.7731 0.751977 13.2787 2.25593C14.7842 3.75989 15.5358 5.59681 15.5334 7.76671C15.5334 8.64296 15.394 9.46942 15.1152 10.2461C14.8364 11.0228 14.458 11.7098 13.9801 12.3073L20.6714 18.9986C20.8905 19.2176 21 19.4964 21 19.835C21 20.1735 20.8905 20.4523 20.6714 20.6714C20.4523 20.8905 20.1735 21 19.835 21C19.4964 21 19.2176 20.8905 18.9986 20.6714L12.3073 13.9801C11.7098 14.458 11.0228 14.8364 10.2461 15.1152C9.46942 15.394 8.64296 15.5334 7.76671 15.5334ZM7.76671 13.1437C9.26031 13.1437 10.5301 12.6211 11.576 11.576C12.6219 10.5309 13.1445 9.26111 13.1437 7.76671C13.1429 6.27232 12.6203 5.00296 11.576 3.95863C10.5317 2.91431 9.26191 2.39135 7.76671 2.38976C6.27152 2.38816 5.00216 2.91112 3.95864 3.95863C2.91511 5.00615 2.39215 6.2755 2.38976 7.76671C2.38737 9.25792 2.91033 10.5277 3.95864 11.576C5.00694 12.6243 6.2763 13.1469 7.76671 13.1437Z" fill="var(--fill-0, #151E21)"/>
</svg>
