<svg preserveAspectRatio="none" width="100%" height="100%" overflow="visible" style="display: block;" viewBox="0 0 92 83" fill="none" xmlns="http://www.w3.org/2000/svg">
<path id="Vector" d="M80.5 30.1776C80.0273 30.1955 79.5562 30.2422 79.0893 30.3172L73.4237 19.1702C74.6208 17.9594 75.5267 16.4998 76.0746 14.8989C76.6225 13.2979 76.7985 11.5964 76.5896 9.91964C76.3807 8.24288 75.7922 6.63359 74.8675 5.21032C73.9428 3.78704 72.7054 2.58603 71.2464 1.69573C69.7875 0.805443 68.1442 0.248552 66.4376 0.0660806C64.731 -0.116391 63.0045 0.0802042 61.3853 0.641387C59.7661 1.20257 58.2955 2.11404 57.0817 3.30868C55.868 4.50331 54.942 5.95066 54.372 7.54414H37.628C37.0572 5.95345 36.1313 4.50885 34.9186 3.31654C33.7059 2.12423 32.237 1.2145 30.62 0.654231C29.003 0.0939615 27.279 -0.10261 25.5747 0.0789642C23.8704 0.260539 22.2291 0.815644 20.7714 1.70348C19.3137 2.59131 18.0768 3.78931 17.1514 5.20941C16.2261 6.62951 15.6359 8.23561 15.4242 9.90967C15.2126 11.5837 15.3848 13.2832 15.9283 14.8831C16.4718 16.4831 17.3727 17.9428 18.5648 19.1551L12.8915 30.3172C12.431 30.2429 11.9663 30.1963 11.5 30.1776C8.45001 30.1776 5.52494 31.3699 3.36827 33.4922C1.2116 35.6145 0 38.493 0 41.4943C0 44.4957 1.2116 47.3742 3.36827 49.4965C5.52494 51.6188 8.45001 52.8111 11.5 52.8111C11.9676 52.7925 12.4335 52.7459 12.8953 52.6715L18.5648 63.8374C17.3688 65.0493 16.4643 66.5098 15.9179 68.1113C15.3715 69.7128 15.1972 71.4146 15.4077 73.0912C15.6183 74.7678 16.2084 76.3766 17.1346 77.799C18.0607 79.2215 19.2994 80.4213 20.7592 81.3102C22.2191 82.1991 23.8631 82.7544 25.5699 82.9352C27.2768 83.1159 29.0031 82.9176 30.6218 82.3547C32.2405 81.7919 33.7102 80.8789 34.9227 79.683C36.1353 78.4871 37.0597 77.0387 37.628 75.4446H54.372C54.9419 77.0352 55.8667 78.48 57.0785 79.6728C58.2903 80.8656 59.7583 81.776 61.3746 82.3373C62.9908 82.8985 64.7144 83.0962 66.4185 82.916C68.1226 82.7357 69.7641 82.182 71.2222 81.2956C72.6804 80.4092 73.9182 79.2125 74.8447 77.7935C75.7712 76.3746 76.3629 74.7694 76.5762 73.0959C76.7896 71.4223 76.6192 69.723 76.0777 68.1228C75.5361 66.5226 74.6371 65.0621 73.4467 63.8487L79.1238 52.6753C79.5794 52.7477 80.0389 52.793 80.5 52.8111C83.55 52.8111 86.4751 51.6188 88.6317 49.4965C90.7884 47.3742 92 44.4957 92 41.4943C92 38.493 90.7884 35.6145 88.6317 33.4922C86.4751 31.3699 83.55 30.1776 80.5 30.1776ZM11.5 45.2666C10.7418 45.2666 10.0007 45.0454 9.37031 44.6309C8.73993 44.2164 8.2486 43.6272 7.95846 42.9379C7.66833 42.2486 7.59241 41.4902 7.74032 40.7584C7.88823 40.0267 8.25332 39.3545 8.78942 38.827C9.32552 38.2994 10.0086 37.9401 10.7522 37.7946C11.4957 37.649 12.2665 37.7237 12.967 38.0092C13.6674 38.2948 14.2661 38.7783 14.6873 39.3986C15.1085 40.0189 15.3333 40.7483 15.3333 41.4943C15.3333 42.4948 14.9295 43.4543 14.2106 44.1617C13.4917 44.8692 12.5167 45.2666 11.5 45.2666ZM65.1667 7.54414C65.9248 7.54414 66.666 7.76538 67.2964 8.17988C67.9267 8.59438 68.4181 9.18352 68.7082 9.87281C68.9983 10.5621 69.0743 11.3206 68.9263 12.0523C68.7784 12.7841 68.4133 13.4562 67.8772 13.9838C67.3411 14.5113 66.6581 14.8706 65.9145 15.0162C65.1709 15.1617 64.4002 15.087 63.6997 14.8015C62.9993 14.516 62.4006 14.0325 61.9794 13.4121C61.5581 12.7918 61.3333 12.0625 61.3333 11.3164C61.3333 10.3159 61.7372 9.35644 62.4561 8.64901C63.175 7.94158 64.15 7.54414 65.1667 7.54414ZM26.8333 7.54414C27.5915 7.54414 28.3326 7.76538 28.963 8.17988C29.5934 8.59438 30.0847 9.18352 30.3749 9.87281C30.665 10.5621 30.7409 11.3206 30.593 12.0523C30.4451 12.7841 30.08 13.4562 29.5439 13.9838C29.0078 14.5113 28.3248 14.8706 27.5812 15.0162C26.8376 15.1617 26.0668 15.087 25.3664 14.8015C24.6659 14.516 24.0672 14.0325 23.646 13.4121C23.2248 12.7918 23 12.0625 23 11.3164C23 10.3159 23.4039 9.35644 24.1228 8.64901C24.8416 7.94158 25.8167 7.54414 26.8333 7.54414ZM26.8333 75.4446C26.0752 75.4446 25.334 75.2233 24.7036 74.8088C24.0733 74.3943 23.5819 73.8052 23.2918 73.1159C23.0017 72.4266 22.9257 71.6681 23.0737 70.9364C23.2216 70.2046 23.5867 69.5325 24.1228 69.0049C24.6589 68.4774 25.3419 68.1181 26.0855 67.9725C26.8291 67.827 27.5998 67.9017 28.3003 68.1872C29.0007 68.4727 29.5994 68.9562 30.0206 69.5766C30.4418 70.1969 30.6667 70.9262 30.6667 71.6723C30.6667 72.6728 30.2628 73.6323 29.5439 74.3397C28.825 75.0471 27.85 75.4446 26.8333 75.4446ZM65.1667 75.4446C64.4085 75.4446 63.6674 75.2233 63.037 74.8088C62.4066 74.3943 61.9153 73.8052 61.6251 73.1159C61.335 72.4266 61.2591 71.6681 61.407 70.9364C61.5549 70.2046 61.92 69.5325 62.4561 69.0049C62.9922 68.4774 63.6752 68.1181 64.4188 67.9725C65.1624 67.827 65.9332 67.9017 66.6336 68.1872C67.3341 68.4727 67.9328 68.9562 68.354 69.5766C68.7752 70.1969 69 70.9262 69 71.6723C69 72.6728 68.5961 73.6323 67.8772 74.3397C67.1584 75.0471 66.1833 75.4446 65.1667 75.4446ZM66.5773 60.4951C66.1105 60.4201 65.6394 60.3735 65.1667 60.3556C62.7953 60.3597 60.4837 61.0876 58.5503 62.4388C56.617 63.7901 55.1572 65.6981 54.372 67.9001H37.628C36.8428 65.6981 35.383 63.7901 33.4497 62.4388C31.5163 61.0876 29.2047 60.3597 26.8333 60.3556C26.3658 60.3741 25.8998 60.4207 25.438 60.4951L19.7685 49.3293C21.8394 47.2295 22.9976 44.4185 22.9976 41.4925C22.9976 38.5664 21.8394 35.7554 19.7685 33.6556L25.4418 22.4935C25.9024 22.5678 26.3671 22.6144 26.8333 22.6331C29.2047 22.6289 31.5163 21.9011 33.4497 20.5499C35.383 19.1986 36.8428 17.2906 37.628 15.0886H54.372C55.1485 17.5623 56.8091 19.6755 59.0465 21.0375C61.2839 22.3995 63.9469 22.9181 66.5428 22.4973L72.2162 33.6707C70.1478 35.7741 68.9936 38.5878 68.9986 41.5148C69.0036 44.4418 70.1674 47.2516 72.243 49.3482L66.5773 60.4951ZM80.5 45.2666C79.7418 45.2666 79.0007 45.0454 78.3703 44.6309C77.7399 44.2164 77.2486 43.6272 76.9585 42.9379C76.6683 42.2486 76.5924 41.4902 76.7403 40.7584C76.8882 40.0267 77.2533 39.3545 77.7894 38.827C78.3255 38.2994 79.0086 37.9401 79.7521 37.7946C80.4957 37.649 81.2665 37.7237 81.9669 38.0092C82.6674 38.2948 83.2661 38.7783 83.6873 39.3986C84.1085 40.0189 84.3333 40.7483 84.3333 41.4943C84.3333 42.4948 83.9295 43.4543 83.2106 44.1617C82.4917 44.8692 81.5167 45.2666 80.5 45.2666Z" fill="var(--fill-0, #09C1FF)"/>
</svg>
