<svg preserveAspectRatio="none" width="100%" height="100%" overflow="visible" style="display: block;" viewBox="0 0 63.2636 78.8471" fill="none" xmlns="http://www.w3.org/2000/svg">
<g id="Group">
<path id="Vector" d="M33.7778 76.8374L33.7381 76.8447L33.4815 76.9712L33.4092 76.9856L33.3586 76.9712L33.1019 76.8447C33.0634 76.8326 33.0345 76.8387 33.0152 76.8627L33.0007 76.8989L32.9393 78.4459L32.9574 78.5182L32.9935 78.5651L33.3694 78.8326L33.4236 78.8471L33.467 78.8326L33.8429 78.5651L33.8863 78.5073L33.9007 78.4459L33.8393 76.9025C33.8296 76.864 33.8092 76.8423 33.7778 76.8374ZM34.7357 76.429L34.6887 76.4362L34.02 76.7724L33.9839 76.8085L33.973 76.8483L34.0381 78.4025L34.0562 78.4459L34.0851 78.4712L34.8116 78.8073C34.8573 78.8194 34.8923 78.8097 34.9164 78.7784L34.9308 78.7278L34.808 76.5085C34.7959 76.4652 34.7718 76.4387 34.7357 76.429ZM32.1513 76.4362C32.1354 76.4266 32.1164 76.4235 32.0982 76.4275C32.08 76.4315 32.0641 76.4424 32.0538 76.4579L32.0321 76.5085L31.9092 78.7278C31.9116 78.7712 31.9321 78.8001 31.9706 78.8145L32.0248 78.8073L32.7513 78.4712L32.7875 78.4423L32.8019 78.4025L32.8634 76.8483L32.8525 76.8049L32.8164 76.7688L32.1513 76.4362Z" fill="var(--fill-0, #09C1FF)"/>
<path id="Vector_2" d="M42.4755 27.5817V7.22886H46.09C47.0486 7.22886 47.9679 6.84805 48.6458 6.17022C49.3236 5.49238 49.7044 4.57304 49.7044 3.61443C49.7044 2.65582 49.3236 1.73648 48.6458 1.05864C47.9679 0.380805 47.0486 0 46.09 0H17.1745C16.2159 0 15.2966 0.380805 14.6187 1.05864C13.9409 1.73648 13.5601 2.65582 13.5601 3.61443C13.5601 4.57304 13.9409 5.49238 14.6187 6.17022C15.2966 6.84805 16.2159 7.22886 17.1745 7.22886H20.789V27.5817L1.89634 55.3441C-3.00121 62.5441 2.15658 72.2886 10.8601 72.2886H52.4008C61.1115 72.2886 66.2657 62.5441 61.3645 55.3441L42.4755 27.5817Z" fill="var(--fill-0, #09C1FF)"/>
</g>
</svg>
