<svg preserveAspectRatio="none" width="100%" height="100%" overflow="visible" style="display: block;" viewBox="0 0 38.2288 48.1951" fill="none" xmlns="http://www.w3.org/2000/svg">
<path id="top" opacity="0.8" d="M27.2212 0.027346C29.3899 -0.227218 31.3531 1.324 31.6083 3.49272C32.0304 7.08152 31.9567 10.6116 31.459 14.0253C32.0339 14.4528 32.6552 14.9427 33.2483 15.5057C34.82 16.9977 36.3224 18.9816 37.8104 21.9576C38.7872 23.911 37.9952 26.287 36.0417 27.2638C34.0882 28.2405 31.7122 27.4485 30.7355 25.495C30.1653 24.3545 29.6366 23.4839 29.1496 22.8046C26.8792 28.6792 23.2951 33.9404 18.7818 38.2392C19.1392 39.9644 19.4247 42.0673 19.428 44.2354C19.4312 46.4194 17.6626 48.1918 15.4786 48.195C13.2948 48.1983 11.5225 46.432 11.5189 44.2482C11.5187 44.1126 11.5093 43.9767 11.506 43.8414C9.5843 45.017 7.56441 46.0491 5.46092 46.9155C3.44153 47.7471 1.13065 46.7825 0.298901 44.7631C-0.53234 42.7439 0.429477 40.4328 2.44867 39.6011C4.23102 38.867 5.94084 37.9839 7.56692 36.9751C6.88303 36.6403 6.13068 36.3199 5.31674 36.0431C3.24972 35.3393 2.14453 33.0926 2.84773 31.0252C3.55148 28.9583 5.79826 27.853 7.86557 28.5562C10.3305 29.3947 12.4621 30.5279 14.1733 31.6843C17.6912 28.1028 20.4299 23.8033 22.1055 19.074C20.5509 18.8982 18.7976 18.75 16.9641 18.6698C14.7826 18.5745 13.09 16.7294 13.1846 14.5479C13.28 12.366 15.1272 10.6732 17.3091 10.7685C19.6566 10.8711 21.8919 11.0778 23.8279 11.3169C24.0442 9.0664 24.0315 6.75735 23.7558 4.41442C23.5013 2.24576 25.0525 0.28249 27.2212 0.027346Z" fill="url(#paint0_linear_0_685)"/>
<defs>
<linearGradient id="paint0_linear_0_685" x1="19.1143" y1="17.5255" x2="19.1143" y2="48.1951" gradientUnits="userSpaceOnUse">
<stop stop-color="white"/>
<stop offset="1" stop-color="white" stop-opacity="0.3"/>
</linearGradient>
</defs>
</svg>
