<svg preserveAspectRatio="none" width="100%" height="100%" overflow="visible" style="display: block;" viewBox="0 0 49.2938 57.2845" fill="none" xmlns="http://www.w3.org/2000/svg">
<path id="Vector" d="M0 0.1729C10.4585 0.1729 20.117 -0.307378 29.6736 0.332992C36.8448 0.81327 43.6814 3.50574 45.8196 11.3503C47.9579 19.1948 42.9104 23.7938 36.1175 27.4905C44.6559 30.2266 50.6343 34.5928 49.0342 43.9073C47.4342 53.2218 40.1322 56.6419 31.6955 57.0058C21.1643 57.5443 10.604 57.1367 0 57.1367V0.1729ZM10.1821 53.1053C19.8843 51.941 30.2555 56.0889 36.903 46.6143C38.0446 44.8704 38.5715 42.7951 38.4002 40.7175C38.2289 38.6399 37.3692 36.679 35.9575 35.1459C28.9318 26.8793 19.3315 30.1248 10.1821 29.6299V53.1053ZM10.0949 25.7004C18.8224 24.3614 28.3936 29.0478 34.3429 19.6751C35.4723 18.075 36.0114 16.1321 35.8682 14.1785C35.7249 12.2248 34.9081 10.3815 33.5574 8.96344C26.9536 2.00669 18.4151 3.91324 10.0949 4.02968V25.7004Z" fill="url(#paint0_linear_0_4)"/>
<defs>
<linearGradient id="paint0_linear_0_4" x1="3.00672" y1="13.465" x2="-7.47644" y2="60.8943" gradientUnits="userSpaceOnUse">
<stop stop-color="white" stop-opacity="0.48"/>
<stop offset="1" stop-color="#CFD7DD" stop-opacity="0"/>
</linearGradient>
</defs>
</svg>
