<svg preserveAspectRatio="none" width="100%" height="100%" overflow="visible" style="display: block;" viewBox="0 0 151.051 22" fill="none" xmlns="http://www.w3.org/2000/svg">
<g id="Frame 3292">
<g id="Frame 3316">
<path id="Vector" d="M7.76671 16.0335C5.59602 16.0335 3.75909 15.2815 2.25593 13.7776C0.752774 12.2736 0.000797218 10.4367 6.32211e-07 8.26677C-0.000795954 6.09687 0.751181 4.25995 2.25593 2.75599C3.76068 1.25204 5.59761 0.500061 7.76671 0.500061C9.93582 0.500061 11.7731 1.25204 13.2787 2.75599C14.7842 4.25995 15.5358 6.09687 15.5334 8.26677C15.5334 9.14302 15.394 9.96948 15.1152 10.7461C14.8364 11.5228 14.458 12.2099 13.9801 12.8073L20.6714 19.4986C20.8905 19.7177 21 19.9965 21 20.3351C21 20.6736 20.8905 20.9524 20.6714 21.1715C20.4523 21.3905 20.1735 21.5001 19.835 21.5001C19.4964 21.5001 19.2176 21.3905 18.9986 21.1715L12.3073 14.4801C11.7098 14.9581 11.0228 15.3365 10.2461 15.6153C9.46942 15.8941 8.64296 16.0335 7.76671 16.0335ZM7.76671 13.6437C9.26031 13.6437 10.5301 13.1212 11.576 12.076C12.6219 11.0309 13.1445 9.76117 13.1437 8.26677C13.1429 6.77238 12.6203 5.50302 11.576 4.4587C10.5317 3.41437 9.26191 2.89141 7.76671 2.88982C6.27152 2.88823 5.00216 3.41118 3.95864 4.4587C2.91511 5.50621 2.39215 6.77557 2.38976 8.26677C2.38737 9.75798 2.91033 11.0277 3.95864 12.076C5.00694 13.1244 6.2763 13.6469 7.76671 13.6437Z" fill="var(--fill-0, white)"/>
<g id="Group">
<path id="Vector_2" d="M36.9852 15.95C36.0318 12.1367 35.5552 10.2311 36.5563 8.94889C37.5574 7.66667 39.523 7.66667 43.453 7.66667H48.5974C52.5285 7.66667 54.493 7.66667 55.4941 8.94889C56.4952 10.2311 56.0185 12.1378 55.0652 15.95C54.4585 18.3756 54.1563 19.5878 53.2518 20.2944C52.3474 21 51.0974 21 48.5974 21H43.453C40.953 21 39.703 21 38.7985 20.2944C37.8941 19.5878 37.5907 18.3756 36.9852 15.95Z" stroke="var(--stroke-0, white)" stroke-width="2"/>
<path id="Vector_3" d="M54.3587 8.22222L53.5699 5.32778C53.2654 4.21111 53.1132 3.65333 52.801 3.23222C52.4897 2.81385 52.0669 2.49156 51.581 2.30222C51.0921 2.11111 50.5143 2.11111 49.3587 2.11111M37.6921 8.22222L38.481 5.32778C38.7854 4.21111 38.9376 3.65333 39.2499 3.23222C39.5612 2.81385 39.984 2.49156 40.4699 2.30222C40.9587 2.11111 41.5365 2.11111 42.6921 2.11111" stroke="var(--stroke-0, white)" stroke-width="2"/>
<path id="Vector_4" d="M42.6921 2.11111C42.6921 1.81643 42.8091 1.53381 43.0175 1.32544C43.2259 1.11706 43.5085 1 43.8032 1H48.2476C48.5423 1 48.8249 1.11706 49.0333 1.32544C49.2417 1.53381 49.3587 1.81643 49.3587 2.11111C49.3587 2.4058 49.2417 2.68841 49.0333 2.89679C48.8249 3.10516 48.5423 3.22222 48.2476 3.22222H43.8032C43.5085 3.22222 43.2259 3.10516 43.0175 2.89679C42.8091 2.68841 42.6921 2.4058 42.6921 2.11111Z" stroke="var(--stroke-0, white)" stroke-width="2"/>
<path id="Vector_5" d="M41.581 12.1111V16.5556M50.4699 12.1111V16.5556M46.0254 12.1111V16.5556" stroke="var(--stroke-0, white)" stroke-width="2" stroke-linecap="round" stroke-linejoin="round"/>
</g>
<path id="Vector_6" d="M81.0505 21.0001C79.6839 21.0001 78.3922 20.7374 77.1755 20.2121C75.9589 19.6867 74.8965 18.9701 73.9885 18.0621C73.0805 17.1541 72.3639 16.0917 71.8385 14.8751C71.3132 13.6584 71.0505 12.3667 71.0505 11.0001C71.0505 9.61673 71.3132 8.32106 71.8385 7.11306C72.3639 5.90506 73.0805 4.84673 73.9885 3.93806C74.8965 3.02939 75.9589 2.31273 77.1755 1.78806C78.3922 1.26339 79.6839 1.00073 81.0505 1.00006C82.4339 1.00006 83.7299 1.26273 84.9385 1.78806C86.1472 2.31339 87.2052 3.03006 88.1125 3.93806C89.0199 4.84606 89.7365 5.90439 90.2625 7.11306C90.7885 8.32173 91.0512 9.61739 91.0505 11.0001C91.0505 12.3667 90.7879 13.6584 90.2625 14.8751C89.7372 16.0917 89.0205 17.1544 88.1125 18.0631C87.2045 18.9717 86.1462 19.6884 84.9375 20.2131C83.7289 20.7377 82.4332 21.0001 81.0505 21.0001ZM81.0505 18.9501C81.4839 18.3501 81.8589 17.7251 82.1755 17.0751C82.4922 16.4251 82.7505 15.7334 82.9505 15.0001H79.1505C79.3505 15.7334 79.6089 16.4251 79.9255 17.0751C80.2422 17.7251 80.6172 18.3501 81.0505 18.9501ZM78.4505 18.5501C78.1505 18.0001 77.8882 17.4291 77.6635 16.8371C77.4389 16.2451 77.2512 15.6327 77.1005 15.0001H74.1505C74.6339 15.8334 75.2382 16.5584 75.9635 17.1751C76.6889 17.7917 77.5179 18.2501 78.4505 18.5501ZM83.6505 18.5501C84.5839 18.2501 85.4132 17.7917 86.1385 17.1751C86.8639 16.5584 87.4679 15.8334 87.9505 15.0001H85.0005C84.8505 15.6334 84.6632 16.2461 84.4385 16.8381C84.2139 17.4301 83.9512 18.0007 83.6505 18.5501ZM73.3005 13.0001H76.7005C76.6505 12.6667 76.6132 12.3377 76.5885 12.0131C76.5639 11.6884 76.5512 11.3507 76.5505 11.0001C76.5499 10.6494 76.5625 10.3121 76.5885 9.98806C76.6145 9.66406 76.6519 9.33473 76.7005 9.00006H73.3005C73.2172 9.33339 73.1549 9.66273 73.1135 9.98806C73.0722 10.3134 73.0512 10.6507 73.0505 11.0001C73.0499 11.3494 73.0709 11.6871 73.1135 12.0131C73.1562 12.3391 73.2185 12.6681 73.3005 13.0001ZM78.7005 13.0001H83.4005C83.4505 12.6667 83.4882 12.3377 83.5135 12.0131C83.5389 11.6884 83.5512 11.3507 83.5505 11.0001C83.5499 10.6494 83.5372 10.3121 83.5125 9.98806C83.4879 9.66406 83.4505 9.33473 83.4005 9.00006H78.7005C78.6505 9.33339 78.6132 9.66273 78.5885 9.98806C78.5639 10.3134 78.5512 10.6507 78.5505 11.0001C78.5499 11.3494 78.5625 11.6871 78.5885 12.0131C78.6145 12.3391 78.6519 12.6681 78.7005 13.0001ZM85.4005 13.0001H88.8005C88.8839 12.6667 88.9465 12.3377 88.9885 12.0131C89.0305 11.6884 89.0512 11.3507 89.0505 11.0001C89.0499 10.6494 89.0292 10.3121 88.9885 9.98806C88.9479 9.66406 88.8852 9.33473 88.8005 9.00006H85.4005C85.4505 9.33339 85.4882 9.66273 85.5135 9.98806C85.5389 10.3134 85.5512 10.6507 85.5505 11.0001C85.5499 11.3494 85.5372 11.6871 85.5125 12.0131C85.4879 12.3391 85.4505 12.6681 85.4005 13.0001ZM85.0005 7.00006H87.9505C87.4672 6.16673 86.8632 5.44173 86.1385 4.82506C85.4139 4.20839 84.5845 3.75006 83.6505 3.45006C83.9505 4.00006 84.2132 4.57106 84.4385 5.16306C84.6639 5.75506 84.8512 6.36739 85.0005 7.00006ZM79.1505 7.00006H82.9505C82.7505 6.26673 82.4922 5.57506 82.1755 4.92506C81.8589 4.27506 81.4839 3.65006 81.0505 3.05006C80.6172 3.65006 80.2422 4.27506 79.9255 4.92506C79.6089 5.57506 79.3505 6.26673 79.1505 7.00006ZM74.1505 7.00006H77.1005C77.2505 6.36673 77.4382 5.75406 77.6635 5.16206C77.8889 4.57006 78.1512 3.99939 78.4505 3.45006C77.5172 3.75006 76.6879 4.20839 75.9625 4.82506C75.2372 5.44173 74.6332 6.16673 74.1505 7.00006Z" fill="var(--fill-0, white)"/>
</g>
<path id="Vector_7" d="M142.162 21.0001C141.847 21.0001 141.583 20.8934 141.371 20.6801C141.158 20.4667 141.051 20.203 141.051 19.8889C141.05 19.5749 141.156 19.3112 141.371 19.0978C141.585 18.8845 141.848 18.7778 142.162 18.7778H148.828V3.22228H142.162C141.847 3.22228 141.583 3.11562 141.371 2.90228C141.158 2.68895 141.051 2.42525 141.051 2.11117C141.05 1.7971 141.156 1.53339 141.371 1.32006C141.585 1.10673 141.848 1.00006 142.162 1.00006H148.828C149.439 1.00006 149.963 1.21784 150.398 1.65339C150.834 2.08895 151.051 2.61191 151.051 3.22228V18.7778C151.051 19.3889 150.833 19.9123 150.398 20.3478C149.963 20.7834 149.44 21.0008 148.828 21.0001H142.162ZM140.134 12.1112H132.162C131.847 12.1112 131.583 12.0045 131.371 11.7912C131.158 11.5778 131.051 11.3141 131.051 11.0001C131.05 10.686 131.156 10.4223 131.371 10.2089C131.585 9.99562 131.848 9.88895 132.162 9.88895H140.134L138.051 7.80562C137.847 7.60191 137.745 7.35191 137.745 7.05562C137.745 6.75932 137.847 6.50006 138.051 6.27784C138.254 6.05562 138.514 5.93969 138.828 5.93006C139.143 5.92043 139.412 6.0271 139.634 6.25006L143.606 10.2223C143.828 10.4445 143.939 10.7038 143.939 11.0001C143.939 11.2964 143.828 11.5556 143.606 11.7778L139.634 15.7501C139.412 15.9723 139.148 16.0789 138.843 16.0701C138.538 16.0612 138.274 15.9452 138.051 15.7223C137.847 15.5001 137.75 15.2364 137.759 14.9312C137.769 14.626 137.875 14.3712 138.078 14.1667L140.134 12.1112Z" fill="var(--fill-0, white)"/>
</g>
</svg>
