<svg preserveAspectRatio="none" width="100%" height="100%" overflow="visible" style="display: block;" viewBox="0 0 20 20" fill="none" xmlns="http://www.w3.org/2000/svg">
<g id="Group">
<path id="Vector" d="M7.53587 8.37323C7.98774 8.37323 8.35405 8.00692 8.35405 7.55505C8.35405 7.10318 7.98774 6.73686 7.53587 6.73686C7.084 6.73686 6.71769 7.10318 6.71769 7.55505C6.71769 8.00692 7.084 8.37323 7.53587 8.37323Z" stroke="var(--stroke-0, white)" stroke-width="2" stroke-linecap="round" stroke-linejoin="round"/>
<path id="Vector_2" d="M12.445 13.2823C12.8968 13.2823 13.2631 12.916 13.2631 12.4641C13.2631 12.0123 12.8968 11.646 12.445 11.646C11.9931 11.646 11.6268 12.0123 11.6268 12.4641C11.6268 12.916 11.9931 13.2823 12.445 13.2823Z" stroke="var(--stroke-0, white)" stroke-width="2" stroke-linecap="round" stroke-linejoin="round"/>
<path id="Vector_3" d="M6.71762 7.55515C6.71762 9.07412 7.32103 10.5309 8.3951 11.6049C9.46917 12.679 10.9259 13.2824 12.4449 13.2824M5.08126 17.537C6.94525 18.7534 9.19389 19.2361 11.3929 18.8916C13.5919 18.5471 15.5852 17.4 16.988 15.6718C18.3907 13.9436 19.1032 11.7569 18.988 9.53406C18.8727 7.31123 17.9379 5.20994 16.364 3.63605C14.7901 2.06216 12.6888 1.12732 10.466 1.01208C8.24315 0.896843 6.05646 1.60939 4.32826 3.01209C2.60005 4.4148 1.45294 6.40815 1.10846 8.60715C0.763989 10.8062 1.2466 13.0548 2.46307 14.9188L1.80853 18.1915L5.08126 17.537Z" stroke="var(--stroke-0, white)" stroke-width="2" stroke-linecap="round" stroke-linejoin="round"/>
</g>
</svg>
