<svg preserveAspectRatio="none" width="100%" height="100%" overflow="visible" style="display: block;" viewBox="0 0 98.7062 25.2095" fill="none" xmlns="http://www.w3.org/2000/svg">
<g id="Group 2124">
<path id="Vector" d="M79.9668 25.2053C79.8503 25.0403 79.6549 25.0681 79.497 25.0363C76.5106 24.4239 74.6789 22.561 73.9604 19.6543C73.2637 16.8331 74.219 14.485 76.3586 12.5962C78.0541 11.1051 80.0931 10.2701 82.2169 9.61395C84.3286 8.97359 86.4856 8.49636 88.6693 8.18644H88.2094C83.8262 8.18644 79.4424 8.18975 75.0579 8.19638C74.6749 8.19638 74.5526 8.11288 74.5565 7.70729C74.5763 5.33339 74.5723 2.95553 74.5565 0.579647C74.5565 0.22575 74.6236 0.0945296 75.0144 0.0965178C80.2984 0.1164 85.5803 0.0965178 90.8622 0.126341C94.8612 0.144234 97.9996 2.86208 98.6193 6.79471C98.6193 6.84839 98.6766 6.89412 98.7062 6.94581V24.4418C96.1994 24.4418 93.6907 24.4418 91.182 24.4597C90.73 24.4597 90.651 24.3186 90.653 23.903C90.6668 19.4833 90.653 15.0636 90.6668 10.6438C90.6668 10.2959 90.6195 10.1766 90.2286 10.2462C87.3456 10.7375 84.7125 12.1971 82.7577 14.3876C81.8948 15.3253 81.3615 16.5226 81.2399 17.7953C81.0247 19.9823 82.8426 22.05 85.0296 22.0819C85.6851 22.0714 86.3317 21.9274 86.9304 21.6584C85.8626 23.4239 84.4453 24.5393 82.5367 25.0105C82.2485 25.08 81.9445 25.0522 81.6682 25.2093L79.9668 25.2053Z" fill="var(--fill-0, white)"/>
<path id="Vector_2" d="M6.23286 25.2033C6.06706 25.0284 5.83809 25.0562 5.62689 25.0045C2.98 24.408 1.22923 22.7976 0.392326 20.2448C-0.444573 17.692 0.064672 15.3718 1.85098 13.3617C3.40043 11.6181 5.42951 10.6478 7.57505 9.9122C9.9031 9.11898 12.3071 8.57323 14.7479 8.28388C14.8209 8.28388 14.9078 8.2958 14.9631 8.19242H12.3971C8.69026 8.19242 4.9854 8.19242 1.27857 8.19242C0.91144 8.19242 0.806828 8.10494 0.810776 7.72718C0.827882 5.34136 0.827882 2.94891 0.810776 0.549839C0.810776 0.213836 0.864069 0.092557 1.23909 0.092557C6.52301 0.114427 11.8069 0.092557 17.0908 0.128344C20.9536 0.150214 24.0288 2.65135 24.8025 6.34341C24.9162 6.9187 24.9692 7.5045 24.9604 8.09102C24.9604 13.3822 24.9604 18.6735 24.9604 23.9647C24.9604 24.3623 24.8519 24.4538 24.465 24.4518C22.1162 24.4319 19.766 24.4319 17.4145 24.4518C17.0198 24.4518 16.8915 24.3782 16.8935 23.9428C16.9132 19.539 16.8935 15.1352 16.9132 10.7313C16.9132 10.3059 16.8481 10.1647 16.3822 10.2502C14.0818 10.6851 11.9323 11.7126 10.143 13.2325C9.19421 14.0019 8.43942 14.9863 7.94021 16.1054C7.06383 18.0777 7.52373 20.1513 9.14029 21.3383C9.65095 21.7305 10.2541 21.9821 10.8905 22.0686C11.5268 22.155 12.1746 22.0733 12.7701 21.8314C12.8827 21.7916 12.9675 21.6862 13.1649 21.724C12.1326 23.4259 10.7154 24.5532 8.79093 25.0164C8.53828 25.0761 8.26194 25.0383 8.03495 25.2033H6.23286Z" fill="var(--fill-0, white)"/>
<path id="Vector_3" d="M66.053 0.000269487C67.5354 0.000269487 69.0138 0.000269487 70.5001 0.000269487C70.8178 0.000269487 70.8948 0.0957023 70.8948 0.397906C70.883 2.83807 70.883 5.27757 70.8948 7.71641C70.8948 8.04049 70.7942 8.10411 70.5001 8.10212C68.0407 8.09019 65.5806 8.09019 63.1199 8.10212C61.1639 8.11206 59.5908 9.24334 59.0598 10.987C58.875 11.5991 58.8357 12.2464 58.9451 12.8766C59.0545 13.5068 59.3095 14.1023 59.6895 14.615C60.0695 15.1276 60.5639 15.543 61.1327 15.8277C61.7015 16.1124 62.3289 16.2583 62.964 16.2537C65.4392 16.2775 67.915 16.2775 70.3915 16.2537C70.8218 16.2537 70.9007 16.373 70.8988 16.7766C70.8764 19.1372 70.8764 21.4972 70.8988 23.8565C70.8988 24.2959 70.7705 24.3655 70.3737 24.3615C67.8986 24.3436 65.4234 24.3615 62.9463 24.3615C57.5498 24.3615 53.0397 21.2062 51.4132 16.0529C49.3387 9.49186 52.6469 2.71016 59.1644 0.582807C60.3973 0.18827 61.6842 -0.00831555 62.9778 0.000269487C64.0022 0.000269487 65.0286 0.000269487 66.053 0.000269487Z" fill="var(--fill-0, white)"/>
<path id="Vector_4" d="M29.1388 12.2385C29.1388 8.35555 29.1388 4.48456 29.1388 0.591693C29.1289 0.200021 29.2118 0.0886826 29.6066 0.092659C31.9567 0.113866 34.3075 0.113866 36.659 0.092659C37.0715 0.092659 37.2117 0.172186 37.2077 0.623504C37.1841 3.49047 37.1959 6.35942 37.1959 9.22638C37.1959 9.32181 37.1959 9.42519 37.1959 9.51267C37.1959 9.60015 37.1545 9.75722 37.3104 9.78108C37.5078 9.8109 37.488 9.63793 37.4979 9.5246C37.582 8.52836 37.731 7.53876 37.944 6.56221C38.3624 4.73507 38.9901 3.01131 40.3737 1.66531C41.3297 0.720272 42.6054 0.174748 43.9444 0.138387C45.6616 0.0767535 47.3828 0.114529 49.102 0.100612C49.323 0.100612 49.4 0.160257 49.398 0.390887C49.398 2.86419 49.3882 5.3355 49.398 7.80681C49.398 8.17463 49.1888 8.11697 48.9717 8.11697H43.445C42.3199 8.11697 41.2067 8.18059 40.1685 8.68957C38.5026 9.50671 37.7209 10.9462 37.3834 12.6918C37.2502 13.4563 37.1907 14.232 37.2058 15.008C37.2058 17.9565 37.1939 20.903 37.2176 23.8495C37.2176 24.2889 37.0913 24.3604 36.6926 24.3565C34.324 24.3379 31.9554 24.3379 29.5868 24.3565C29.2039 24.3565 29.1289 24.2411 29.1309 23.8833C29.1427 20.0023 29.1388 16.1194 29.1388 12.2385Z" fill="var(--fill-0, white)"/>
</g>
</svg>
