<svg preserveAspectRatio="none" width="100%" height="100%" overflow="visible" style="display: block;" viewBox="0 0 87.7348 24.9998" fill="none" xmlns="http://www.w3.org/2000/svg">
<g id="Group 2123">
<path id="Vector" d="M24.2371 12.4698C24.2243 15.8213 22.8291 18.4625 20.0045 20.2438C17.9052 21.5687 15.7505 22.8253 13.5318 23.9346C10.1525 25.6264 6.8393 25.2744 3.78642 23.0813C0.838069 20.9479 -0.194493 17.9334 0.0295135 14.4005C0.0636478 13.8671 0.349522 13.5258 0.865803 13.4618C1.43115 13.3935 1.73836 13.7989 1.83223 14.2639C1.90428 14.7905 1.93353 15.322 1.9197 15.8533C2.02637 19.3393 4.65044 22.5692 8.02973 23.0642C9.58498 23.2903 11.2298 23.1623 12.6827 22.3346C14.6902 21.1975 16.7361 20.1222 18.6903 18.9019C23.7272 15.7595 23.6547 9.07127 18.5879 5.99279C18.2231 5.77945 17.8433 5.57678 17.4913 5.33784C17.0433 5.03489 16.9132 4.57195 17.1735 4.12607C17.4337 3.68019 17.8775 3.51805 18.4535 3.77406C21.9736 5.35064 24.2243 8.69366 24.2371 12.4698Z" fill="var(--fill-0, white)"/>
<path id="Vector_2" d="M3.83953 12.4754C3.83953 11.3746 3.81179 10.2737 3.83953 9.17292C3.94406 5.18134 8.21725 2.521 11.7843 4.32372C14.0472 5.47222 16.2425 6.74937 18.3594 8.14889C21.2011 10.022 21.2352 14.5491 18.5045 16.7337C17.9075 17.1817 17.2738 17.5785 16.61 17.9198C16.1449 18.1801 15.6564 18.0884 15.4089 17.6169C15.2842 17.4021 15.2499 17.1467 15.3135 16.9066C15.3771 16.6666 15.5334 16.4616 15.7481 16.3368C16.13 16.0808 16.5545 15.8867 16.9322 15.6243C19.232 14.0243 19.249 10.8647 16.8916 9.37346C14.9716 8.16382 12.9982 7.02672 10.9757 6.00483C8.62899 4.81226 5.79585 6.51684 5.65718 9.20492C5.54411 11.4002 5.58464 13.6082 5.64438 15.8184C5.68918 17.4291 6.77081 18.6153 8.27485 19.1999C9.44822 19.6543 10.4082 19.2895 11.3896 18.7732C11.8632 18.515 12.3155 18.2633 12.883 18.3316C13.1817 18.3678 13.5379 18.2228 13.6894 18.6494C13.7736 18.83 13.7941 19.0338 13.7476 19.2275C13.7012 19.4212 13.5904 19.5935 13.4334 19.7161C11.6264 21.0751 9.63595 21.7023 7.44496 20.834C5.29023 19.9636 3.96966 18.3806 3.83953 15.9998C3.78406 14.8221 3.83953 13.653 3.83953 12.4754Z" fill="var(--fill-0, white)"/>
<path id="Vector_3" d="M69.237 10.3563C70.9437 8.92697 72.7272 8.68377 74.6537 9.15951C75.6756 9.41125 76.4287 10.0854 77.1178 10.8172C77.4954 11.2182 77.6724 11.4081 78.1076 10.847C78.8055 9.98532 79.7593 9.36779 80.8311 9.08362C81.9029 8.79946 83.0374 8.8634 84.0705 9.26618C86.3468 10.2027 87.5586 11.6513 87.6972 14.2733C87.7719 15.7666 87.6759 17.26 87.7335 18.7534C87.7591 19.4681 87.3964 19.4446 86.8908 19.4531C86.3297 19.4659 85.9649 19.4531 86.0012 18.6894C86.0695 17.3069 86.0332 15.916 86.0183 14.5335C85.9927 12.2444 84.446 10.5846 82.3147 10.5377C80.1834 10.4907 78.5407 12.1825 78.5087 14.5229C78.4902 15.8029 78.4902 17.0829 78.5087 18.363C78.5087 19.003 78.5941 19.4809 77.6276 19.4809C76.5929 19.4809 76.8191 18.8771 76.8169 18.3182C76.8169 17.0381 76.834 15.7581 76.8169 14.4781C76.7721 12.206 75.1742 10.5398 73.0579 10.5292C70.9416 10.5185 69.3522 12.1612 69.2925 14.461C69.2562 15.7752 69.2775 17.0893 69.2925 18.4035C69.2925 18.9838 69.3949 19.4702 68.4711 19.4702C67.6178 19.4702 67.605 19.099 67.6178 18.4568C67.6434 15.7581 67.6178 13.0572 67.6455 10.3499C67.6455 9.99154 67.2935 9.34085 68.149 9.36645C68.7143 9.38779 69.4226 9.18938 69.237 10.3563Z" fill="var(--fill-0, white)"/>
<path id="Vector_4" d="M43.5464 10.258C43.5464 8.77533 43.5762 7.42703 43.5336 6.08086C43.508 5.29364 43.9474 5.26804 44.5427 5.2275C45.2509 5.18697 45.2403 5.57524 45.2381 6.08086C45.2275 10.1962 45.2381 14.3136 45.2381 18.4289C45.2381 18.9345 45.4109 19.47 44.5043 19.4615C43.7064 19.4615 43.3821 19.2482 43.6232 18.2028C42.1789 19.3698 40.709 19.8455 39.0684 19.6343C38.2899 19.5474 37.5408 19.2871 36.8763 18.8724C36.2117 18.4578 35.6486 17.8995 35.2283 17.2385C34.559 16.2043 34.2596 14.9739 34.3789 13.7478C34.4983 12.5217 35.0292 11.3721 35.8854 10.4863C37.4278 8.84787 40.9607 8.17372 43.5464 10.258ZM36.0347 14.256C36.0197 14.7563 36.1047 15.2546 36.285 15.7215C36.4652 16.1885 36.7369 16.6147 37.0841 16.9752C37.4314 17.3357 37.8471 17.6232 38.307 17.8207C38.7669 18.0183 39.2616 18.122 39.7622 18.1257C40.2627 18.1294 40.7589 18.033 41.2216 17.8423C41.6844 17.6515 42.1044 17.3702 42.4569 17.0149C42.8094 16.6596 43.0874 16.2374 43.2745 15.7732C43.4616 15.3089 43.554 14.812 43.5464 14.3115C43.5374 13.3083 43.1345 12.3488 42.4245 11.6399C41.7145 10.9311 40.7543 10.5298 39.7511 10.5226C38.7664 10.5354 37.826 10.9334 37.1313 11.6312C36.4366 12.3291 36.043 13.2714 36.0347 14.256Z" fill="var(--fill-0, white)"/>
<path id="Vector_5" d="M63.3605 10.3216C63.3306 9.57281 63.4437 9.1312 64.2672 9.14187C64.9413 9.14187 65.0907 9.35521 65.0821 9.99522C65.0459 12.7686 65.0821 15.542 65.0501 18.3155C65.0501 18.7421 65.4363 19.4526 64.4506 19.4526C63.7146 19.4526 63.0533 19.4824 63.4245 18.3517C59.9193 20.259 57.3486 19.9923 55.4883 17.6264C53.9245 15.638 54.0376 12.5937 55.7187 10.7504C57.3699 8.93493 60.3737 8.07304 63.3605 10.3216ZM63.3605 14.2812C63.3797 12.31 61.6196 10.5542 59.5993 10.5243C57.579 10.4944 55.8467 12.2118 55.8104 14.2364C55.7958 14.7394 55.882 15.2402 56.0637 15.7095C56.2454 16.1787 56.5191 16.6069 56.8687 16.9688C57.2182 17.3308 57.6366 17.6193 58.0992 17.8173C58.5618 18.0152 59.0593 18.1188 59.5625 18.1218C60.0657 18.1247 60.5644 18.0271 61.0294 17.8346C61.4943 17.6422 61.9161 17.3587 62.2699 17.0009C62.6237 16.6431 62.9025 16.2182 63.0897 15.7512C63.277 15.2841 63.3691 14.7843 63.3605 14.2812Z" fill="var(--fill-0, white)"/>
<path id="Vector_6" d="M14.9056 12.4887C13.1775 11.501 11.6692 10.6476 10.1694 9.77931C9.64675 9.47637 9.38007 9.53397 9.41634 10.206C9.45261 10.878 9.203 11.4604 8.43071 11.4306C7.65843 11.4007 7.54749 10.7735 7.53256 10.1142C7.51336 9.17556 7.60296 8.3222 8.49685 7.78885C9.35021 7.28324 10.1182 7.62458 10.8841 8.07686C12.4415 8.99848 14.0287 9.87104 15.5776 10.7948C17.1264 11.7186 17.1542 13.2311 15.6266 14.1549C13.8965 15.2024 12.1279 16.188 10.37 17.1886C9.46968 17.7027 8.66325 17.515 7.9763 16.7619C7.52189 16.2691 7.33628 14.4941 7.68403 14.0162C7.77845 13.8669 7.91848 13.7521 8.08334 13.6887C8.24821 13.6252 8.42913 13.6167 8.59925 13.6642C9.02593 13.7773 9.44194 13.9544 9.39714 14.4856C9.29047 15.6867 9.82382 15.3773 10.4638 14.9912C11.8761 14.1805 13.2991 13.3954 14.9056 12.4887Z" fill="var(--fill-0, white)"/>
<path id="Vector_7" d="M0.0296061 9.34462C0.0360063 2.44523 7.34074 -2.09249 13.502 0.977457C14.0417 1.24626 14.5687 1.53641 15.0935 1.83081C15.6183 2.12522 15.9084 2.58603 15.5543 3.15565C15.2258 3.68687 14.7308 3.76367 14.1761 3.41379C12.5227 2.37696 10.784 1.70708 8.74665 1.87348C5.14121 2.16576 2.08406 5.25064 1.94539 8.87314C1.92406 9.40436 1.99873 9.95264 1.89846 10.4668C1.79819 10.9809 1.57845 11.5207 0.923497 11.4993C0.268546 11.478 0.0104056 11.0407 0.0296061 10.4113C0.0402731 10.055 0.0317395 9.69876 0.0296061 9.34462Z" fill="var(--fill-0, white)"/>
<path id="Vector_8" d="M47.8065 9.06356C48.2481 9.89985 49.8119 8.24007 49.4897 10.2839C50.4177 9.63104 51.269 9.06569 52.3186 8.94195C52.7602 8.89075 53.2231 8.85875 53.2103 9.5009C53.2103 9.94678 53.4237 10.4417 52.6557 10.6444C50.2705 11.2844 49.5068 12.3511 49.4982 14.8365C49.4982 16.1486 49.4556 17.4627 49.5132 18.7705C49.5452 19.5214 49.11 19.4297 48.6406 19.4404C48.1713 19.451 47.7873 19.4745 47.7873 18.7556C47.8299 15.6024 47.8065 12.4471 47.8065 9.06356Z" fill="var(--fill-0, white)"/>
<path id="Vector_9" d="M30.3235 9.2482C30.4857 9.29727 30.6329 9.39754 30.7225 9.35914C32.2585 8.71912 32.0324 9.78581 32.026 10.6818C32.0004 13.3422 32.0004 16.0004 32.0388 18.6629C32.0516 19.3797 31.7679 19.4543 31.1726 19.4522C30.5774 19.4501 30.2937 19.3839 30.3043 18.6629C30.347 15.5438 30.3235 12.4227 30.3235 9.2482Z" fill="var(--fill-0, white)"/>
<path id="Vector_10" d="M31.556 5.35294C31.6598 5.36549 31.7601 5.39871 31.8508 5.45063C31.9416 5.50255 32.021 5.57212 32.0844 5.65524C32.1479 5.73836 32.194 5.83334 32.2201 5.93458C32.2463 6.03582 32.2519 6.14127 32.2366 6.2447C32.1811 6.82925 31.9443 7.44793 31.2083 7.4586C30.5789 7.4586 30.1416 7.13006 30.0818 6.43671C30.005 5.44468 30.7944 5.50868 31.556 5.35294Z" fill="var(--fill-0, white)"/>
</g>
</svg>
