<svg preserveAspectRatio="none" width="100%" height="100%" overflow="visible" style="display: block;" viewBox="0 0 1365 416.864" fill="none" xmlns="http://www.w3.org/2000/svg">
<g id="Group 2105">
<path id="Vector" d="M1328.68 315.972L1365 390.321C1345.74 398.289 1348.86 377.992 1337.61 371.963H1310.44C1306.4 378.531 1301.99 385.583 1297.58 392.636L1292.52 390.052L1328.68 315.972ZM1336.27 363.618L1324.91 340.952C1319.75 352.689 1309.95 362.595 1336.27 363.618Z" fill="url(#paint0_linear_0_250)" fill-opacity="0.1"/>
<g id="Group 2104">
<path id="Vector_2" d="M1026.59 45.3865C1011.31 43.3406 1001.51 35.8572 1002.59 21.2673C1003.67 6.67737 1013.35 -1.02138 1028.04 0.109206C1030.97 0.0352758 1033.88 0.572646 1036.58 1.68698C1039.29 2.80132 1041.73 4.46812 1043.76 6.5809C1045.78 8.69367 1047.34 11.206 1048.34 13.9572C1049.34 16.7085 1049.76 19.6383 1049.56 22.5594C1049.56 38.1184 1039.18 43.6098 1026.59 45.3865Z" fill="url(#paint1_linear_0_250)"/>
<path id="Vector_3" d="M317.467 61.7522C303.745 86.6251 290.939 109.398 278.563 132.387C261.991 163.074 262.959 193.223 289.809 216.696C298.79 225.145 310.654 229.849 322.982 229.849C335.31 229.849 347.173 225.145 356.154 216.696C383.058 193.169 383.919 162.859 367.346 132.387C354.917 109.398 342.164 86.6251 328.443 61.6984C394.197 64.5517 442.785 114.405 441.44 173.142C440.149 235.432 387.632 283.778 321.448 283.239C256.879 282.701 205.223 234.247 204.201 173.034C203.501 114.082 252.197 64.1749 317.467 61.7522Z" fill="url(#paint2_linear_0_250)"/>
<path id="Vector_4" d="M1021.71 61.8048C1007.88 87.0545 995.124 109.72 983.017 132.709C967.359 162.319 967.359 191.93 992.595 215.457C1001.65 224.54 1013.91 229.703 1026.73 229.834C1039.55 229.965 1051.91 225.053 1061.15 216.157C1086.97 193.437 1088.05 163.988 1072.28 134.001C1059.91 110.851 1047.21 87.8083 1033.7 62.9892C1062.48 62.3845 1090.35 73.0691 1111.36 92.7583C1132.36 112.447 1144.84 139.578 1146.11 168.349C1147.83 229.616 1097.68 280.923 1033.44 283.077C966.606 285.338 911.991 238.499 909.677 177.125C907.471 114.458 953.1 65.1966 1021.71 61.8048Z" fill="url(#paint3_linear_0_250)"/>
<path id="Vector_5" d="M0 71.8733C38.6879 71.8733 74.4164 70.0967 109.768 72.4655C136.296 74.2422 161.585 84.2021 169.495 113.22C177.405 142.239 158.733 159.251 133.605 172.926C165.19 183.048 187.305 199.199 181.387 233.655C175.468 268.111 148.456 280.762 117.248 282.108C78.2906 284.1 39.226 282.593 0 282.593V71.8733ZM37.6656 267.68C73.5555 263.373 111.921 278.717 136.511 243.668C140.734 237.218 142.683 229.54 142.049 221.855C141.416 214.17 138.236 206.916 133.013 201.245C107.024 170.665 71.5108 182.671 37.6656 180.84V267.68ZM37.3427 166.304C69.6275 161.351 105.033 178.687 127.041 144.015C131.218 138.096 133.213 130.909 132.683 123.682C132.153 116.455 129.132 109.637 124.135 104.391C99.7061 78.6568 68.1209 85.7095 37.3427 86.1402V166.304Z" fill="url(#paint4_linear_0_250)"/>
<path id="Vector_6" d="M697.889 71.7655C735.554 71.7655 771.337 69.8812 806.742 72.4116C833.108 74.242 858.775 83.8251 866.577 113.005C874.379 142.185 856.568 159.413 830.525 172.818C863.51 183.047 885.678 200.491 878.199 235.862C870.935 270.049 843.332 281.247 812.123 282.593C774.78 284.208 737.384 282.97 697.889 282.97V71.7655ZM734.962 267.572C770.637 263.481 808.733 278.34 833.754 243.991C838.079 237.586 840.118 229.909 839.542 222.201C838.966 214.492 835.808 207.204 830.579 201.514C804.698 170.557 768.969 182.724 734.962 180.732V267.572ZM734.532 166.358C766.817 161.243 802.384 178.848 824.391 143.8C828.534 137.867 830.493 130.681 829.934 123.466C829.374 116.25 826.332 109.452 821.324 104.229C796.788 78.7105 765.202 85.6556 734.532 86.0863V166.358Z" fill="url(#paint5_linear_0_250)"/>
<path id="Vector_7" d="M1285.26 181.81L1363.55 281.409H1319.32L1243.99 185.148H1216.71V282.378H1179.85V70.3663C1209.49 70.3663 1238.71 68.805 1267.72 70.797C1298.92 72.9504 1330.35 80.4877 1337.67 116.72C1345.2 154.514 1315.93 168.889 1285.26 181.81ZM1217.78 171.042C1246.14 172.765 1273.26 174.326 1290.8 148.054C1295.45 141.441 1297.82 133.494 1297.56 125.414C1297.29 117.334 1294.41 109.558 1289.35 103.261C1271 78.2804 1244.2 84.5255 1217.78 85.4946V171.042Z" fill="url(#paint6_linear_0_250)"/>
<path id="Vector_8" d="M667.218 282.485H622.935C598.829 251.637 573.216 218.957 546.743 185.201H519.839V282.378H482.657V70.366C511.767 70.366 540.985 68.8047 569.988 70.7429C601.25 72.8425 632.835 80.2182 639.938 116.451C647.471 154.137 619.652 169.427 587.206 181.056L667.218 282.485ZM520.43 85.1713V171.311C548.303 172.173 575.261 174.272 593.286 148.646C597.745 142.47 600.199 135.072 600.315 127.455C600.43 119.837 598.202 112.368 593.932 106.06C576.498 77.8494 548.303 85.0636 520.43 85.1713Z" fill="url(#paint7_linear_0_250)"/>
<path id="Vector_9" d="M1188.83 329.54C1217.19 347.575 1215.25 365.665 1179.74 398.667L1208.42 416.864C1171.51 407.873 1143.2 396.836 1128.3 367.118C1120.6 351.828 1128.3 336.969 1142.07 328.355C1157.36 318.988 1174.36 312.689 1189.26 329.916C1186.79 329.916 1183.88 331.262 1181.95 330.347C1168.33 323.941 1155.04 323.618 1147.19 337.561C1142.93 344.348 1140.97 352.324 1141.59 360.311C1142.21 368.299 1145.38 375.876 1150.63 381.923C1153.65 385.876 1158.07 388.512 1162.98 389.285C1167.89 390.057 1172.91 388.905 1177 386.069C1192.76 377.132 1192.38 362.057 1190.39 346.714C1189.64 341.007 1189.16 335.246 1188.83 329.54Z" fill="url(#paint8_linear_0_250)" fill-opacity="0.1"/>
<path id="Vector_10" d="M1086.38 315.972C1100.21 344.183 1111.29 366.848 1122.65 390.106C1103.28 398.558 1106.51 377.562 1093.27 371.532L1070.78 370.401L1054.63 392.259L1050.22 389.783L1086.38 315.972ZM1083.58 342.406C1074.22 355.596 1071.85 362.703 1093.48 363.672L1083.58 342.406Z" fill="url(#paint9_linear_0_250)" fill-opacity="0.1"/>
<path id="Vector_11" d="M322.848 0.000114441C337.268 1.45372 347.169 8.50642 346.9 23.204C346.631 37.9016 336.139 45.7081 322.095 45.2235C309.342 44.7928 299.764 37.3633 299.495 23.6886C299.172 8.82945 308.643 1.72291 322.848 0.000114441Z" fill="url(#paint10_linear_0_250)"/>
<path id="Vector_12" d="M1274.82 388.114C1224.83 401.143 1212.89 382.084 1224.51 320.064C1251.68 336.807 1210.03 393.713 1274.82 388.114Z" fill="url(#paint11_linear_0_250)" fill-opacity="0.1"/>
</g>
<path id="Vector_13" d="M1280.15 375.354V326.901H1283.37V375.354H1280.15Z" fill="url(#paint12_linear_0_250)" fill-opacity="0.1"/>
</g>
<defs>
<linearGradient id="paint0_linear_0_250" x1="1296.94" y1="333.992" x2="1284.07" y2="397.978" gradientUnits="userSpaceOnUse">
<stop stop-color="white" stop-opacity="0.48"/>
<stop offset="1" stop-color="#CFD7DD" stop-opacity="0"/>
</linearGradient>
<linearGradient id="paint1_linear_0_250" x1="1005.38" y1="10.6684" x2="998.394" y2="48.8015" gradientUnits="userSpaceOnUse">
<stop stop-color="white" stop-opacity="0.48"/>
<stop offset="1" stop-color="#CFD7DD" stop-opacity="0"/>
</linearGradient>
<linearGradient id="paint2_linear_0_250" x1="218.666" y1="113.774" x2="185.544" y2="300.283" gradientUnits="userSpaceOnUse">
<stop stop-color="white" stop-opacity="0.48"/>
<stop offset="1" stop-color="#CFD7DD" stop-opacity="0"/>
</linearGradient>
<linearGradient id="paint3_linear_0_250" x1="924.029" y1="113.834" x2="890.869" y2="300.155" gradientUnits="userSpaceOnUse">
<stop stop-color="white" stop-opacity="0.48"/>
<stop offset="1" stop-color="#CFD7DD" stop-opacity="0"/>
</linearGradient>
<linearGradient id="paint4_linear_0_250" x1="11.1224" y1="121.043" x2="-27.6567" y2="296.493" gradientUnits="userSpaceOnUse">
<stop stop-color="white" stop-opacity="0.48"/>
<stop offset="1" stop-color="#CFD7DD" stop-opacity="0"/>
</linearGradient>
<linearGradient id="paint5_linear_0_250" x1="708.976" y1="121.001" x2="669.935" y2="296.718" gradientUnits="userSpaceOnUse">
<stop stop-color="white" stop-opacity="0.48"/>
<stop offset="1" stop-color="#CFD7DD" stop-opacity="0"/>
</linearGradient>
<linearGradient id="paint6_linear_0_250" x1="1191.05" y1="119.755" x2="1152.29" y2="295.842" gradientUnits="userSpaceOnUse">
<stop stop-color="white" stop-opacity="0.48"/>
<stop offset="1" stop-color="#CFD7DD" stop-opacity="0"/>
</linearGradient>
<linearGradient id="paint7_linear_0_250" x1="493.915" y1="119.771" x2="455.279" y2="296.024" gradientUnits="userSpaceOnUse">
<stop stop-color="white" stop-opacity="0.48"/>
<stop offset="1" stop-color="#CFD7DD" stop-opacity="0"/>
</linearGradient>
<linearGradient id="paint8_linear_0_250" x1="1130.32" y1="342.068" x2="1112.24" y2="422.937" gradientUnits="userSpaceOnUse">
<stop stop-color="white" stop-opacity="0.48"/>
<stop offset="1" stop-color="#CFD7DD" stop-opacity="0"/>
</linearGradient>
<linearGradient id="paint9_linear_0_250" x1="1054.64" y1="333.904" x2="1041.88" y2="397.596" gradientUnits="userSpaceOnUse">
<stop stop-color="white" stop-opacity="0.48"/>
<stop offset="1" stop-color="#CFD7DD" stop-opacity="0"/>
</linearGradient>
<linearGradient id="paint10_linear_0_250" x1="302.38" y1="10.6351" x2="295.477" y2="48.6732" gradientUnits="userSpaceOnUse">
<stop stop-color="white" stop-opacity="0.48"/>
<stop offset="1" stop-color="#CFD7DD" stop-opacity="0"/>
</linearGradient>
<linearGradient id="paint11_linear_0_250" x1="1223.72" y1="336.971" x2="1208.95" y2="395.723" gradientUnits="userSpaceOnUse">
<stop stop-color="white" stop-opacity="0.48"/>
<stop offset="1" stop-color="#CFD7DD" stop-opacity="0"/>
</linearGradient>
<linearGradient id="paint12_linear_0_250" x1="1280.34" y1="338.29" x2="1267.21" y2="342.889" gradientUnits="userSpaceOnUse">
<stop stop-color="white" stop-opacity="0.48"/>
<stop offset="1" stop-color="#CFD7DD" stop-opacity="0"/>
</linearGradient>
</defs>
</svg>
