<svg preserveAspectRatio="none" width="100%" height="100%" overflow="visible" style="display: block;" viewBox="0 0 48.946 29.2092" fill="none" xmlns="http://www.w3.org/2000/svg">
<g id="Group 2121">
<path id="Vector" d="M24.4707 25.4257C23.8559 25.9457 23.2279 26.4471 22.5463 26.8797C20.5831 28.1264 18.4474 28.8783 16.1299 29.1072C9.0335 29.81 2.50776 25.3898 0.553876 18.5588C-1.11313 12.7372 1.06716 6.41151 5.95885 2.84294C7.98678 1.36386 10.238 0.425617 12.7296 0.122921C17.0628 -0.400516 20.9014 0.747772 24.2455 3.56779C24.3192 3.63003 24.394 3.69111 24.468 3.75257C24.4917 3.8326 24.4293 3.86855 24.3831 3.9103C24.0753 4.16661 23.7985 4.45461 23.5206 4.74107C23.3616 4.9046 23.2104 5.0774 23.0309 5.27688H23.2635C24.0897 5.27688 24.9158 5.2792 25.7415 5.27456C25.8687 5.27456 25.9575 5.30278 26.0342 5.41218C26.1742 5.61205 26.3359 5.79877 26.4801 5.99438C26.6716 6.2561 26.8658 6.51705 27.0341 6.82902H26.7956C25.2209 6.82902 23.6465 6.83095 22.0718 6.82593C21.9315 6.82593 21.8547 6.86768 21.7826 6.98945C21.5628 7.36058 21.3511 7.73518 21.1623 8.12254C21.0418 8.36879 21.0414 8.36879 21.3069 8.36879C23.443 8.36879 25.5791 8.36776 27.7152 8.3657C27.8493 8.3657 27.923 8.40049 27.9769 8.52806C28.1389 8.91465 28.3068 9.29544 28.4444 9.69014C28.5251 9.92209 28.5247 9.92209 28.2851 9.92209H22.1292C21.6194 9.92209 21.1096 9.9248 20.5998 9.92016C20.4835 9.92016 20.406 9.94335 20.3711 10.069C20.2606 10.4649 20.1458 10.8592 20.047 11.2581C19.9997 11.4487 20.0625 11.4646 20.2265 11.4642C22.4078 11.4595 24.5891 11.4585 26.7704 11.4611C27.4295 11.4611 28.0885 11.4696 28.7449 11.4557C28.9248 11.4518 28.9775 11.5226 29.0019 11.6745C29.0352 11.8898 29.0794 12.1036 29.1182 12.3181C28.4103 12.1871 28.0253 12.6495 27.6431 13.128C27.6602 12.9112 27.6888 12.7086 27.7245 12.5072C27.7427 12.4071 27.7148 12.373 27.6082 12.3754C27.2981 12.3815 26.9899 12.3754 26.6809 12.3754C26.3041 12.3754 26.3041 12.3754 26.2327 12.7326C26.225 12.7712 26.2161 12.8076 26.2075 12.8451C25.8881 12.8427 25.8834 12.842 25.842 13.0963C25.6543 14.2479 25.4684 15.3999 25.2841 16.5524C25.1717 17.2483 25.0604 17.9441 24.9425 18.64C24.9154 18.8 24.9236 18.8862 25.129 18.8719C25.424 18.853 25.7214 18.87 26.018 18.8657C26.1781 18.8634 26.3719 18.9288 26.4886 18.8391C26.5983 18.7552 26.5545 18.5522 26.5937 18.4049C26.651 18.3974 26.7088 18.3952 26.7666 18.3984C26.8937 18.4169 26.9309 18.3566 26.9488 18.2414C27.05 17.5842 27.15 16.9232 27.2655 16.2667C27.3504 15.7831 27.4151 15.2929 27.6047 14.8333C27.6268 14.8178 27.6512 14.8035 27.6435 14.7699H27.6404C27.8272 14.7115 27.997 14.5967 28.2091 14.628C28.3556 14.6496 28.4522 14.6783 28.3956 14.8638C28.3646 14.9655 28.3805 15.0811 28.3712 15.1901C28.2897 16.1407 28.4072 17.05 28.9279 17.8765C28.8236 18.2406 28.7061 18.6013 28.62 18.9694C28.5724 19.1735 28.4766 19.2195 28.2762 19.2187C25.7268 19.2114 23.1778 19.2152 20.6289 19.211C20.4622 19.211 20.435 19.2477 20.494 19.4004C20.6397 19.792 20.7956 20.179 20.9592 20.5636C21.0212 20.7098 21.1042 20.7569 21.2635 20.7569C23.4061 20.7515 25.5486 20.7507 27.6912 20.7546C27.7579 20.7546 27.83 20.7322 27.904 20.7824C27.6819 21.2536 27.4361 21.7132 27.1674 22.1595C27.0976 22.2778 27.0189 22.3095 26.8898 22.3091C25.3024 22.3052 23.7149 22.3052 22.1272 22.3091C22.0617 22.3091 21.9877 22.2801 21.921 22.3439C22.2187 22.8103 22.5413 23.2604 22.8875 23.6923C22.9167 23.7333 22.956 23.766 23.0017 23.7874C23.0473 23.8087 23.0977 23.8179 23.148 23.814C24.0191 23.8102 24.8902 23.8113 25.7617 23.814C25.8226 23.814 25.8873 23.7955 25.9649 23.8392C25.8966 23.9219 25.8334 24 25.7687 24.0773C25.3686 24.5582 24.9174 24.9897 24.4707 25.4257ZM16.566 18.0984C16.5974 18.1026 16.6048 18.079 16.6157 18.0597C16.8113 17.8967 16.9765 17.7004 17.1034 17.4798C17.1061 17.6271 17.1014 17.7756 17.1134 17.9225C17.1596 18.4861 17.5011 18.86 18.057 18.9589C18.4331 19.0258 18.8006 18.9589 19.1646 18.8719C19.5287 18.785 19.5294 18.783 19.5562 18.4138C19.5907 18.3967 19.6271 18.3837 19.6647 18.3752C19.8586 18.3555 19.9415 18.2665 19.9559 18.0589C19.9756 17.7686 20.0443 17.4814 20.0923 17.193C20.1082 17.2344 20.1261 17.275 20.1392 17.3171C20.3769 18.0848 20.8739 18.5982 21.6492 18.829C22.449 19.0672 23.2519 19.0014 24.0528 18.829C24.4405 18.7463 24.4405 18.7393 24.5053 18.3423C24.6948 18.3091 24.7724 18.2028 24.7983 18.0056C24.853 17.5947 24.9433 17.1884 25.0224 16.7612C24.8514 16.8199 24.7072 16.8741 24.5603 16.9189C23.9633 17.1014 23.3585 17.2243 22.7382 17.0538C22.3754 16.9545 22.1013 16.7523 22.0075 16.3645H24.3281C24.8069 16.3645 24.8069 16.3645 24.8821 15.9006C24.9716 15.8481 25.1352 15.9841 25.1697 15.8048C25.2643 15.3076 25.3818 14.8109 25.3574 14.2998C25.2895 12.8976 24.2626 12.0441 22.8638 12.2231C21.9865 12.3352 21.4321 12.9 20.9623 13.5807C20.7444 13.7141 20.6432 13.9406 20.5289 14.149C20.0431 15.0358 19.9198 15.9861 20.0594 16.9781C19.8858 17.0292 19.7032 17.0424 19.524 17.0167C19.2313 16.98 19.0976 16.7952 19.1456 16.5064C19.165 16.3862 19.1844 16.266 19.2042 16.1461C19.3057 15.5469 19.4074 14.9478 19.5093 14.3489L19.5868 14.3508C20.0985 14.3531 20.0985 14.3531 20.1478 13.8502C20.292 13.8428 20.4265 13.8599 20.442 13.6352C20.468 13.2583 20.5347 12.8841 20.5905 12.5095C20.6052 12.4098 20.5847 12.3727 20.4765 12.3765C20.2649 12.3839 20.0528 12.3765 19.8287 12.3765C19.871 12.1214 19.8962 11.8782 19.9559 11.642C19.9993 11.47 19.9365 11.4549 19.7927 11.4576C19.4189 11.4653 19.0445 11.47 18.6711 11.4576C18.4878 11.451 18.3796 11.4866 18.3757 11.6927C18.3757 11.7731 18.3389 11.8531 18.3187 11.9331C17.9853 11.9358 18.0233 11.8666 17.9609 12.2254C17.7326 13.5371 17.51 14.8495 17.2852 16.162C17.1968 15.5214 16.8351 15.0954 16.2516 14.8356C16.0535 14.7475 15.8496 14.667 15.6701 14.5422C15.5399 14.4513 15.4325 14.3446 15.4515 14.166C15.7911 14.0991 16.1311 14.1537 16.4711 14.1598C16.6304 14.1625 16.8335 14.2704 16.9343 14.166C17.0266 14.0705 17.0033 13.8645 17.0309 13.7075C17.1014 13.7122 17.1728 13.7114 17.2425 13.7222C17.3286 13.7358 17.3709 13.7157 17.3829 13.6194C17.4302 13.2498 17.4825 12.8809 17.5399 12.5126C17.5581 12.3966 17.5379 12.3452 17.4057 12.3267C16.8998 12.2559 16.3916 12.208 15.8818 12.2412C15.1177 12.2907 14.44 12.5203 14.0167 13.222L13.976 13.2753L13.9787 13.273C13.7073 13.4489 13.5992 13.7331 13.4844 14.0126C13.4809 13.9874 13.4763 13.9619 13.4747 13.9352C13.4185 13.0248 12.9707 12.4859 12.0768 12.2969C11.3223 12.1368 10.5811 12.2513 9.8422 12.4303C9.56191 12.4979 9.37699 12.6104 9.38513 12.9247C9.13779 12.9549 8.99396 13.0674 8.98543 13.3407C8.97884 13.544 8.92418 13.7458 8.89394 13.9488C8.87417 14.0798 8.77531 14.258 8.85517 14.3288C8.93503 14.3995 9.10096 14.2808 9.23083 14.2515C9.84569 14.1158 10.464 14.0535 11.0917 14.1537C11.3022 14.1873 11.4662 14.2913 11.5073 14.5232C10.9816 14.4989 10.4644 14.5437 9.96121 14.7057C9.45801 14.8677 9.06336 15.1696 8.74391 15.5809L8.70825 15.6296L8.71173 15.6269C8.47603 15.7765 8.35275 16.0104 8.23257 16.249C8.16085 16.3912 8.15271 16.5582 8.05966 16.69C8.12479 16.2841 8.18798 15.8782 8.25544 15.4727C8.49347 14.0408 8.73319 12.609 8.97458 11.1773C8.99861 11.0358 8.98039 10.9794 8.81292 10.984C8.22598 10.9949 7.63826 10.9875 7.05093 10.9887C6.88384 10.9887 6.68807 10.9419 6.55665 11.0123C6.42522 11.0826 6.44422 11.2987 6.37328 11.4421C6.06313 11.4259 6.06313 11.4255 5.96311 11.7216C5.88248 11.9652 5.80378 12.2099 5.7212 12.4531C5.47852 13.1695 5.23506 13.8859 4.99082 14.6021C4.98695 14.5317 4.98152 14.4614 4.97997 14.3906C4.95865 13.3113 4.93461 12.2323 4.91949 11.1526C4.91949 11.0169 4.88072 10.9829 4.74698 10.9848C4.18601 10.9929 3.62504 10.9883 3.06408 10.9883C2.64849 10.9883 2.64887 10.9883 2.5756 11.3873C2.56873 11.4119 2.55965 11.4358 2.54847 11.4588C2.49677 11.461 2.44499 11.4601 2.3934 11.4561C2.23833 11.4352 2.17591 11.4816 2.14877 11.654C1.9782 12.7364 1.79095 13.8189 1.60603 14.9013C1.39281 16.1595 1.17829 17.4176 0.962486 18.6755C0.939613 18.8093 0.955896 18.8754 1.11949 18.8688C1.42188 18.8561 1.72504 18.865 2.02821 18.865C2.49342 18.865 2.49342 18.865 2.56397 18.4034C2.61432 18.3941 2.66556 18.3905 2.71672 18.3926C2.85473 18.4142 2.91056 18.3589 2.92916 18.2229C3.00166 17.7466 3.08423 17.2719 3.16642 16.7971C3.26528 16.2285 3.3684 15.6606 3.46958 15.0923C3.4847 15.5353 3.50215 15.978 3.51378 16.421C3.53355 17.1663 3.55255 17.9113 3.56456 18.6566C3.56728 18.8178 3.61457 18.8905 3.78903 18.8685C3.9158 18.8522 4.04645 18.865 4.1767 18.865C4.66634 18.865 4.66634 18.865 4.81249 18.4038C5.02726 18.4305 5.10092 18.3098 5.15907 18.1227C5.2808 17.7323 5.43045 17.3496 5.57001 16.9661C5.85431 16.1852 6.1386 15.4045 6.4229 14.6241C6.41592 14.7069 6.41359 14.7908 6.4008 14.8727C6.19998 16.1461 6.00149 17.4203 5.79176 18.6926C5.76501 18.8565 5.81851 18.8708 5.9542 18.8677C6.27636 18.8596 6.5989 18.865 6.92339 18.865C7.3886 18.865 7.3886 18.865 7.43861 18.4011C7.76852 18.3698 7.76968 18.3701 7.82977 18.0381C7.90343 17.6301 7.97631 17.2224 8.04842 16.8149C8.04842 17.0523 8.03873 17.2904 8.04842 17.5274C8.07788 18.1885 8.45044 18.7208 9.03389 18.8859C9.7414 19.0861 10.383 18.9384 10.9382 18.4475C10.9874 18.4042 11.0157 18.3276 11.0963 18.3261C11.0963 18.4463 11.1118 18.5646 11.0928 18.6767C11.0657 18.8368 11.1351 18.8615 11.2719 18.8569C11.51 18.8484 11.7488 18.8569 11.9872 18.853C12.1423 18.8495 12.3245 18.9137 12.4388 18.8244C12.5396 18.7451 12.4912 18.5576 12.5257 18.4212C12.5288 18.4088 12.5303 18.3957 12.5327 18.3825L12.8389 18.3806C12.8344 18.4252 12.8265 18.4694 12.8153 18.5128C12.7482 18.7177 12.8436 18.79 13.0363 18.8221C13.6514 18.927 14.2762 18.9636 14.8994 18.9311C15.3863 18.9056 15.855 18.7958 16.2493 18.4834C16.3827 18.3775 16.523 18.2727 16.5699 18.0937L16.566 18.0984Z" fill="var(--fill-0, white)"/>
<path id="Vector_2" d="M24.4708 25.4253C24.9174 24.9892 25.3686 24.5578 25.7707 24.0792C25.8354 24.0019 25.8986 23.9246 25.9668 23.8411C25.8893 23.7974 25.8245 23.8159 25.7637 23.8159C24.8922 23.8159 24.0211 23.8132 23.15 23.8159C23.0997 23.8198 23.0493 23.8106 23.0036 23.7893C22.958 23.7679 22.9186 23.7352 22.8895 23.6942C22.5433 23.2623 22.2206 22.8122 21.923 22.3457C21.9897 22.282 22.0637 22.311 22.1292 22.311C23.7169 22.3091 25.3044 22.3091 26.8918 22.311C27.0209 22.311 27.0996 22.2796 27.1694 22.1613C27.4381 21.715 27.6839 21.2554 27.906 20.7843C27.8319 20.7341 27.7598 20.7565 27.6931 20.7565C25.5506 20.7549 23.408 20.7557 21.2655 20.7588C21.1061 20.7588 21.0232 20.712 20.9612 20.5655C20.7983 20.1809 20.6425 19.7923 20.4959 19.4023C20.439 19.2496 20.4642 19.2125 20.6309 19.2129C23.1798 19.2171 25.7288 19.2129 28.2781 19.2206C28.4786 19.2206 28.5743 19.1754 28.622 18.9712C28.7081 18.6032 28.8255 18.2425 28.9298 17.8784C29.3412 18.4219 29.8707 18.7768 30.5457 18.9175C31.1012 19.0335 31.6467 18.9778 32.1933 18.8676C32.6011 18.7857 32.6015 18.788 32.6763 18.3859C32.9035 18.36 33.083 18.2835 33.076 18.0102C33.1987 18.2647 33.3825 18.4851 33.6112 18.6516C33.8399 18.8181 34.1064 18.9257 34.3869 18.9647C34.6673 19.0037 34.9531 18.9729 35.2188 18.8751C35.4845 18.7773 35.7218 18.6155 35.9095 18.4041L36.0433 18.3539C36.0402 18.4756 36.0433 18.5974 36.032 18.7184C36.0231 18.8228 36.0654 18.8514 36.1639 18.8498C36.4143 18.8448 36.6651 18.8498 36.9156 18.8471C37.0753 18.8444 37.2796 18.9133 37.3808 18.8185C37.4707 18.7354 37.4478 18.5317 37.4746 18.3813H38.0704C38.0584 18.5021 38.0396 18.6221 38.0142 18.7408C37.9855 18.8495 38.02 18.8707 38.1208 18.8696C38.4674 18.8653 38.8144 18.8696 39.161 18.8696C39.6192 18.8696 39.6192 18.8696 39.6588 18.4057C39.7231 18.3984 39.7879 18.3963 39.8526 18.3995C39.9747 18.4146 40.0232 18.3639 40.041 18.2448C40.1298 17.6607 40.2193 17.077 40.3194 16.4948C40.4027 16.0084 40.4659 15.5175 40.6272 15.0474C40.8179 14.8498 41.0024 14.6411 41.3192 14.6608C41.3201 14.6719 41.3201 14.683 41.3192 14.6941C41.3025 14.7559 41.2839 14.8174 41.2684 14.8792C41.0497 15.7576 40.9524 16.6386 41.2385 17.5208C41.7165 18.9933 43.1599 19.4034 44.3446 18.4076C44.3667 18.3887 44.3865 18.3558 44.4353 18.3844C44.428 18.4911 44.415 18.5973 44.3965 18.7026C44.3675 18.8297 44.4148 18.8572 44.5338 18.8541C44.8365 18.8471 45.1401 18.8518 45.4433 18.8518C45.9139 18.8518 45.9139 18.8518 45.974 18.384C45.993 18.3813 46.0128 18.3763 46.031 18.3755C46.314 18.3655 46.312 18.3651 46.3551 18.0933C46.5143 17.0915 46.6741 16.0899 46.8346 15.0884C47.0463 13.7768 47.26 12.4654 47.4758 11.1541C47.4952 11.0354 47.4797 10.9813 47.3382 10.9863C47.0281 10.9971 46.7179 10.989 46.4078 10.9902C46.2597 10.9902 46.0822 10.9446 45.9713 11.0099C45.8426 11.0853 45.9112 11.2936 45.855 11.4351C45.8526 11.4409 45.8515 11.4471 45.8495 11.4533C45.7919 11.4564 45.7341 11.4553 45.6766 11.4498C45.5189 11.4235 45.4549 11.4796 45.439 11.6451C45.4037 12.0131 45.346 12.3796 45.2975 12.746C45.2087 12.6826 45.1223 12.6158 45.0308 12.557C44.5532 12.2504 44.0457 12.1805 43.5033 12.3637C43.0691 12.5095 42.7346 12.7928 42.4295 13.1191L42.4054 13.1554V13.1512C42.3453 13.1709 42.2705 13.1775 42.2911 13.2726C42.219 13.2173 42.1949 13.2962 42.1604 13.3252C41.9732 13.4798 41.8367 13.6812 41.6952 13.8753C41.77 13.3861 41.9203 12.9114 42.1407 12.4681C42.1976 12.3521 42.1957 12.308 42.0441 12.298C41.6045 12.2686 41.2947 12.489 41.0245 12.7924C40.9171 12.9131 40.8233 13.0453 40.7012 13.2003C40.74 12.9656 40.7675 12.7685 40.8067 12.574C40.835 12.4352 40.8233 12.3618 40.6477 12.3722C40.3903 12.3877 40.1317 12.3722 39.8724 12.3776C39.7123 12.3807 39.5083 12.31 39.4048 12.4078C39.3129 12.4944 39.3296 12.6954 39.2986 12.8458C39.2599 12.8488 39.2209 12.8481 39.1823 12.8435C39.0001 12.8048 38.9454 12.8933 38.9233 13.0607C38.8822 13.3743 38.8458 13.6897 38.7636 13.997C38.7539 13.9336 38.7427 13.8702 38.7345 13.8068C38.6182 12.9127 38.0995 12.3896 37.2032 12.2659C36.4771 12.1658 35.7688 12.2566 35.0663 12.4484C34.8496 12.5075 34.6651 12.5736 34.6647 12.8412C34.5527 12.8678 34.4418 12.9042 34.3278 12.9185C34.0615 12.9571 33.9401 13.0944 33.9181 13.37C33.8917 13.6986 33.8176 14.0229 33.763 14.3589C33.9731 14.3059 34.1576 14.2499 34.3445 14.2139C34.9035 14.1076 35.4688 14.0546 36.0328 14.1532C36.2344 14.188 36.3968 14.2827 36.441 14.5058C36.3965 14.51 36.3519 14.5158 36.3073 14.5185C35.5758 14.5626 34.8853 14.72 34.3243 15.2337C34.2499 15.2295 34.1871 15.2635 34.1239 15.294C33.5218 15.5844 33.1524 16.0529 33.0314 16.7116C32.8031 16.8334 32.5558 16.8995 32.3049 16.9533C31.4928 17.1272 30.7883 16.714 30.5468 15.9257C30.4305 15.5492 30.4394 15.1641 30.4763 14.781C30.5352 14.2263 30.6658 13.6851 31.0147 13.2246C31.0407 13.2285 31.0535 13.2154 31.0566 13.191L31.0524 13.1949C31.5563 12.8701 32.0991 12.7994 32.6756 12.9591C32.9613 13.043 33.2357 13.1614 33.4928 13.3116C33.5265 13.0913 33.5571 12.8887 33.5881 12.6865C33.6417 12.7059 33.6936 12.7297 33.7432 12.7576C33.8642 12.8396 33.9103 12.8234 33.9281 12.6668C33.9619 12.368 34.0266 12.0722 34.0646 11.7734C34.0886 11.5844 34.2107 11.3563 34.1169 11.2175C34.0177 11.071 33.7626 11.0667 33.5742 11.0095C32.4616 10.6751 31.4133 10.7718 30.4588 11.4811C30.3782 11.5411 30.2929 11.5948 30.2099 11.6512C30.1293 11.6311 30.0785 11.6876 30.0215 11.7255C29.806 11.8631 29.6127 12.0326 29.4482 12.228C29.3532 12.344 29.2636 12.4078 29.1182 12.3305V12.3162C29.0795 12.1016 29.0353 11.8878 29.0019 11.6725C28.9783 11.5206 28.9244 11.4498 28.7449 11.4537C28.0859 11.4676 27.4268 11.4591 26.7705 11.4591C24.5892 11.4591 22.4078 11.4601 20.2265 11.4622C20.0625 11.4622 19.9997 11.4467 20.047 11.2562C20.1459 10.8572 20.2606 10.4629 20.3711 10.067C20.4064 9.94137 20.482 9.91702 20.5998 9.91818C21.1096 9.92282 21.6194 9.92011 22.1292 9.92011H28.2859C28.5255 9.92011 28.5259 9.92011 28.4452 9.68816C28.3076 9.29345 28.1397 8.91112 27.9777 8.52608C27.9238 8.39851 27.8502 8.36372 27.716 8.36372C25.5799 8.3681 23.4438 8.36913 21.3077 8.36681C21.0422 8.36681 21.0426 8.36681 21.1631 8.12055C21.3527 7.73397 21.5644 7.35859 21.7834 6.98747C21.8555 6.8657 21.9323 6.82356 22.0726 6.82395C23.6474 6.82897 25.2217 6.82704 26.7964 6.82704H27.0349C26.8666 6.51506 26.6724 6.25412 26.4809 5.9924C26.3367 5.79524 26.175 5.61007 26.0351 5.4102C25.9575 5.3008 25.8695 5.2718 25.7424 5.27258C24.9166 5.27722 24.0905 5.2749 23.2643 5.2749H23.0317C23.2132 5.07542 23.3624 4.90262 23.5214 4.73909C23.7993 4.45263 24.0761 4.16462 24.3839 3.90832C24.432 3.86966 24.4925 3.831 24.4688 3.75059C25.1915 3.12625 25.9482 2.54831 26.7716 2.06005C28.558 1.00003 30.477 0.320417 32.548 0.100063C37.2912 -0.402498 41.3793 1.01859 44.7497 4.37647C46.9982 6.61867 48.326 9.35338 48.7905 12.4905C49.8453 19.6385 45.4363 26.5812 38.4767 28.5686C33.3288 30.0376 28.6685 28.9641 24.5747 25.5123C24.5406 25.4821 24.5057 25.4539 24.4708 25.4253ZM47.4522 18.4088C47.5455 18.4098 47.637 18.3831 47.715 18.332C47.793 18.281 47.8541 18.208 47.8904 18.1223C47.9267 18.0366 47.9366 17.9421 47.9189 17.8507C47.9012 17.7594 47.8566 17.6754 47.7909 17.6094C47.7251 17.5434 47.6411 17.4984 47.5497 17.4801C47.4582 17.4618 47.3633 17.4711 47.2771 17.5067C47.1909 17.5423 47.1173 17.6027 47.0657 17.6802C47.014 17.7577 46.9866 17.8487 46.987 17.9418C46.9882 18.0647 47.0375 18.1823 47.1244 18.2696C47.2113 18.3568 47.3289 18.4067 47.4522 18.4088Z" fill="var(--fill-0, #EAEAEA)"/>
<path id="Vector_3" d="M47.4694 23.1537C47.3785 23.153 47.2899 23.1254 47.2146 23.0746C47.1393 23.0237 47.0808 22.9518 47.0464 22.8679C47.0119 22.784 47.0031 22.6919 47.0211 22.603C47.039 22.5141 47.0828 22.4325 47.1471 22.3684C47.2114 22.3043 47.2932 22.2606 47.3824 22.2427C47.4715 22.2248 47.5639 22.2336 47.6481 22.2679C47.7322 22.3023 47.8043 22.3606 47.8553 22.4357C47.9063 22.5108 47.9339 22.5992 47.9347 22.6898C47.9354 22.7509 47.9238 22.8116 47.9007 22.8682C47.8776 22.9248 47.8434 22.9762 47.8 23.0195C47.7567 23.0627 47.7051 23.0968 47.6483 23.1199C47.5916 23.1429 47.5307 23.1544 47.4694 23.1537ZM47.4594 23.0903C47.5122 23.0926 47.565 23.0844 47.6146 23.0661C47.6642 23.0479 47.7097 23.0199 47.7483 22.9839C47.787 22.9479 47.818 22.9046 47.8397 22.8565C47.8613 22.8084 47.8732 22.7565 47.8744 22.7037C47.8757 22.651 47.8665 22.5986 47.8472 22.5494C47.8279 22.5003 47.799 22.4556 47.7621 22.4177C47.7253 22.3799 47.6813 22.3498 47.6326 22.3291C47.5839 22.3085 47.5316 22.2977 47.4787 22.2974C47.4259 22.2951 47.3731 22.3033 47.3235 22.3216C47.2739 22.3399 47.2285 22.3678 47.1898 22.4038C47.1511 22.4398 47.1201 22.4831 47.0984 22.5312C47.0768 22.5794 47.0649 22.6313 47.0637 22.684C47.0624 22.7367 47.0716 22.7892 47.0909 22.8383C47.1102 22.8874 47.1391 22.9322 47.176 22.97C47.2128 23.0079 47.2568 23.038 47.3055 23.0586C47.3542 23.0793 47.4065 23.0901 47.4594 23.0903Z" fill="var(--fill-0, white)"/>
<path id="Vector_4" d="M27.6422 14.7758C27.7054 14.3293 28.0299 14.044 28.4435 14.0947C28.5943 14.1132 28.5618 14.0123 28.5753 13.9462C28.6916 13.3861 28.8467 12.8398 29.1181 12.3334C29.2635 12.4107 29.353 12.3481 29.448 12.2309C29.6126 12.0355 29.8059 11.866 30.0214 11.7284C30.0784 11.6897 30.1291 11.6341 30.2098 11.6542C30.204 11.7272 30.1431 11.7612 30.0989 11.8061C29.9094 11.9911 29.7438 12.1988 29.6058 12.4246C28.8118 13.7696 28.6366 15.208 29.0553 16.696C29.3356 17.6895 30.0295 18.2876 31.0615 18.4762C31.6066 18.5756 32.1408 18.4898 32.675 18.3927C32.6002 18.7948 32.5998 18.7925 32.192 18.8744C31.6453 18.9846 31.0999 19.0403 30.5443 18.9243C29.8694 18.7836 29.3398 18.4287 28.9285 17.8851C28.4079 17.0586 28.2904 16.1494 28.3718 15.1988C28.3811 15.0897 28.3652 14.9742 28.3962 14.8725C28.4528 14.6869 28.3575 14.6583 28.2098 14.6367C27.9981 14.6026 27.8283 14.7175 27.6422 14.7758Z" fill="var(--fill-0, #D1D1D1)"/>
<path id="Vector_5" d="M20.0929 17.1923C20.0693 17.1223 20.1421 17.0377 20.0588 16.977C19.9192 15.985 20.0425 15.0348 20.5283 14.148C20.6446 13.9396 20.7438 13.713 20.9617 13.5797C20.8066 13.9446 20.6298 14.2999 20.5407 14.6907C20.3883 15.3576 20.3503 16.0248 20.5124 16.694C20.75 17.6763 21.4292 18.2925 22.4345 18.4468C23.1323 18.5543 23.8216 18.5036 24.5054 18.3428C24.4388 18.7398 24.4399 18.7468 24.053 18.8295C23.2525 19.0008 22.4496 19.0665 21.6494 18.8295C20.8741 18.5976 20.3771 18.0853 20.1394 17.3176C20.1266 17.2743 20.1088 17.2337 20.0929 17.1923Z" fill="var(--fill-0, #D1D1D1)"/>
<path id="Vector_6" d="M2.54747 11.46C2.45094 12.0619 2.3579 12.6626 2.2571 13.2626C1.9816 14.9066 1.70324 16.5504 1.42205 18.1939C1.39375 18.3582 1.43562 18.3988 1.60038 18.3942C1.92138 18.3841 2.24315 18.3988 2.56492 18.4031C2.49514 18.8658 2.49514 18.8658 2.02915 18.8658C1.72599 18.8658 1.42283 18.8569 1.12044 18.8697C0.95684 18.8762 0.940558 18.8101 0.963431 18.6764C1.17975 17.4189 1.39427 16.1609 1.60697 14.9021C1.79034 13.8197 1.97759 12.74 2.14972 11.6548C2.17686 11.4824 2.23966 11.436 2.39434 11.4569C2.44528 11.461 2.49641 11.462 2.54747 11.46Z" fill="var(--fill-0, #D1D1D1)"/>
<path id="Vector_7" d="M18.318 11.9337C18.2066 12.5976 18.0952 13.2615 17.9838 13.9254C17.8106 14.9633 17.6349 16.0006 17.5113 17.0459C17.4854 17.2832 17.5104 17.5233 17.5845 17.7502C17.7439 18.2555 18.194 18.5354 18.7921 18.5099C19.0489 18.495 19.3044 18.4625 19.5566 18.4125C19.5299 18.7817 19.5307 18.784 19.1651 18.8706C18.7995 18.9572 18.4335 19.0252 18.0575 18.9575C17.5016 18.8586 17.16 18.4848 17.1139 17.9211C17.1019 17.7742 17.1065 17.6258 17.1038 17.4785C17.2735 17.0617 17.3357 16.6091 17.2845 16.1621C17.5093 14.8501 17.7319 13.5376 17.9602 12.2259C18.0226 11.8687 17.9846 11.9364 18.318 11.9337Z" fill="var(--fill-0, #D1D1D1)"/>
<path id="Vector_8" d="M8.71068 15.6293C8.60368 15.9347 8.47536 16.2324 8.45133 16.5629C8.42846 16.8742 8.44202 17.1815 8.53196 17.4788C8.75914 18.2322 9.47828 18.6238 10.3269 18.4692C10.7921 18.3849 11.186 18.1781 11.543 17.7904C11.5283 17.9635 11.5287 18.0888 11.5043 18.2094C11.476 18.3513 11.5264 18.3818 11.6613 18.3784C11.9513 18.371 12.2428 18.3811 12.5312 18.3842C12.5289 18.3965 12.5274 18.4097 12.5242 18.4228C12.4897 18.5593 12.5382 18.7468 12.4374 18.826C12.323 18.9153 12.1393 18.8511 11.9858 18.8546C11.7473 18.86 11.5085 18.85 11.2705 18.8585C11.1337 18.8631 11.0643 18.8384 11.0914 18.6783C11.1104 18.5662 11.0949 18.4464 11.0949 18.3277C11.0135 18.3277 10.986 18.405 10.9367 18.4491C10.3816 18.9401 9.73996 19.0877 9.03245 18.8875C8.45094 18.7224 8.07645 18.1916 8.04698 17.529C8.03652 17.2921 8.04698 17.0539 8.04698 16.8158C8.05125 16.774 8.05512 16.7327 8.05939 16.6925C8.15204 16.5602 8.16018 16.3944 8.2319 16.2521C8.3517 16.0128 8.47498 15.779 8.71068 15.6293Z" fill="var(--fill-0, #D1D1D1)"/>
<path id="Vector_9" d="M26.2076 12.8461C26.0743 13.6881 25.9425 14.5301 25.8072 15.3716C25.6521 16.3402 25.4943 17.3083 25.3338 18.2761C25.3144 18.392 25.3617 18.4005 25.4544 18.4005C25.8339 18.4005 26.2139 18.4048 26.5938 18.4079C26.555 18.5552 26.5984 18.7581 26.4887 18.842C26.3724 18.9317 26.1786 18.8664 26.0181 18.8687C25.7215 18.873 25.4242 18.8559 25.1291 18.8749C24.9237 18.888 24.9155 18.8018 24.9427 18.6429C25.059 17.9471 25.1718 17.2512 25.2842 16.5554C25.4705 15.4033 25.6565 14.2513 25.8421 13.0993C25.8839 12.843 25.8886 12.8438 26.2076 12.8461Z" fill="var(--fill-0, #D1D1D1)"/>
<path id="Vector_10" d="M3.47067 15.0916C3.57496 14.4398 3.67924 13.7876 3.78857 13.1049C3.8789 13.3044 3.86106 13.4807 3.8661 13.6543C3.90487 15.1782 3.94364 16.7021 3.97775 18.2264C3.98086 18.3683 4.02931 18.3954 4.15725 18.3919C4.37551 18.3861 4.59455 18.3984 4.81319 18.4031C4.66627 18.8654 4.66627 18.8654 4.17663 18.8654C4.04754 18.8654 3.91689 18.8527 3.78896 18.8689C3.6145 18.891 3.56721 18.8183 3.56449 18.6571C3.55247 17.9117 3.53348 17.1668 3.51371 16.4214C3.50324 15.9773 3.48579 15.5346 3.47067 15.0916Z" fill="var(--fill-0, #D1D1D1)"/>
<path id="Vector_11" d="M6.42297 14.6234L6.95758 13.0871L6.99635 13.0921C7.00023 13.1428 7.00023 13.1937 6.99635 13.2444C6.73389 14.8928 6.47492 16.5412 6.20355 18.1877C6.17564 18.3567 6.20743 18.3961 6.37451 18.3926C6.72807 18.3849 7.08241 18.3972 7.43636 18.4015C7.38518 18.8654 7.38518 18.8654 6.92114 18.8654C6.59859 18.8654 6.27604 18.86 5.95195 18.8681C5.81626 18.8712 5.76276 18.8569 5.78951 18.693C5.99924 17.4207 6.19773 16.1465 6.39855 14.8731C6.41367 14.79 6.41599 14.7061 6.42297 14.6234Z" fill="var(--fill-0, #D1D1D1)"/>
<path id="Vector_12" d="M13.9769 13.2734C13.8993 13.5495 13.8144 13.822 13.7989 14.1131C13.7602 14.8236 14.0164 15.3745 14.6394 15.7468C14.9263 15.9181 15.243 16.0352 15.5148 16.2328C15.7381 16.3951 15.8071 16.5985 15.7086 16.8165C15.6759 16.8903 15.6245 16.9543 15.5595 17.0022C15.4944 17.0502 15.4179 17.0804 15.3376 17.0898C15.3376 16.8911 15.2174 16.7666 15.0643 16.6758C14.8546 16.5509 14.6379 16.4392 14.4196 16.3279C13.8113 16.0132 13.4202 15.5504 13.3861 14.8403C13.4184 14.5648 13.4507 14.2893 13.483 14.0138C13.5973 13.7335 13.7059 13.4493 13.9769 13.2734Z" fill="var(--fill-0, #D1D1D1)"/>
<path id="Vector_13" d="M13.3065 17.4772C13.2739 17.6983 13.2418 17.9198 13.2084 18.1406C13.1964 18.2179 13.1801 18.2906 13.2956 18.3114C14.2497 18.4846 15.2034 18.5855 16.1524 18.2882C16.297 18.2426 16.4304 18.1614 16.5692 18.0949C16.5223 18.2739 16.3819 18.3787 16.2486 18.4846C15.8543 18.797 15.3856 18.9068 14.8987 18.9323C14.2755 18.9648 13.6506 18.9282 13.0355 18.8233C12.8417 18.7908 12.7475 18.7185 12.8145 18.514C12.8257 18.4706 12.8337 18.4264 12.8386 18.3818C12.9336 18.1769 12.9122 17.95 12.9607 17.7362C12.9859 17.6252 12.9964 17.5112 13.0138 17.3987L13.3065 17.4772Z" fill="var(--fill-0, #D1D1D1)"/>
<path id="Vector_14" d="M9.3829 12.9267C9.33328 13.2422 9.28404 13.5572 9.23055 13.8974C9.68406 13.7522 10.1544 13.6656 10.6301 13.6399C10.9274 13.6233 11.2244 13.6171 11.5151 13.6867C11.8807 13.7745 12.052 14.1506 11.8958 14.4916C11.8894 14.5126 11.8752 14.5305 11.8562 14.5415C11.8371 14.5525 11.8146 14.556 11.7931 14.5511C11.6973 14.5419 11.6012 14.5341 11.505 14.526C11.4663 14.2941 11.3003 14.1901 11.0898 14.1564C10.4637 14.0563 9.8454 14.1178 9.22899 14.2542C9.09912 14.2828 8.93087 14.3996 8.85334 14.3315C8.7758 14.2635 8.87039 14.0826 8.8921 13.9515C8.92234 13.7486 8.977 13.5468 8.9836 13.3434C8.9929 13.0693 9.13673 12.9569 9.3829 12.9267Z" fill="var(--fill-0, #D1D1D1)"/>
<path id="Vector_15" d="M22.0066 16.3647C22.0012 16.3532 21.9968 16.3413 21.9934 16.3291C21.9186 15.9062 21.931 15.8907 22.3551 15.8919C23.1972 15.8937 24.0392 15.8961 24.8812 15.8992C24.806 16.3651 24.806 16.3631 24.3272 16.3631L22.0066 16.3647Z" fill="var(--fill-0, #D1D1D1)"/>
<path id="Vector_16" d="M6.3718 11.4433L5.02928 15.4363L4.99051 15.4309V14.6032C5.23397 13.8867 5.47743 13.1704 5.72089 12.4542C5.80346 12.211 5.88216 11.9663 5.9628 11.7228C6.06011 11.4266 6.06011 11.427 6.3718 11.4433Z" fill="var(--fill-0, #D1D1D1)"/>
<path id="Vector_17" d="M15.4503 14.1674C15.453 13.9038 15.5686 13.765 15.8403 13.7035C16.0483 13.6606 16.2613 13.6476 16.473 13.6649C16.6591 13.6765 16.8444 13.6943 17.0297 13.7093C17.0022 13.8663 17.0254 14.0723 16.9332 14.1678C16.8324 14.2722 16.6292 14.1643 16.4699 14.1616C16.1284 14.1551 15.7899 14.1006 15.4503 14.1674Z" fill="var(--fill-0, #D1D1D1)"/>
<path id="Vector_18" d="M19.5083 14.3463C19.5328 13.8298 19.5328 13.8298 20.0336 13.8372C20.0724 13.8372 20.1088 13.8441 20.1468 13.8476C20.0976 14.3502 20.0976 14.3502 19.5859 14.3482L19.5083 14.3463Z" fill="var(--fill-0, #D1D1D1)"/>
<path id="Vector_19" d="M14.0157 13.2216C14.0119 13.2463 14.0157 13.2773 13.975 13.2749L14.0157 13.2216Z" fill="var(--fill-0, #D1D1D1)"/>
<path id="Vector_20" d="M16.5659 18.0984C16.5705 18.0706 16.5907 18.0617 16.6155 18.0598C16.605 18.0791 16.5973 18.1027 16.5659 18.0984Z" fill="var(--fill-0, #D1D1D1)"/>
<path id="Vector_21" d="M8.74313 15.584C8.74778 15.6122 8.75243 15.6404 8.70746 15.6327L8.74313 15.584Z" fill="var(--fill-0, #D1D1D1)"/>
<path id="Vector_22" d="M27.6057 14.8372C27.6088 14.8098 27.5972 14.7738 27.6445 14.7738C27.6523 14.8071 27.6278 14.8218 27.6057 14.8372Z" fill="var(--fill-0, #D1D1D1)"/>
<path id="Vector_23" d="M40.6264 15.0523C40.6758 14.7737 40.7932 14.5114 40.9684 14.2888C41.0796 14.1527 41.2246 14.048 41.4014 14.0847C41.5983 14.1257 41.6728 14.0522 41.6956 13.8771C41.8379 13.6838 41.9744 13.4836 42.1608 13.3274C42.1953 13.2984 42.2194 13.2195 42.2915 13.2748C42.0259 13.7066 41.7809 14.1473 41.6514 14.6433C41.4188 15.5406 41.363 16.4344 41.7425 17.3069C42.2892 18.5641 43.6937 18.8687 44.7238 17.9618L44.8226 17.8756C44.8614 17.9142 44.8424 17.9529 44.8385 17.9857C44.7912 18.3785 44.7904 18.3773 45.1785 18.3789C45.4429 18.3789 45.7069 18.3851 45.9713 18.3882C45.9112 18.8559 45.9112 18.8559 45.4406 18.8559C45.1374 18.8559 44.8339 18.8513 44.5311 18.8583C44.4121 18.861 44.3648 18.8339 44.3939 18.7067C44.4123 18.6014 44.4253 18.4952 44.4326 18.3886C44.3838 18.3599 44.364 18.3928 44.3419 18.4118C43.1572 19.4076 41.7139 18.9974 41.2358 17.5249C40.9497 16.6427 41.0471 15.7617 41.2657 14.8834C41.2812 14.8215 41.2998 14.7601 41.3165 14.6982C41.3175 14.6871 41.3175 14.676 41.3165 14.665C41.0017 14.646 40.8172 14.8548 40.6264 15.0523Z" fill="var(--fill-0, #D1D1D1)"/>
<path id="Vector_24" d="M33.0745 18.0124L33.285 16.6331L33.0362 16.7139C33.1571 16.0567 33.5266 15.5866 34.1286 15.2963C34.1918 15.2657 34.2546 15.2317 34.3291 15.236C33.6855 15.9175 33.5805 16.7193 33.8491 17.576C34.0263 18.1404 34.4694 18.418 35.0509 18.4848C35.3417 18.5181 35.627 18.4682 35.91 18.4075C35.7222 18.6193 35.4847 18.7814 35.2188 18.8794C34.9528 18.9773 34.6667 19.0081 34.3859 18.969C34.1051 18.9299 33.8384 18.8221 33.6096 18.6552C33.3808 18.4882 33.197 18.2674 33.0745 18.0124Z" fill="var(--fill-0, #D1D1D1)"/>
<path id="Vector_25" d="M39.2997 12.8471C39.1415 13.8427 38.9832 14.8381 38.8248 15.8331C38.6945 16.645 38.5639 17.4568 38.4262 18.2667C38.4045 18.3946 38.4565 18.4016 38.5569 18.4012C38.9244 18.4012 39.2935 18.4059 39.659 18.4086C39.6203 18.8725 39.6203 18.8725 39.1613 18.8725C38.8147 18.8725 38.4677 18.8698 38.1211 18.8725C38.0203 18.8725 37.9858 18.8524 38.0145 18.7437C38.0399 18.625 38.0587 18.505 38.0707 18.3842C38.187 18.3703 38.158 18.2682 38.1673 18.2037C38.2917 17.3667 38.4107 16.529 38.5297 15.6909C38.6112 15.1272 38.6906 14.5629 38.7682 13.998C38.8503 13.6911 38.8868 13.3756 38.9279 13.0621C38.95 12.8947 39.0054 12.8065 39.1869 12.8448C39.2243 12.8492 39.2621 12.85 39.2997 12.8471Z" fill="var(--fill-0, #D1D1D1)"/>
<path id="Vector_26" d="M34.6683 12.8424C34.6163 13.1904 34.564 13.5356 34.509 13.899C35.0389 13.7196 35.5712 13.6473 36.1116 13.6307C36.3433 13.6173 36.5758 13.6367 36.8021 13.6883C37.151 13.778 37.3285 14.175 37.1735 14.5001C37.1417 14.5658 37.092 14.5515 37.0436 14.5484C36.8443 14.5368 36.6454 14.5222 36.4466 14.5098C36.4024 14.2867 36.2399 14.192 36.0383 14.1572C35.4735 14.0575 34.909 14.1108 34.3492 14.2168C34.1604 14.2527 33.9759 14.3088 33.7677 14.3617C33.8224 14.0258 33.8964 13.7014 33.9228 13.3728C33.9445 13.0972 34.0662 12.9592 34.3326 12.9213C34.4454 12.9055 34.5563 12.8691 34.6683 12.8424Z" fill="var(--fill-0, #D1D1D1)"/>
<path id="Vector_27" d="M31.0537 13.1948C31.3189 12.7572 31.7128 12.5028 32.2121 12.427C32.6955 12.3532 33.1576 12.4553 33.5895 12.6864C33.5585 12.8886 33.5279 13.0912 33.4942 13.3115C33.2371 13.1614 32.9627 13.043 32.6769 12.959C32.1005 12.7993 31.5577 12.8701 31.0537 13.1948Z" fill="var(--fill-0, #D1D1D1)"/>
<path id="Vector_28" d="M36.0422 18.3573C36.3027 18.2297 36.5516 18.0847 36.7601 17.8443C36.8167 17.997 36.7927 18.1284 36.7822 18.256C36.7741 18.3496 36.7993 18.3797 36.8943 18.3778C37.0881 18.3739 37.2819 18.3816 37.4758 18.3847C37.449 18.5351 37.4719 18.7388 37.382 18.822C37.2804 18.9167 37.0761 18.8479 36.9168 18.8506C36.6663 18.8544 36.4155 18.8482 36.1651 18.8533C36.0666 18.8533 36.0243 18.8262 36.0332 18.7218C36.0414 18.6008 36.0391 18.4798 36.0422 18.3573Z" fill="var(--fill-0, #D1D1D1)"/>
<path id="Vector_29" d="M45.8493 11.4567C45.8511 11.4758 45.8511 11.4949 45.8493 11.5139C45.7675 12.0165 45.6853 12.5191 45.5969 13.0603L45.2961 12.751C45.3446 12.3845 45.4023 12.0184 45.4376 11.6504C45.4535 11.4849 45.5175 11.4289 45.6753 11.4552C45.7332 11.46 45.7913 11.4605 45.8493 11.4567Z" fill="var(--fill-0, #D1D1D1)"/>
<path id="Vector_30" d="M42.4059 13.1535C42.3729 13.1988 42.3528 13.256 42.2915 13.2749C42.271 13.1798 42.3458 13.1733 42.4059 13.1535Z" fill="var(--fill-0, #D1D1D1)"/>
<path id="Vector_31" d="M31.0148 13.226C31.0219 13.206 31.0251 13.1809 31.0573 13.1919C31.0541 13.2165 31.0416 13.2299 31.0148 13.226Z" fill="var(--fill-0, #D1D1D1)"/>
<g id="Vector_32">
</g>
<path id="Vector_33" d="M13.3061 17.4759L13.0134 17.3986C13.1374 16.5455 13.2616 15.6922 13.3859 14.8386C13.4201 15.5492 13.8124 16.0119 14.4195 16.3266C14.6366 16.4387 14.8545 16.5504 15.0642 16.6745C15.2173 16.7654 15.3387 16.8899 15.3375 17.0886C14.8355 17.2161 14.34 17.1377 13.8461 17.0364C13.7015 17.007 13.5247 16.9007 13.4247 16.9513C13.3166 17.0062 13.3662 17.2219 13.3278 17.3619C13.3177 17.3994 13.3135 17.438 13.3061 17.4759Z" fill="var(--fill-0, white)"/>
<path id="Vector_34" d="M11.024 17.0726C10.8988 17.1615 10.7526 17.1886 10.6065 17.1955C10.111 17.223 9.83616 16.8016 10.0211 16.3041C10.3041 16.1838 10.6026 16.1564 10.9061 16.1421C11.1698 16.1293 11.193 16.1618 11.1682 16.4193C11.1469 16.6439 11.0791 16.8549 11.024 17.0726Z" fill="var(--fill-0, white)"/>
<path id="Vector_35" d="M11.0236 17.0731C11.0787 16.857 11.1465 16.6444 11.1678 16.4198C11.1927 16.1623 11.1678 16.1299 10.9058 16.1426C10.6038 16.1569 10.3037 16.1844 10.0207 16.3046C10.1335 15.925 10.4472 15.8001 10.7868 15.7247C11.0314 15.6682 11.2839 15.654 11.5334 15.6826C11.5958 15.6903 11.6885 15.6826 11.6776 15.7916C11.6195 16.3 11.4966 16.7755 11.0236 17.0731Z" fill="var(--fill-0, #D1D1D1)"/>
<path id="Vector_36" d="M22.279 14.1692C22.4915 13.7409 22.8671 13.5306 23.287 13.6037C23.5971 13.6574 23.7859 13.8453 23.8456 14.1569C23.8491 14.1754 23.8499 14.1955 23.8522 14.2141C23.9108 14.6672 23.8987 14.678 23.4366 14.6513C23.3552 14.2469 23.1319 14.0672 22.7256 14.0695C22.5717 14.0737 22.42 14.1076 22.279 14.1692Z" fill="var(--fill-0, #D1D1D1)"/>
<path id="Vector_37" d="M22.279 14.1701C22.4206 14.1089 22.5728 14.0756 22.7272 14.0723C23.1334 14.0699 23.3568 14.2497 23.4382 14.6541C23.0396 14.6564 22.6407 14.6564 22.2422 14.6626C22.1526 14.6626 22.1259 14.6332 22.146 14.5505C22.1712 14.4178 22.216 14.2896 22.279 14.1701Z" fill="var(--fill-0, white)"/>
<path id="Vector_38" d="M44.5296 16.763C43.9094 17.1851 43.3077 16.9489 43.1794 16.2078C43.0693 15.5742 43.1297 14.9526 43.4581 14.3785L43.4934 14.3499L43.488 14.353C43.5232 14.3391 43.5593 14.3259 43.5946 14.3113C44.1238 14.0913 44.5886 14.3163 44.7285 14.8664C44.7991 15.1601 44.8202 15.4634 44.7909 15.764C44.7623 16.1135 44.6409 16.4363 44.5296 16.763Z" fill="var(--fill-0, white)"/>
<path id="Vector_39" d="M44.5304 16.7629C44.6416 16.4363 44.763 16.1135 44.7916 15.764C44.8209 15.4634 44.7998 15.1601 44.7292 14.8664C44.5893 14.3162 44.1245 14.0913 43.5953 14.3112C43.56 14.3259 43.5239 14.3391 43.4887 14.353C43.7298 13.8299 44.2303 13.6931 44.6079 13.7901C44.8207 13.845 44.9669 13.9834 45.0591 14.1794C45.3472 14.7941 45.2468 16.1978 44.5304 16.7629Z" fill="var(--fill-0, #D1D1D1)"/>
<path id="Vector_40" d="M43.4936 14.3503L43.4579 14.3793C43.4646 14.3633 43.465 14.3398 43.4936 14.3503Z" fill="var(--fill-0, #D1D1D1)"/>
<path id="Vector_41" d="M35.341 16.191C35.488 15.8953 35.762 15.7897 36.0575 15.7271C36.3091 15.6692 36.5689 15.6551 36.8254 15.6854C36.8847 15.6935 36.9576 15.6912 36.9495 15.7909C36.9107 16.2869 36.7731 16.7377 36.3474 17.0481C36.2186 17.1467 36.0582 17.1951 35.8962 17.1842C36.0319 16.924 36.0861 16.6429 36.1179 16.3545C36.1365 16.1887 36.0745 16.1311 35.9175 16.145C35.7256 16.1601 35.5333 16.1756 35.341 16.191Z" fill="var(--fill-0, #D1D1D1)"/>
<path id="Vector_42" d="M35.3406 16.191C35.5345 16.1755 35.7252 16.1616 35.9171 16.145C36.0722 16.1311 36.1362 16.1887 36.1175 16.3545C36.0858 16.6433 36.0315 16.9239 35.8958 17.1841C35.4341 17.2228 35.1472 16.8749 35.2565 16.4021C35.2736 16.3286 35.2871 16.2509 35.3406 16.191Z" fill="var(--fill-0, white)"/>
<path id="Vector_43" d="M47.2475 17.6727C47.2006 17.6212 47.2557 17.6089 47.2824 17.5953C47.3687 17.5514 47.4683 17.5409 47.5619 17.566C47.6555 17.5912 47.7364 17.6501 47.7888 17.7313C47.8413 17.8126 47.8616 17.9104 47.8459 18.0058C47.8301 18.1011 47.7793 18.1872 47.7034 18.2474C47.6276 18.3075 47.532 18.3374 47.4353 18.3312C47.3386 18.325 47.2476 18.2832 47.1801 18.2139C47.1125 18.1446 47.0732 18.0527 47.0698 17.9561C47.0663 17.8595 47.099 17.7651 47.1615 17.6912C47.1832 17.6676 47.2084 17.6209 47.2498 17.6723C47.2747 17.8451 47.2134 18.0272 47.2933 18.2255C47.3076 18.1992 47.3205 18.1723 47.332 18.1447C47.3487 18.094 47.3002 18.016 47.3743 17.9931C47.4483 17.9703 47.4821 18.0426 47.5208 18.0933C47.5546 18.1377 47.5662 18.2181 47.6759 18.1857C47.6038 18.079 47.5154 17.9893 47.6321 17.8551C47.686 17.7933 47.6057 17.7148 47.5158 17.7028C47.4259 17.6908 47.3359 17.6819 47.2475 17.6727Z" fill="var(--fill-0, white)"/>
<path id="Vector_44" d="M47.669 22.939C47.5717 22.946 47.5628 22.8837 47.5349 22.8459C47.4961 22.794 47.467 22.7237 47.391 22.7384C47.3151 22.7531 47.3523 22.8331 47.3356 22.8833C47.3302 22.9007 47.3209 22.9166 47.2697 22.9348C47.2697 22.7902 47.2364 22.6344 47.2798 22.5037C47.3162 22.3947 47.4604 22.4581 47.555 22.472C47.6298 22.4832 47.6756 22.5729 47.6298 22.6166C47.5004 22.7403 47.5988 22.8269 47.669 22.939ZM47.5632 22.581C47.5457 22.5122 47.4856 22.5064 47.429 22.5037C47.3631 22.5037 47.3364 22.5424 47.3426 22.6011C47.3503 22.6742 47.4077 22.6703 47.4589 22.6669C47.5101 22.6634 47.5643 22.6572 47.5632 22.581Z" fill="var(--fill-0, white)"/>
<path id="Vector_45" d="M47.5532 17.8204C47.5551 17.8322 47.5541 17.8443 47.5505 17.8557C47.5469 17.867 47.5406 17.8774 47.5323 17.886C47.5239 17.8946 47.5137 17.9011 47.5024 17.9051C47.4911 17.9091 47.4791 17.9104 47.4672 17.9089C47.4156 17.9089 47.3443 17.9406 47.3358 17.8478C47.3329 17.8368 47.3329 17.8252 47.3357 17.8142C47.3384 17.8031 47.3439 17.7929 47.3516 17.7844C47.3592 17.776 47.3689 17.7695 47.3797 17.7657C47.3904 17.7619 47.402 17.7607 47.4133 17.7624C47.4707 17.7613 47.5249 17.7686 47.5532 17.8204Z" fill="var(--fill-0, white)"/>
</g>
</svg>
