<svg preserveAspectRatio="none" width="100%" height="100%" overflow="visible" style="display: block;" viewBox="0 0 77.198 24.9982" fill="none" xmlns="http://www.w3.org/2000/svg">
<g id="Group 2122">
<path id="Vector" d="M54.8182 24.5944C55.0058 24.1415 55.1892 23.7015 55.3725 23.2637C58.2365 16.3926 61.102 9.52077 63.9689 2.64821C64.1657 2.1304 64.4503 1.65035 64.81 1.22912C65.053 0.955856 65.3524 0.738561 65.6875 0.592231C66.0226 0.445902 66.3854 0.374023 66.751 0.381555C68.5173 0.368615 70.2836 0.381555 72.0499 0.381555C72.1384 0.381555 72.1685 0.407435 72.1858 0.493701C72.7264 3.09895 73.2692 5.70348 73.8141 8.30729L75.4316 16.0454C75.9794 18.6708 76.5264 21.2947 77.0728 23.9172C77.1095 24.094 77.1418 24.2731 77.1871 24.4477C77.2173 24.5685 77.1871 24.6116 77.0577 24.6095C76.2425 24.6095 75.4273 24.6095 74.612 24.6095C73.6006 24.6095 72.5891 24.6095 71.5776 24.6095C71.4633 24.6095 71.4137 24.5879 71.39 24.4628C71.1549 23.3263 70.9112 22.194 70.6761 21.0575C70.6546 20.9539 70.6158 20.9324 70.5187 20.9324C67.9307 20.9324 65.3492 20.9324 62.7741 20.9324C62.7356 20.9268 62.6964 20.9365 62.6649 20.9595C62.6335 20.9825 62.6123 21.0169 62.6059 21.0553C62.2163 22.194 61.8238 23.332 61.4284 24.4693C61.3982 24.5556 61.3701 24.6095 61.2558 24.6095C59.1308 24.6095 57.0072 24.6095 54.8851 24.6095L54.8182 24.5944ZM64.4844 16.0001H64.5857H69.5676C69.6668 16.0001 69.6949 15.985 69.6711 15.8772C69.0673 13.0721 68.4656 10.2684 67.866 7.46619C67.8315 7.30228 67.7927 7.13622 67.7452 6.93349L64.4844 16.0001Z" fill="var(--fill-0, white)"/>
<path id="Vector_2" d="M16.2385 16.8385C16.3032 16.681 16.3549 16.5581 16.4046 16.433C18.5008 11.1348 20.5957 5.83519 22.6891 0.534115C22.7023 0.483133 22.7337 0.438756 22.7774 0.409356C22.8211 0.379956 22.8741 0.367565 22.9263 0.374522C24.9967 0.374522 27.0657 0.374522 29.1332 0.374522H29.2949C29.3143 0.439222 29.2777 0.482355 29.2583 0.525488L19.2406 24.4644C19.2288 24.5105 19.2 24.5503 19.1599 24.5759C19.1199 24.6016 19.0716 24.611 19.0249 24.6025C16.9315 24.6025 14.8381 24.6025 12.7447 24.6025C12.6282 24.6025 12.5829 24.5723 12.5528 24.4558C11.3076 19.6249 10.0568 14.7925 8.80016 9.95873C8.38824 8.37574 7.9526 6.79922 7.56871 5.21407C7.45933 4.69737 7.22277 4.21613 6.88045 3.81394C6.53813 3.41174 6.10088 3.10131 5.60831 2.91076C4.00198 2.21074 2.33228 1.66621 0.622104 1.28463C0.451728 1.24581 0.279195 1.20484 0.106662 1.1768C0.0203954 1.1617 -0.0141112 1.13582 0.00529876 1.04093C0.0462753 0.853301 0.0743119 0.654888 0.104505 0.460788C0.104505 0.402559 0.139012 0.370209 0.203712 0.376679C0.228824 0.378885 0.254082 0.378885 0.279195 0.376679H10.5686C10.9837 0.360547 11.3976 0.431244 11.7839 0.584246C12.1701 0.737249 12.5201 0.969188 12.8116 1.26522C13.2449 1.7463 13.5211 2.34826 13.603 2.99055C13.9611 4.93155 14.3342 6.84666 14.7029 8.77472C15.0883 10.8135 15.4757 12.8508 15.8654 14.8867C15.9883 15.5186 16.1091 16.1656 16.2385 16.8385Z" fill="var(--fill-0, white)"/>
<path id="Vector_3" d="M38.4668 18.3606C39.3961 18.8651 40.3841 19.2527 41.4085 19.5145C42.6418 19.8558 43.9222 19.9949 45.1999 19.9264C46.0783 19.9026 46.932 19.6312 47.6629 19.1435C47.9036 18.991 48.1097 18.7898 48.268 18.5528C48.4262 18.3159 48.533 18.0483 48.5816 17.7676C48.6118 17.5579 48.6001 17.3443 48.5472 17.1392C48.4942 16.9341 48.4011 16.7416 48.2732 16.5728C47.972 16.1807 47.6014 15.8474 47.1798 15.5893C46.3926 15.0631 45.545 14.6447 44.719 14.1897C43.7406 13.6832 42.8194 13.0729 41.9714 12.3694C41.0459 11.6132 40.3807 10.5859 40.0692 9.43206C39.8827 8.64182 39.8526 7.82269 39.9808 7.02091C40.3475 4.44586 41.8205 2.67092 44.044 1.4481C45.2745 0.791847 46.6114 0.358163 47.9928 0.167039C50.7379 -0.2197 53.5358 0.0674938 56.145 1.00382C56.2636 1.04911 56.2938 1.09656 56.2658 1.21949C55.9121 2.83267 55.5605 4.44657 55.2112 6.0612C55.1874 6.17119 55.1551 6.16687 55.0667 6.12805C53.4462 5.38987 51.6843 5.01379 49.9036 5.026C49.1009 5.01411 48.3065 5.1891 47.5831 5.53713C47.2461 5.70042 46.951 5.93871 46.7204 6.23373C46.5135 6.48153 46.4002 6.79408 46.4002 7.11688C46.4002 7.43968 46.5135 7.75223 46.7204 8.00003C47.0321 8.37695 47.409 8.69473 47.8332 8.93818C48.6484 9.45578 49.5197 9.87202 50.363 10.34C51.304 10.8311 52.1872 11.4257 52.9963 12.1128C53.9134 12.8859 54.5813 13.9132 54.9157 15.0653C55.1389 15.9445 55.1865 16.8591 55.0559 17.7568C54.911 18.9957 54.444 20.175 53.7015 21.1772C52.8857 22.263 51.8175 23.1336 50.5894 23.7135C49.3417 24.3132 48.0028 24.701 46.6277 24.8608C43.5444 25.2323 40.417 24.8474 37.5158 23.7394C37.3907 23.6941 37.3238 23.6574 37.3605 23.4892C37.7314 21.8027 38.0894 20.114 38.4518 18.4275C38.4539 18.4016 38.4604 18.3865 38.4668 18.3606Z" fill="var(--fill-0, white)"/>
<path id="Vector_4" d="M38.2038 0.383732C38.07 1.01779 37.9385 1.64538 37.8048 2.27297L36.1873 9.90971C35.6424 12.4977 35.0939 15.0857 34.5417 17.6737C34.0644 19.9281 33.5878 22.1818 33.1119 24.4348C33.0838 24.5664 33.0429 24.6095 32.8962 24.6095C30.9222 24.6095 28.9495 24.6095 26.9783 24.6095C26.8295 24.6095 26.808 24.5793 26.8382 24.4327C27.6534 20.624 28.4643 16.8139 29.2709 13.0024C30.0185 9.47694 30.769 5.95439 31.5224 2.43472C31.6583 1.78772 31.7942 1.15797 31.9257 0.517445C31.943 0.433335 31.9645 0.383732 32.0745 0.383732C34.0781 0.383732 36.0816 0.383732 38.0851 0.383732H38.2038Z" fill="var(--fill-0, white)"/>
</g>
</svg>
