<svg preserveAspectRatio="none" width="100%" height="100%" overflow="visible" style="display: block;" viewBox="0 0 25 22.312" fill="none" xmlns="http://www.w3.org/2000/svg">
<g id="Group 2148">
<path id="Vector" d="M9.29668 22.312C10.3236 22.312 11.156 21.4796 11.156 20.4527C11.156 19.4258 10.3236 18.5934 9.29668 18.5934C8.2698 18.5934 7.43735 19.4258 7.43735 20.4527C7.43735 21.4796 8.2698 22.312 9.29668 22.312Z" fill="var(--fill-0, white)"/>
<path id="Vector_2" d="M22.312 22.312C23.3389 22.312 24.1713 21.4796 24.1713 20.4527C24.1713 19.4258 23.3389 18.5934 22.312 18.5934C21.2851 18.5934 20.4527 19.4258 20.4527 20.4527C20.4527 21.4796 21.2851 22.312 22.312 22.312Z" fill="var(--fill-0, white)"/>
<path id="Vector_3" d="M24.6826 3.29916C24.552 3.13941 24.3875 3.01074 24.2009 2.9225C24.0144 2.83425 23.8106 2.78866 23.6042 2.78901H5.92023L5.56405 0.768149C5.52607 0.55289 5.41346 0.357896 5.24599 0.21742C5.07852 0.0769427 4.86691 -3.32157e-05 4.64833 1.27312e-05H0.929666C0.683103 1.27312e-05 0.446639 0.0979596 0.272293 0.272306C0.0979466 0.446652 0 0.683116 0 0.929679C0 1.17624 0.0979466 1.41271 0.272293 1.58705C0.446639 1.7614 0.683103 1.85934 0.929666 1.85934H3.86857L6.52161 16.8955C6.55959 17.1108 6.6722 17.3058 6.83967 17.4463C7.00713 17.5867 7.21874 17.6637 7.43733 17.6637H22.312C22.5585 17.6637 22.795 17.5657 22.9694 17.3914C23.1437 17.217 23.2416 16.9806 23.2416 16.734C23.2416 16.4874 23.1437 16.251 22.9694 16.0766C22.795 15.9023 22.5585 15.8043 22.312 15.8043H8.21708L7.88938 13.945H21.9308C22.2532 13.9446 22.5656 13.8328 22.815 13.6286C23.0645 13.4243 23.2357 13.1402 23.2998 12.8242L24.9731 4.45718C25.0135 4.25469 25.0083 4.04577 24.9581 3.84551C24.9078 3.64525 24.8138 3.45864 24.6826 3.29916Z" fill="var(--fill-0, white)"/>
</g>
</svg>
