<svg preserveAspectRatio="none" width="100%" height="100%" overflow="visible" style="display: block;" viewBox="0 0 1370.04 212.106" fill="none" xmlns="http://www.w3.org/2000/svg">
<path id="Vector" d="M1223.01 101.878H1244.84C1252.72 101.942 1260.57 100.864 1268.13 98.677C1274.77 96.7566 1281.03 93.7043 1286.62 89.655C1291.73 85.7715 1295.91 80.8008 1298.85 75.1035C1301.84 69.2998 1303.36 62.8568 1303.29 56.332C1303.32 50.3282 1302.1 44.3837 1299.73 38.8701C1297.47 33.6744 1294.15 29.013 1289.97 25.1917C1285.73 21.3161 1280.79 18.2795 1275.41 16.2425C1269.34 14.0739 1262.94 12.9903 1256.49 13.0411H1223.44L1223.01 101.878ZM1185.81 0.0175071H1263.26C1275.16 -0.165442 1287.03 1.2291 1298.56 4.1647C1307.56 6.39943 1316.07 10.2716 1323.67 15.5877C1330.06 20.1482 1335.27 26.1575 1338.89 33.1223C1342.28 39.8944 1344.03 47.3739 1343.98 54.9496C1344.01 61.3126 1342.7 67.6102 1340.12 73.4301C1337.4 79.399 1333.54 84.7848 1328.77 89.2913C1323.65 94.1077 1317.83 98.1298 1311.52 101.224C1304.41 104.81 1296.88 107.475 1289.1 109.154L1370.04 212.106H1326.73L1249.36 112.283H1223.01V212.034H1185.81V0.0175071ZM736.264 196.463H776.807C786.307 196.597 795.788 195.596 805.049 193.48C812.095 191.93 818.802 189.12 824.848 185.186C829.767 181.989 833.778 177.578 836.494 172.381C839.019 167.217 840.315 161.539 840.279 155.792C840.311 149.401 839.151 143.059 836.858 137.093C834.561 131.247 830.772 126.104 825.867 122.178C819.929 117.534 813.124 114.121 805.85 112.137C796 109.521 785.832 108.297 775.643 108.499H736.264V196.463ZM736.264 95.4029H783.868C790.64 95.509 797.382 94.476 803.812 92.3471C809.175 90.557 814.124 87.7121 818.37 83.9799C822.264 80.4216 825.364 76.0832 827.469 71.2473C829.542 66.168 830.582 60.7263 830.526 55.2406C830.623 49.3861 829.378 43.587 826.886 38.2881C824.217 33.0443 820.26 28.5634 815.386 25.2645C809.384 21.2963 802.694 18.4833 795.66 16.9701C786.099 14.8821 776.329 13.9055 766.544 14.0598H736.264V95.4029ZM699.068 0.0175071H788.599C799.561 -0.0929831 810.492 1.17818 821.136 3.80091C830.132 5.98857 838.712 9.62552 846.539 14.5691C853.127 18.7367 858.718 24.3005 862.917 30.8668C866.845 37.2523 868.888 44.6166 868.813 52.112C868.88 57.344 868.219 62.5598 866.847 67.6095C865.566 72.2456 863.363 76.576 860.369 80.3421C856.83 84.635 852.658 88.3642 847.995 91.4012C841.853 95.441 835.375 98.9462 828.633 101.878V102.533C836.156 103.569 843.503 105.625 850.47 108.645C856.56 111.338 862.128 115.082 866.92 119.704C871.419 124.158 875.004 129.447 877.475 135.274C879.99 141.437 881.229 148.046 881.114 154.7C881.158 162.528 879.283 170.246 875.655 177.183C871.805 184.34 866.44 190.573 859.933 195.445C852.552 200.935 844.243 205.051 835.403 207.595C824.988 210.685 814.165 212.182 803.302 212.034H699.068V0.0175071ZM524.01 101.878H545.847C553.725 101.942 561.571 100.864 569.139 98.677C575.782 96.7718 582.039 93.7183 587.628 89.655C592.75 85.7689 596.951 80.8001 599.929 75.1035C602.89 69.2944 604.39 62.8511 604.297 56.332C604.36 50.3244 603.145 44.3719 600.73 38.8701C598.48 33.6926 595.184 29.0357 591.049 25.1917C586.704 21.2677 581.636 18.228 576.127 16.2425C570.057 14.068 563.65 12.9842 557.202 13.0411H524.228L524.01 101.878ZM486.742 0.0175071H563.826C575.726 -0.174926 587.598 1.21976 599.129 4.1647C608.152 6.40046 616.688 10.2722 624.314 15.5877C630.68 20.1705 635.889 26.1744 639.527 33.1223C642.924 39.8944 644.67 47.3739 644.622 54.9496C644.663 61.3213 643.322 67.6262 640.691 73.4301C637.997 79.277 634.218 84.5603 629.555 89.0002C624.446 93.8332 618.629 97.8571 612.303 100.932C605.377 104.442 598.042 107.082 590.467 108.79L671.335 211.743H628.099L550.287 112.283H524.01V212.034H486.742V0.0175071ZM37.2681 196.463H77.739C87.2137 196.586 96.6696 195.585 105.908 193.48C112.949 191.916 119.654 189.107 125.707 185.186C130.623 182.007 134.615 177.591 137.281 172.381C139.836 167.228 141.134 161.543 141.066 155.792C141.086 149.408 139.952 143.073 137.717 137.093C135.418 131.228 131.6 126.081 126.653 122.178C120.742 117.534 113.961 114.12 106.709 112.137C96.8356 109.514 86.6428 108.29 76.4287 108.499H37.1225L37.2681 196.463ZM37.2681 95.4029H84.7995C91.5723 95.5146 98.3154 94.4814 104.744 92.3471C110.114 90.5734 115.067 87.7267 119.302 83.9799C123.24 80.4616 126.348 76.1127 128.4 71.2473C130.532 66.1831 131.597 60.7344 131.53 55.2406C131.593 49.3896 130.349 43.5983 127.891 38.2881C125.221 33.0443 121.264 28.5634 116.39 25.2645C110.362 21.2971 103.648 18.4845 96.5914 16.9701C87.0316 14.8762 77.2609 13.8996 67.4757 14.0598H37.2681V95.4029ZM0 0.0175071H89.6036C100.541 -0.0884134 111.448 1.18272 122.068 3.80091C131.091 5.97613 139.697 9.61364 147.544 14.5691C154.215 18.7057 159.884 24.2724 164.14 30.8668C168.067 37.2523 170.111 44.6166 170.036 52.112C170.089 57.3385 169.453 62.5493 168.143 67.6095C166.804 72.1487 164.577 76.3775 161.592 80.051C158.007 84.3267 153.814 88.0529 149.145 91.1102C142.96 95.2468 136.434 98.8492 129.638 101.878V102.533C137.162 103.562 144.51 105.618 151.474 108.645C157.575 111.319 163.146 115.065 167.925 119.704C172.412 124.14 175.996 129.403 178.479 135.201C180.961 141.374 182.198 147.976 182.119 154.628C182.137 162.461 180.238 170.179 176.587 177.11C172.741 184.249 167.403 190.477 160.937 195.372C153.557 200.862 145.248 204.978 136.407 207.523C125.968 210.613 115.121 212.109 104.234 211.961H0V0.0175071Z" fill="var(--fill-0, #231F20)"/>
</svg>
