<svg width="21" height="21" viewBox="-1 0 23 21" fill="none" xmlns="http://www.w3.org/2000/svg">
<path d="M7.76671 16.0335C5.59602 16.0335 3.75909 15.2815 2.25593 13.7776C0.752774 12.2736 0.000797218 10.4367 6.32211e-07 8.26677C-0.000795954 6.09687 0.751181 4.25995 2.25593 2.75599C3.76068 1.25204 5.59761 0.500061 7.76671 0.500061C9.93582 0.500061 11.7731 1.25204 13.2787 2.75599C14.7842 4.25995 15.5358 6.09687 15.5334 8.26677C15.5334 9.14302 15.394 9.96948 15.1152 10.7461C14.8364 11.5228 14.458 12.2099 13.9801 12.8073L20.6714 19.4986C20.8905 19.7177 21 19.9965 21 20.3351C21 20.6736 20.8905 20.9524 20.6714 21.1715C20.4523 21.3905 20.1735 21.5001 19.835 21.5001C19.4964 21.5001 19.2176 21.3905 18.9986 21.1715L12.3073 14.4801C11.7098 14.9581 11.0228 15.3365 10.2461 15.6153C9.46942 15.8941 8.64296 16.0335 7.76671 16.0335ZM7.76671 13.6437C9.26031 13.6437 10.5301 13.1212 11.576 12.076C12.6219 11.0309 13.1445 9.76117 13.1437 8.26677C13.1429 6.77238 12.6203 5.50302 11.576 4.4587C10.5317 3.41437 9.26191 2.89141 7.76671 2.88982C6.27152 2.88823 5.00216 3.41118 3.95864 4.4587C2.91511 5.50621 2.39215 6.77557 2.38976 8.26677C2.38737 9.75798 2.91033 11.0277 3.95864 12.076C5.00694 13.1244 6.2763 13.6469 7.76671 13.6437Z" fill="white"/>
</svg>
