<svg preserveAspectRatio="none" width="100%" height="100%" overflow="visible" style="display: block;" viewBox="0 0 40 40" fill="none" xmlns="http://www.w3.org/2000/svg">
<g id="Link">
<rect x="0.5" y="0.5" width="39" height="39" rx="19.5" stroke="var(--stroke-0, white)"/>
<path id="Vector" fill-rule="evenodd" clip-rule="evenodd" d="M26.9044 27.5736V27.5716L26.9224 27.5286L29.9214 12.4086V12.3606C29.9214 11.9836 29.7814 11.6546 29.4794 11.4576C29.2144 11.2846 28.9094 11.2726 28.6954 11.2886C28.4962 11.3068 28.2997 11.347 28.1094 11.4086C28.0282 11.4345 27.9481 11.4639 27.8694 11.4966L27.8564 11.5016L11.1364 18.0606L11.1314 18.0626C11.0801 18.0789 11.0303 18.0993 10.9824 18.1236C10.8635 18.1772 10.7494 18.2407 10.6414 18.3136C10.4264 18.4616 10.0174 18.8096 10.0864 19.3616C10.1434 19.8196 10.4584 20.1096 10.6714 20.2606C10.7968 20.3492 10.932 20.423 11.0744 20.4806L11.1064 20.4946L11.1164 20.4976L11.1234 20.5006L14.0494 21.4856C14.0387 21.6696 14.0577 21.8546 14.1064 22.0406L15.5714 27.5996C15.6514 27.9026 15.8243 28.173 16.0659 28.3727C16.3074 28.5724 16.6055 28.6914 16.9181 28.713C17.2308 28.7346 17.5424 28.6578 17.8091 28.4932C18.0759 28.3287 18.2844 28.0847 18.4054 27.7956L20.6934 25.3496L24.6224 28.3616L24.6784 28.3856C25.0354 28.5416 25.3684 28.5906 25.6734 28.5496C25.9784 28.5076 26.2204 28.3796 26.4024 28.2346C26.6129 28.064 26.7807 27.8465 26.8924 27.5996L26.9004 27.5826L26.9034 27.5766L26.9044 27.5736ZM15.5564 21.6586C15.5401 21.5969 15.544 21.5317 15.5674 21.4723C15.5908 21.413 15.6324 21.3627 15.6864 21.3286L25.6074 15.0286C25.6074 15.0286 26.1914 14.6736 26.1704 15.0286C26.1704 15.0286 26.2744 15.0906 25.9614 15.3816C25.6654 15.6586 18.8904 22.1996 18.2044 22.8616C18.1671 22.8993 18.1406 22.9463 18.1274 22.9976L17.0214 27.2176L15.5564 21.6586Z" fill="var(--fill-0, white)"/>
</g>
</svg>
