<svg preserveAspectRatio="none" width="100%" height="100%" overflow="visible" style="display: block;" viewBox="0 0 10.5455 46.1364" fill="none" xmlns="http://www.w3.org/2000/svg">
<g id="top" opacity="0.8">
<path d="M5.27273 35.5909C8.18445 35.5909 10.5449 37.952 10.5455 40.8636C10.5449 43.7752 8.18445 46.1364 5.27273 46.1364C2.361 46.1364 0.000521951 43.7752 0 40.8636C0.000521962 37.952 2.361 35.5909 5.27273 35.5909Z" fill="url(#paint0_linear_0_404)"/>
<path d="M5.27273 0C7.45676 -2.04735e-09 9.22727 1.77051 9.22727 3.95455V25.0455C9.22727 27.2295 7.45676 29 5.27273 29C3.08869 29 1.31818 27.2295 1.31818 25.0455V3.95455C1.31818 1.77051 3.08869 9.54672e-08 5.27273 0Z" fill="url(#paint1_linear_0_404)"/>
</g>
<defs>
<linearGradient id="paint0_linear_0_404" x1="5.27271" y1="16.7769" x2="5.27271" y2="46.1364" gradientUnits="userSpaceOnUse">
<stop stop-color="white"/>
<stop offset="1" stop-color="white" stop-opacity="0.3"/>
</linearGradient>
<linearGradient id="paint1_linear_0_404" x1="5.27271" y1="16.7769" x2="5.27271" y2="46.1364" gradientUnits="userSpaceOnUse">
<stop stop-color="white"/>
<stop offset="1" stop-color="white" stop-opacity="0.3"/>
</linearGradient>
</defs>
</svg>
