<svg preserveAspectRatio="none" width="100%" height="100%" overflow="visible" style="display: block;" viewBox="0 0 20 28" fill="none" xmlns="http://www.w3.org/2000/svg">
<path id="Vector" fill-rule="evenodd" clip-rule="evenodd" d="M15.3207 0.750833C15.23 0.890428 15.146 1.03429 15.0689 1.18194L14.6475 1.9482L10.9589 3.77512L10.7397 3.88422C8.6181 4.98169 7.12283 7.04257 6.67398 9.44781C6.66094 9.51353 6.64919 9.58319 6.62962 9.69753L6.62832 9.70673L6.58917 9.93411C6.23862 11.901 5.28225 13.7069 3.85567 15.0955L2.80663 16.1338C2.14903 16.7858 1.61929 17.3115 1.22264 17.7636C0.81816 18.2236 0.491967 18.6758 0.296251 19.1936C0.0384907 19.8778 -0.0530129 20.6142 0.0293822 21.3413C0.111777 22.0684 0.365679 22.7651 0.769884 23.3732C1.07781 23.8332 1.49795 24.196 1.99507 24.5482C2.48175 24.8926 3.11587 25.2777 3.90003 25.7535L4.83034 26.3187C5.61451 26.7944 6.24863 27.1782 6.77706 27.449C7.31463 27.725 7.82871 27.9313 8.37541 27.9826C9.09272 28.0482 9.81476 27.9275 10.4726 27.6321C11.1305 27.3367 11.7022 26.8763 12.1332 26.295C12.4646 25.8547 12.672 25.3329 12.8482 24.7388C13.0217 24.1539 13.1887 23.4113 13.3962 22.4847L13.7289 21.0114L13.7798 20.7866C14.232 18.8462 15.2809 17.0993 16.7768 15.7947L16.7847 15.7882L16.9686 15.6226C18.7405 13.9967 19.6774 11.6086 19.5234 9.16391L19.5038 8.91156L19.162 4.61762L19.6252 3.77381C19.7008 3.63843 19.7817 3.48991 19.8418 3.35585C19.9109 3.20339 19.9866 2.99572 19.9983 2.74206C20.0135 2.40389 19.9247 2.06926 19.7439 1.7839C19.6266 1.60692 19.4774 1.45358 19.3042 1.33177C19.1762 1.24129 19.0443 1.15665 18.9088 1.0781L17.8455 0.432763C17.7051 0.344935 17.5615 0.26251 17.4149 0.185667C17.2162 0.0830657 16.9994 0.0209811 16.7768 0.00297437C16.4249 -0.0183806 16.0757 0.075692 15.7813 0.271099C15.5975 0.398825 15.4405 0.561854 15.3194 0.750833M15.3064 3.81718L17.227 4.983L17.5506 9.05877C17.5571 9.14288 17.5623 9.19414 17.5636 9.23489L16.1871 9.69622C15.7835 9.83214 15.3524 9.86389 14.9335 9.78858C14.5145 9.71326 14.121 9.53328 13.7889 9.26512C13.1169 8.72268 12.3044 8.38582 11.4481 8.2945C10.5917 8.20318 9.72724 8.36122 8.95734 8.74989L8.87905 8.78933C9.40202 7.35858 10.4612 6.19155 11.8291 5.53897L15.3064 3.81718Z" fill="var(--fill-0, white)"/>
</svg>
