<svg width="129" height="129" viewBox="0 0 129 129" fill="none" xmlns="http://www.w3.org/2000/svg">
<g clip-path="url(#clip0_25_1067)">
<path d="M64.5 0C47.3974 0 30.9802 6.79971 18.8965 18.8914C6.80044 30.988 0.00346132 47.3932 0 64.5C0 81.5996 6.80273 98.0168 18.8965 110.109C30.9802 122.2 47.3974 129 64.5 129C81.6026 129 98.0198 122.2 110.104 110.109C122.197 98.0168 129 81.5996 129 64.5C129 47.4004 122.197 30.9832 110.104 18.8914C98.0198 6.79971 81.6026 0 64.5 0Z" fill="url(#paint0_linear_25_1067)"/>
<path d="M29.1963 63.8187C48.0021 55.6272 60.5393 50.2267 66.8078 47.6171C84.7268 40.1664 88.4456 38.8723 90.8744 38.8285C91.4085 38.8199 92.5978 38.952 93.3738 39.5793C94.0188 40.1084 94.2002 40.824 94.2909 41.3264C94.3715 41.8283 94.4824 42.9721 94.3917 43.8651C93.4242 54.0641 89.2216 78.814 87.085 90.2375C86.1881 95.071 84.4043 96.6916 82.6809 96.8498C78.9318 97.1945 76.0898 94.3746 72.4617 91.9972C66.7877 88.2753 63.5828 85.9594 58.0701 82.3282C51.7007 78.1317 55.8328 75.8248 59.4609 72.0556C60.4082 71.0689 76.9162 56.0576 77.2286 54.696C77.2689 54.5257 77.3093 53.8908 76.9263 53.5562C76.5534 53.2206 75.9991 53.3355 75.596 53.4262C75.0215 53.5552 65.9613 59.5496 48.385 71.4086C45.8151 73.1763 43.4871 74.0379 41.3908 73.9926C39.093 73.9432 34.6586 72.6905 31.3631 71.6202C27.3318 70.307 24.1169 69.6126 24.3991 67.3824C24.5402 66.2214 26.1426 65.0331 29.1963 63.8187Z" fill="white"/>
</g>
<defs>
<linearGradient id="paint0_linear_25_1067" x1="6450" y1="0" x2="6450" y2="12900" gradientUnits="userSpaceOnUse">
<stop stop-color="#2AABEE"/>
<stop offset="1" stop-color="#229ED9"/>
</linearGradient>
<clipPath id="clip0_25_1067">
<rect width="129" height="129" fill="white"/>
</clipPath>
</defs>
</svg>
