<svg width="126" height="126" viewBox="0 0 126 126" fill="none" xmlns="http://www.w3.org/2000/svg">
<g clip-path="url(#clip0_25_1070)">
<path d="M126 63C126 28.2063 97.7937 0 63 0C28.2063 0 0 28.2063 0 63C0 94.4449 23.0383 120.509 53.1562 125.235V81.2109H37.1602V63H53.1562V49.1203C53.1562 33.3309 62.562 24.6094 76.9525 24.6094C83.8451 24.6094 91.0547 25.8398 91.0547 25.8398V41.3438H83.1108C75.2845 41.3438 72.8438 46.2002 72.8438 51.1826V63H90.3164L87.5232 81.2109H72.8438V125.235C102.962 120.509 126 94.4454 126 63Z" fill="#1877F2"/>
<path d="M87.5232 81.2109L90.3164 63H72.8438V51.1826C72.8438 46.1997 75.2845 41.3438 83.1108 41.3438H91.0547V25.8398C91.0547 25.8398 83.8451 24.6094 76.952 24.6094C62.562 24.6094 53.1562 33.3309 53.1562 49.1203V63H37.1602V81.2109H53.1562V125.235C56.4127 125.745 59.7039 126.001 63 126C66.2961 126.001 69.5873 125.745 72.8438 125.235V81.2109H87.5232Z" fill="white"/>
</g>
<defs>
<clipPath id="clip0_25_1070">
<rect width="126" height="126" fill="white"/>
</clipPath>
</defs>
</svg>
