<svg width="119" height="119" viewBox="0 0 119 119" fill="none" xmlns="http://www.w3.org/2000/svg">
<g clip-path="url(#clip0_25_1055)">
<path d="M91.1094 0H27.8906C12.4871 0 0 12.4871 0 27.8906V91.1094C0 106.513 12.4871 119 27.8906 119H91.1094C106.513 119 119 106.513 119 91.1094V27.8906C119 12.4871 106.513 0 91.1094 0Z" fill="url(#paint0_radial_25_1055)"/>
<path d="M91.1094 0H27.8906C12.4871 0 0 12.4871 0 27.8906V91.1094C0 106.513 12.4871 119 27.8906 119H91.1094C106.513 119 119 106.513 119 91.1094V27.8906C119 12.4871 106.513 0 91.1094 0Z" fill="url(#paint1_radial_25_1055)"/>
<path d="M59.5042 13.0156C46.88 13.0156 45.2953 13.0709 40.3373 13.2964C35.3886 13.5232 32.0105 14.3065 29.0551 15.4561C25.9973 16.6433 23.404 18.2316 20.8204 20.8162C18.2344 23.4002 16.6461 25.9936 15.4551 29.0499C14.3023 32.0064 13.5181 35.3858 13.2955 40.3322C13.0737 45.2907 13.0156 46.8758 13.0156 59.5005C13.0156 72.1252 13.0714 73.7047 13.2964 78.6627C13.5242 83.6114 14.3074 86.9895 15.4561 89.9449C16.6442 93.0027 18.2326 95.596 20.8171 98.1797C23.4002 100.766 25.9936 102.358 29.049 103.545C32.0068 104.694 35.3853 105.478 40.3331 105.705C45.2916 105.93 46.8748 105.985 59.4986 105.985C72.1242 105.985 73.7038 105.93 78.6618 105.705C83.6105 105.478 86.9923 104.694 89.9501 103.545C93.0064 102.358 95.596 100.766 98.1787 98.1797C100.765 95.596 102.353 93.0027 103.544 89.9463C104.687 86.9895 105.471 83.6105 105.704 78.6636C105.926 73.7056 105.984 72.1252 105.984 59.5005C105.984 46.8758 105.926 45.2916 105.704 40.3331C105.471 35.3844 104.687 32.0068 103.544 29.0513C102.353 25.9936 100.765 23.4002 98.1787 20.8162C95.5933 18.2307 93.0073 16.6423 89.9473 15.4565C86.9839 14.3065 83.604 13.5228 78.6553 13.2964C73.6968 13.0709 72.1182 13.0156 59.4898 13.0156H59.5042ZM55.3341 21.3926C56.572 21.3907 57.953 21.3926 59.5042 21.3926C71.916 21.3926 73.3867 21.4372 78.2881 21.6599C82.8203 21.8672 85.2802 22.6244 86.9188 23.2608C89.0882 24.1031 90.6348 25.1104 92.2608 26.7378C93.8877 28.3648 94.8946 29.9141 95.7392 32.0835C96.3756 33.7198 97.1338 36.1797 97.3401 40.7119C97.5628 45.6123 97.6111 47.084 97.6111 59.4898C97.6111 71.8955 97.5628 73.3677 97.3401 78.2676C97.1328 82.7998 96.3756 85.2598 95.7392 86.8965C94.8969 89.0659 93.8877 90.6106 92.2608 92.2366C90.6338 93.8636 89.0892 94.8704 86.9188 95.7132C85.2821 96.3524 82.8203 97.1077 78.2881 97.315C73.3877 97.5377 71.916 97.586 59.5042 97.586C47.0919 97.586 45.6207 97.5377 40.7208 97.315C36.1885 97.1059 33.7286 96.3486 32.0886 95.7123C29.9197 94.8695 28.3699 93.8626 26.7429 92.2357C25.116 90.6087 24.1091 89.0631 23.2645 86.8928C22.6281 85.2561 21.87 82.7961 21.6636 78.2639C21.4409 73.3635 21.3963 71.8918 21.3963 59.4782C21.3963 47.0645 21.4409 45.6007 21.6636 40.7003C21.8709 36.1681 22.6281 33.7081 23.2645 32.0696C24.1073 29.9001 25.116 28.3508 26.7434 26.7239C28.3708 25.0969 29.9197 24.0896 32.0891 23.2454C33.7277 22.6063 36.1885 21.8509 40.7208 21.6427C45.009 21.4488 46.6708 21.3907 55.3341 21.381V21.3926ZM84.3175 29.1108C81.238 29.1108 78.7394 31.6071 78.7394 34.6871C78.7394 37.7667 81.238 40.2652 84.3175 40.2652C87.3971 40.2652 89.8957 37.7667 89.8957 34.6871C89.8957 31.6075 87.3971 29.109 84.3175 29.109V29.1108ZM59.5042 35.6284C46.3212 35.6284 35.6326 46.317 35.6326 59.5005C35.6326 72.6839 46.3212 83.3674 59.5042 83.3674C72.6876 83.3674 83.3725 72.6839 83.3725 59.5005C83.3725 46.3175 72.6867 35.6284 59.5033 35.6284H59.5042ZM59.5042 44.0054C68.0615 44.0054 74.9993 50.9422 74.9993 59.5005C74.9993 68.0578 68.0615 74.9956 59.5042 74.9956C50.9469 74.9956 44.0095 68.0578 44.0095 59.5005C44.0095 50.9422 50.9464 44.0054 59.5042 44.0054Z" fill="white"/>
</g>
<defs>
<radialGradient id="paint0_radial_25_1055" cx="0" cy="0" r="1" gradientUnits="userSpaceOnUse" gradientTransform="translate(31.6094 128.165) rotate(-90) scale(117.938 109.692)">
<stop stop-color="#FFDD55"/>
<stop offset="0.1" stop-color="#FFDD55"/>
<stop offset="0.5" stop-color="#FF543E"/>
<stop offset="1" stop-color="#C837AB"/>
</radialGradient>
<radialGradient id="paint1_radial_25_1055" cx="0" cy="0" r="1" gradientUnits="userSpaceOnUse" gradientTransform="translate(-19.933 8.57218) rotate(78.681) scale(52.7189 217.309)">
<stop stop-color="#3771C8"/>
<stop offset="0.128" stop-color="#3771C8"/>
<stop offset="1" stop-color="#6600FF" stop-opacity="0"/>
</radialGradient>
<clipPath id="clip0_25_1055">
<rect width="119" height="119" fill="white"/>
</clipPath>
</defs>
</svg>
