<svg width="19" height="21" viewBox="0 0 19 21" fill="none" xmlns="http://www.w3.org/2000/svg">
<path d="M0 18.6V7.8C0 7.42 0.0843123 7.06 0.252937 6.72C0.421562 6.38 0.653917 6.1 0.95 5.88L8.075 0.48C8.49062 0.16 8.96562 0 9.5 0C10.0344 0 10.5094 0.16 10.925 0.48L18.05 5.88C18.3469 6.1 18.5796 6.38 18.7482 6.72C18.9169 7.06 19.0008 7.42 19 7.8V18.6C19 19.26 18.7672 19.8252 18.3017 20.2956C17.8362 20.766 17.2773 21.0008 16.625 21H13.0625C12.726 21 12.4442 20.8848 12.217 20.6544C11.9898 20.424 11.8758 20.1392 11.875 19.8V13.8C11.875 13.46 11.761 13.1752 11.533 12.9456C11.305 12.716 11.0232 12.6008 10.6875 12.6H8.3125C7.97604 12.6 7.69421 12.7152 7.467 12.9456C7.23979 13.176 7.12579 13.4608 7.125 13.8V19.8C7.125 20.14 7.011 20.4252 6.783 20.6556C6.555 20.886 6.27317 21.0008 5.9375 21H2.375C1.72187 21 1.16296 20.7652 0.69825 20.2956C0.233541 19.826 0.000791667 19.2608 0 18.6Z" fill="white"/>
</svg>
