<svg width="22" height="19" viewBox="0 0 22 19" fill="none" xmlns="http://www.w3.org/2000/svg">
<path d="M6.11137 0C6.78744 0 7.33364 0.530673 7.33364 1.18752V2.37504H12.2227C12.8988 2.37504 13.445 2.90572 13.445 3.56256C13.445 4.21941 12.8988 4.75008 12.2227 4.75008H11.8561L11.5352 5.60733C10.9088 7.2847 9.96535 8.81734 8.77745 10.1347C9.31984 10.4613 9.88514 10.7508 10.4734 11.0068L12.3984 11.8381L14.7742 6.6427C14.969 6.21222 15.4083 5.9376 15.8896 5.9376C16.3708 5.9376 16.8101 6.21222 17.0049 6.6427L21.894 17.3304C22.169 17.9316 21.8902 18.6329 21.2752 18.8964C20.6602 19.1599 19.9345 18.8927 19.6633 18.2952L18.8994 16.6253H12.8835L12.1196 18.2952C11.8446 18.8964 11.1227 19.1636 10.5077 18.8964C9.89278 18.6292 9.61395 17.9279 9.88896 17.3304L11.4092 14.009L9.48408 13.1778C8.60557 12.7992 7.76526 12.3465 6.97078 11.827C6.1572 12.4653 5.26724 13.0219 4.31615 13.4858L2.99075 14.1241C2.38725 14.4172 1.65389 14.1797 1.35214 13.5934C1.05039 13.0071 1.29485 12.2946 1.89834 12.0014L3.21611 11.3594C3.8387 11.0551 4.43074 10.7025 4.98841 10.3092C4.4613 9.83787 3.96475 9.32946 3.50258 8.79137L3.1168 8.33862C2.68518 7.83393 2.75394 7.08431 3.2734 6.66496C3.79287 6.24562 4.56443 6.31242 4.99604 6.81711L5.38564 7.26985C5.8249 7.78568 6.30617 8.2644 6.81418 8.70601C7.86457 7.57787 8.69342 6.25304 9.23963 4.79462L9.25872 4.75008H1.22609C0.546204 4.75008 0 4.21941 0 3.56256C0 2.90572 0.546204 2.37504 1.22227 2.37504H4.8891V1.18752C4.8891 0.530673 5.4353 0 6.11137 0ZM15.8896 10.0494L13.9683 14.2503H17.8108L15.8896 10.0494Z" fill="#151E21"/>
</svg>
