<svg width="20" height="20" viewBox="0 0 20 20" fill="none" xmlns="http://www.w3.org/2000/svg">
<path d="M11.1111 20C10.7963 20 10.5326 19.8933 10.32 19.68C10.1074 19.4667 10.0007 19.203 10 18.8889C9.99926 18.5748 10.1059 18.3111 10.32 18.0978C10.5341 17.8844 10.7978 17.7778 11.1111 17.7778H17.7778V2.22222H11.1111C10.7963 2.22222 10.5326 2.11556 10.32 1.90222C10.1074 1.68889 10.0007 1.42519 10 1.11111C9.99926 0.797037 10.1059 0.533333 10.32 0.32C10.5341 0.106667 10.7978 0 11.1111 0H17.7778C18.3889 0 18.9122 0.217778 19.3478 0.653333C19.7833 1.08889 20.0007 1.61185 20 2.22222V17.7778C20 18.3889 19.7826 18.9122 19.3478 19.3478C18.913 19.7833 18.3896 20.0007 17.7778 20H11.1111ZM9.08333 11.1111H1.11111C0.7963 11.1111 0.532596 11.0044 0.320004 10.7911C0.107411 10.5778 0.000744572 10.3141 3.83141e-06 10C-0.000736909 9.68593 0.10593 9.42222 0.320004 9.20889C0.534078 8.99555 0.797781 8.88889 1.11111 8.88889H9.08333L7 6.80556C6.7963 6.60185 6.69445 6.35185 6.69445 6.05555C6.69445 5.75926 6.7963 5.5 7 5.27778C7.20371 5.05556 7.46296 4.93963 7.77778 4.93C8.09259 4.92037 8.36111 5.02704 8.58333 5.25L12.5556 9.22222C12.7778 9.44444 12.8889 9.7037 12.8889 10C12.8889 10.2963 12.7778 10.5556 12.5556 10.7778L8.58333 14.75C8.36111 14.9722 8.09741 15.0789 7.79222 15.07C7.48704 15.0611 7.22296 14.9452 7 14.7222C6.7963 14.5 6.69926 14.2363 6.70889 13.9311C6.71852 13.6259 6.82482 13.3711 7.02778 13.1667L9.08333 11.1111Z" fill="#151E21"/>
</svg>
