<svg preserveAspectRatio="none" width="100%" height="100%" overflow="visible" style="display: block;" viewBox="0 0 55 63" fill="none" xmlns="http://www.w3.org/2000/svg">
<g id="Group 9280">
<path id="Vector" d="M7.66667 0H15.3333C16.7469 0 17.8889 1.04271 17.8889 2.33333C17.8889 3.62396 16.7469 4.66667 15.3333 4.66667H7.66667C6.25313 4.66667 5.11111 3.62396 5.11111 2.33333C5.11111 1.04271 6.25313 0 7.66667 0ZM0 12.8333C0 10.2594 2.29201 8.16667 5.11111 8.16667H17.8889C20.708 8.16667 23 10.2594 23 12.8333C23 14.5906 21.9378 16.1219 20.3646 16.9167C21.9378 17.7115 23 19.2427 23 21C23 22.7573 21.9378 24.2885 20.3646 25.0833C21.9378 25.8781 23 27.4094 23 29.1667C23 30.924 21.9378 32.4552 20.3646 33.25C21.9378 34.0448 23 35.576 23 37.3333C23 39.9073 20.708 42 17.8889 42H5.11111C2.29201 42 0 39.9073 0 37.3333C0 35.576 1.06215 34.0448 2.63542 33.25C1.06215 32.4552 0 30.924 0 29.1667C0 27.4094 1.06215 25.8781 2.63542 25.0833C1.06215 24.2885 0 22.7573 0 21C0 19.2427 1.06215 17.7115 2.63542 16.9167C1.06215 16.1219 0 14.5906 0 12.8333Z" fill="url(#paint0_linear_129_524)"/>
<path id="Vector_2" d="M39.6667 5H47.3333C48.7469 5 49.8889 6.04271 49.8889 7.33333C49.8889 8.62396 48.7469 9.66667 47.3333 9.66667H39.6667C38.2531 9.66667 37.1111 8.62396 37.1111 7.33333C37.1111 6.04271 38.2531 5 39.6667 5ZM32 17.8333C32 15.2594 34.292 13.1667 37.1111 13.1667H49.8889C52.708 13.1667 55 15.2594 55 17.8333C55 19.5906 53.9378 21.1219 52.3646 21.9167C53.9378 22.7115 55 24.2427 55 26C55 27.7573 53.9378 29.2885 52.3646 30.0833C53.9378 30.8781 55 32.4094 55 34.1667C55 35.924 53.9378 37.4552 52.3646 38.25C53.9378 39.0448 55 40.576 55 42.3333C55 44.9073 52.708 47 49.8889 47H37.1111C34.292 47 32 44.9073 32 42.3333C32 40.576 33.0622 39.0448 34.6354 38.25C33.0622 37.4552 32 35.924 32 34.1667C32 32.4094 33.0622 30.8781 34.6354 30.0833C33.0622 29.2885 32 27.7573 32 26C32 24.2427 33.0622 22.7115 34.6354 21.9167C33.0622 21.1219 32 19.5906 32 17.8333Z" fill="url(#paint1_linear_129_524)"/>
<path id="Vector_3" d="M22.6667 21H30.3333C31.7469 21 32.8889 22.0427 32.8889 23.3333C32.8889 24.624 31.7469 25.6667 30.3333 25.6667H22.6667C21.2531 25.6667 20.1111 24.624 20.1111 23.3333C20.1111 22.0427 21.2531 21 22.6667 21ZM15 33.8333C15 31.2594 17.292 29.1667 20.1111 29.1667H32.8889C35.708 29.1667 38 31.2594 38 33.8333C38 35.5906 36.9378 37.1219 35.3646 37.9167C36.9378 38.7115 38 40.2427 38 42C38 43.7573 36.9378 45.2885 35.3646 46.0833C36.9378 46.8781 38 48.4094 38 50.1667C38 51.924 36.9378 53.4552 35.3646 54.25C36.9378 55.0448 38 56.576 38 58.3333C38 60.9073 35.708 63 32.8889 63H20.1111C17.292 63 15 60.9073 15 58.3333C15 56.576 16.0622 55.0448 17.6354 54.25C16.0622 53.4552 15 51.924 15 50.1667C15 48.4094 16.0622 46.8781 17.6354 46.0833C16.0622 45.2885 15 43.7573 15 42C15 40.2427 16.0622 38.7115 17.6354 37.9167C16.0622 37.1219 15 35.5906 15 33.8333Z" fill="url(#paint2_linear_129_524)"/>
</g>
<defs>
<linearGradient id="paint0_linear_129_524" x1="16.56" y1="8.93617" x2="0.813387" y2="49.465" gradientUnits="userSpaceOnUse">
<stop stop-color="#00D1FF"/>
<stop offset="1" stop-color="white"/>
</linearGradient>
<linearGradient id="paint1_linear_129_524" x1="48.56" y1="13.9362" x2="32.8134" y2="54.465" gradientUnits="userSpaceOnUse">
<stop stop-color="#00D1FF"/>
<stop offset="1" stop-color="white"/>
</linearGradient>
<linearGradient id="paint2_linear_129_524" x1="31.56" y1="29.9362" x2="15.8134" y2="70.465" gradientUnits="userSpaceOnUse">
<stop stop-color="#00D1FF"/>
<stop offset="1" stop-color="white"/>
</linearGradient>
</defs>
</svg>
