<svg preserveAspectRatio="none" width="100%" height="100%" overflow="visible" style="display: block;" viewBox="0 0 26 64" fill="none" xmlns="http://www.w3.org/2000/svg">
<g id="Vector">
<path d="M23.2724 0C25.2683 0.828768 25.8839 1.83 25.7153 3.84443C25.6469 4.65164 25.2976 5.10674 24.4352 5.10435C23.458 5.10435 22.4809 5.10435 21.5037 5.10435C15.1984 5.10435 8.89317 5.13548 2.58792 5.10435C1.80617 5.10435 0.684859 5.5834 0.330631 4.51271C-0.0651267 3.32705 0.00327581 2.06952 0.897396 1.00841C1.32491 0.495823 1.99184 0.368873 2.5073 0H15.6992C17.6243 0.541334 19.5933 0.112578 21.5379 0.225157C22.0265 0.251505 22.5908 0.431151 23.0281 0H23.2724Z" fill="url(#paint0_linear_129_531)"/>
<path d="M23.0281 0C22.5908 0.431151 22.0289 0.239528 21.5379 0.225157C19.5835 0.112578 17.6292 0.541334 15.6992 0H23.0281Z" fill="url(#paint1_linear_129_531)"/>
<path d="M12.968 36.7795C15.8556 36.7795 18.7431 36.7795 21.6307 36.7795C23.4165 36.7795 23.9002 37.2298 23.9173 39.0814C23.9564 42.9881 23.9417 46.8972 23.9466 50.8039C23.9466 51.8411 23.8953 52.8806 23.9637 53.9178C24.0273 54.8759 23.7878 55.3885 22.6983 55.1777C22.4562 55.1319 22.2075 55.1319 21.9654 55.1777C21.0175 55.3525 20.4654 55.1537 20.6364 54.0399C20.7561 53.2615 20.3091 52.9692 19.5444 53.0124C19.0163 53.0387 18.4871 53.0387 17.959 53.0124C16.9818 52.9692 16.4052 53.2519 16.6251 54.3705C16.7595 55.046 16.3637 55.2998 15.7066 55.2927C13.8377 55.2687 11.9664 55.2256 10.0878 55.2687C9.35489 55.2855 9.03731 55.101 9.14235 54.3513C9.29137 53.2902 8.74659 52.9141 7.723 53.0195C7.35911 53.0646 6.99126 53.0702 6.62611 53.0363C5.61717 52.9213 4.94048 53.1082 5.11881 54.3345C5.20432 54.931 4.84276 55.1466 4.24424 55.204C1.8477 55.4292 1.87457 55.4436 1.87702 53.0483C1.87702 48.7823 1.85992 44.5163 1.85015 40.2503C1.85015 39.7712 1.85015 39.2922 1.87457 38.8131C1.98695 37.1843 2.39981 36.7891 4.0488 36.7843C7.03164 36.7699 9.99983 36.7771 12.968 36.7795Z" fill="url(#paint2_linear_129_531)"/>
<path d="M12.9289 13.0423C9.4306 13.0423 5.9323 13.0256 2.43644 13.0423C1.68401 13.0423 1.32245 12.8794 1.34444 12.0531C1.3933 10.259 1.37864 8.46015 1.34444 6.67088C1.33222 5.95229 1.58873 5.71276 2.3436 5.71276C9.42165 5.73193 16.4989 5.72554 23.5753 5.6936C24.3619 5.6936 24.5232 5.98822 24.506 6.68046C24.4645 8.27571 24.4914 9.87097 24.506 11.471C24.5207 13.0711 24.506 13.0375 22.8204 13.0256C19.5273 13.0064 16.2244 13.0256 12.9387 13.0256L12.9289 13.0423Z" fill="url(#paint3_linear_129_531)"/>
<path d="M12.9142 26.3744C16.4158 26.3744 19.9174 26.3744 23.4189 26.3744C24.6404 26.3744 24.8847 26.6451 24.4938 27.7972C23.9515 29.438 22.6567 30.456 21.2642 31.4021C20.0428 32.2261 18.4549 32.3602 17.3873 33.4645C17.248 33.6106 16.8425 33.5243 16.5616 33.5243C15.0567 33.5243 13.5348 33.4046 12.047 33.5698C8.68794 33.9435 6.09597 32.3363 3.53087 30.6284C2.57971 29.9942 1.84916 29.0898 1.43726 28.0367C0.931574 26.7696 1.19297 26.3912 2.53904 26.3912C5.99825 26.3912 9.45666 26.3912 12.9142 26.3912V26.3744Z" fill="url(#paint4_linear_129_531)"/>
<path d="M12.9167 17.028C16.3735 17.028 19.8327 17.0568 23.2895 17.0089C24.208 16.9969 24.6258 17.1694 24.5305 18.1802C24.4438 19.2538 24.4389 20.3323 24.5158 21.4066C24.5647 22.2043 24.3009 22.4055 23.4898 22.4007C16.9793 22.3671 10.4713 22.3839 3.9633 22.3863C1.35668 22.3863 1.35668 22.3863 1.37378 19.8042C1.39576 17.028 1.39576 17.028 4.25157 17.028H12.9167Z" fill="url(#paint5_linear_129_531)"/>
<path d="M6.12528 25.6559C4.54469 25.6775 2.94945 25.6559 1.38351 25.7373C0.406335 25.7828 -0.0211814 25.4978 0.000805113 24.4726C0.0203487 23.5145 0.215785 22.9923 1.3542 23.0091C4.60088 23.057 7.85 23.0091 11.0991 23.0091C15.5258 23.0091 19.9516 23.0091 24.3766 23.0091C25.7397 23.0091 26.3309 23.9528 25.8155 25.2271C25.7629 25.3774 25.6591 25.5054 25.5217 25.5896C25.3842 25.6738 25.2214 25.709 25.0606 25.6894C24.4132 25.6894 23.7683 25.6679 23.1209 25.6535C23.2162 25.0355 22.73 25.1577 22.4075 25.1553C17.2073 25.1521 12.0071 25.1505 6.80686 25.1505C6.48928 25.1505 6.00069 25.0307 6.12528 25.6559Z" fill="url(#paint6_linear_129_531)"/>
<path d="M0.0789846 15.0903C-0.14821 14.0412 0.301293 13.6531 1.37131 13.6531C9.09754 13.6707 16.8246 13.6707 24.5525 13.6531C25.5932 13.6531 25.8961 14.0915 25.8936 15.0184C25.8936 15.9071 25.6933 16.4939 24.6013 16.3837C23.9197 16.3143 23.2259 16.343 22.5395 16.3286C22.4882 15.8089 22.1217 15.8089 21.7406 15.8089C15.7847 15.8089 9.82961 15.8089 3.87533 15.8089C3.56752 15.8089 3.06916 15.6699 3.20352 16.2879C2.73159 16.3862 2.24388 16.3862 1.77195 16.2879C1.36398 15.7035 0.609105 15.5454 0.0789846 15.0903Z" fill="url(#paint7_linear_129_531)"/>
<path d="M12.9289 36.1496C10.8988 36.1496 8.86629 36.1329 6.83376 36.1496C6.18882 36.1496 5.85658 36.0155 5.89566 35.2921C5.92742 34.6095 5.99094 34.1568 6.87284 34.1639C10.8939 34.1975 14.9159 34.1975 18.9386 34.1639C19.8009 34.1639 19.9011 34.564 19.9451 35.2658C19.9988 36.1257 19.5273 36.1472 18.8946 36.1424C16.9207 36.1424 14.9199 36.152 12.9289 36.1496Z" fill="url(#paint8_linear_129_531)"/>
<path d="M7.10003 63.954H6.85573C4.44942 63.954 4.46408 63.954 4.63998 61.6019C4.67906 61.0821 4.81587 60.7731 5.40706 60.7779C6.57968 60.7779 7.75474 60.7779 8.9298 60.7659C9.41839 60.7659 9.70421 60.9455 9.66268 61.4653C9.66024 61.5052 9.66024 61.5452 9.66268 61.5851C9.85323 63.9397 9.85323 63.9397 7.10003 63.954Z" fill="url(#paint9_linear_129_531)"/>
<path d="M18.7505 60.7755H19.4834C21.1934 60.7755 21.125 60.7755 21.2154 62.4522C21.2814 63.6498 20.8954 64.1169 19.647 63.9756C18.799 63.9097 17.947 63.9097 17.099 63.9756C16.3466 64.0115 16.1463 63.6977 16.139 62.9887C16.1145 60.7827 16.0852 60.7827 18.7505 60.7755Z" fill="url(#paint10_linear_129_531)"/>
<path d="M5.72466 55.7645C5.75425 55.5259 5.75425 55.2846 5.72466 55.046C5.41441 53.8244 5.9372 53.6088 7.12203 53.5752C8.36793 53.5537 8.80766 53.8818 8.622 55.0843C8.57517 55.6421 8.57027 56.2025 8.60734 56.761C8.60734 58.3251 8.60734 58.2652 7.03408 58.3419C6.02026 58.3946 5.59763 58.0904 5.72466 57.0795C5.75174 56.6416 5.75174 56.2025 5.72466 55.7645Z" fill="url(#paint11_linear_129_531)"/>
<path d="M20.0477 55.9203V56.7682C20.0477 58.3539 20.0477 58.294 18.4231 58.3491C17.3702 58.385 17.0453 57.9826 17.1503 57.0245C17.2065 56.5119 17.1699 55.9897 17.1748 55.4747C17.1894 53.707 17.8759 53.216 19.6177 53.6591C20.0013 53.7549 20.0306 53.9729 20.0306 54.2603C20.0306 54.8184 20.0306 55.3741 20.0306 55.937L20.0477 55.9203Z" fill="url(#paint12_linear_129_531)"/>
<path d="M3.20352 16.3095C3.06916 15.6795 3.56752 15.8304 3.87533 15.8304C9.83125 15.8176 15.7863 15.8176 21.7406 15.8304C22.1217 15.8304 22.4882 15.8304 22.5395 16.3358C16.095 16.4268 9.64966 16.4181 3.20352 16.3095Z" fill="url(#paint13_linear_129_531)"/>
<path d="M6.12528 25.6559C6.00069 25.0307 6.48928 25.1505 6.80686 25.1505C12.0055 25.1409 17.2057 25.1409 22.4075 25.1504C22.73 25.1504 23.2162 25.0307 23.1209 25.6487C17.4565 25.7684 11.7913 25.7709 6.12528 25.6559Z" fill="url(#paint14_linear_129_531)"/>
<path d="M7.10982 58.8832C7.46893 58.9982 8.03081 58.7036 8.03081 59.2377C8.03081 59.8461 7.43473 59.5898 7.08294 59.621C6.73116 59.6521 6.23768 59.7839 6.27433 59.2329C6.31097 58.682 6.87041 59.0485 7.10982 58.8832Z" fill="url(#paint15_linear_129_531)"/>
<path d="M18.577 58.9072C18.8873 59.0006 19.4174 58.6868 19.4589 59.2401C19.5005 59.7934 18.9703 59.6617 18.6552 59.6401C18.3401 59.6186 17.7147 59.8797 17.7171 59.2497C17.722 58.6844 18.2717 58.9982 18.577 58.9072Z" fill="url(#paint16_linear_129_531)"/>
<path d="M0.0789846 15.0903C0.609105 15.5454 1.364 15.7035 1.77197 16.319C0.0643473 16.4388 0.0643269 16.434 0.0789846 15.0903Z" fill="url(#paint17_linear_129_531)"/>
</g>
<defs>
<linearGradient id="paint0_linear_129_531" x1="4.44195" y1="-1.58666e-07" x2="20.919" y2="64.1641" gradientUnits="userSpaceOnUse">
<stop stop-color="#00D1FF"/>
<stop offset="1" stop-color="#A4EFFF"/>
</linearGradient>
<linearGradient id="paint1_linear_129_531" x1="4.44195" y1="-1.58666e-07" x2="20.919" y2="64.1641" gradientUnits="userSpaceOnUse">
<stop stop-color="#00D1FF"/>
<stop offset="1" stop-color="#A4EFFF"/>
</linearGradient>
<linearGradient id="paint2_linear_129_531" x1="4.44195" y1="-1.58666e-07" x2="20.919" y2="64.1641" gradientUnits="userSpaceOnUse">
<stop stop-color="#00D1FF"/>
<stop offset="1" stop-color="#A4EFFF"/>
</linearGradient>
<linearGradient id="paint3_linear_129_531" x1="4.44195" y1="-1.58666e-07" x2="20.919" y2="64.1641" gradientUnits="userSpaceOnUse">
<stop stop-color="#00D1FF"/>
<stop offset="1" stop-color="#A4EFFF"/>
</linearGradient>
<linearGradient id="paint4_linear_129_531" x1="4.44195" y1="-1.58666e-07" x2="20.919" y2="64.1641" gradientUnits="userSpaceOnUse">
<stop stop-color="#00D1FF"/>
<stop offset="1" stop-color="#A4EFFF"/>
</linearGradient>
<linearGradient id="paint5_linear_129_531" x1="4.44195" y1="-1.58666e-07" x2="20.919" y2="64.1641" gradientUnits="userSpaceOnUse">
<stop stop-color="#00D1FF"/>
<stop offset="1" stop-color="#A4EFFF"/>
</linearGradient>
<linearGradient id="paint6_linear_129_531" x1="4.44195" y1="-1.58666e-07" x2="20.919" y2="64.1641" gradientUnits="userSpaceOnUse">
<stop stop-color="#00D1FF"/>
<stop offset="1" stop-color="#A4EFFF"/>
</linearGradient>
<linearGradient id="paint7_linear_129_531" x1="4.44195" y1="-1.58666e-07" x2="20.919" y2="64.1641" gradientUnits="userSpaceOnUse">
<stop stop-color="#00D1FF"/>
<stop offset="1" stop-color="#A4EFFF"/>
</linearGradient>
<linearGradient id="paint8_linear_129_531" x1="4.44195" y1="-1.58666e-07" x2="20.919" y2="64.1641" gradientUnits="userSpaceOnUse">
<stop stop-color="#00D1FF"/>
<stop offset="1" stop-color="#A4EFFF"/>
</linearGradient>
<linearGradient id="paint9_linear_129_531" x1="4.44195" y1="-1.58666e-07" x2="20.919" y2="64.1641" gradientUnits="userSpaceOnUse">
<stop stop-color="#00D1FF"/>
<stop offset="1" stop-color="#A4EFFF"/>
</linearGradient>
<linearGradient id="paint10_linear_129_531" x1="4.44195" y1="-1.58666e-07" x2="20.919" y2="64.1641" gradientUnits="userSpaceOnUse">
<stop stop-color="#00D1FF"/>
<stop offset="1" stop-color="#A4EFFF"/>
</linearGradient>
<linearGradient id="paint11_linear_129_531" x1="4.44195" y1="-1.58666e-07" x2="20.919" y2="64.1641" gradientUnits="userSpaceOnUse">
<stop stop-color="#00D1FF"/>
<stop offset="1" stop-color="#A4EFFF"/>
</linearGradient>
<linearGradient id="paint12_linear_129_531" x1="4.44195" y1="-1.58666e-07" x2="20.919" y2="64.1641" gradientUnits="userSpaceOnUse">
<stop stop-color="#00D1FF"/>
<stop offset="1" stop-color="#A4EFFF"/>
</linearGradient>
<linearGradient id="paint13_linear_129_531" x1="4.44195" y1="-1.58666e-07" x2="20.919" y2="64.1641" gradientUnits="userSpaceOnUse">
<stop stop-color="#00D1FF"/>
<stop offset="1" stop-color="#A4EFFF"/>
</linearGradient>
<linearGradient id="paint14_linear_129_531" x1="4.44195" y1="-1.58666e-07" x2="20.919" y2="64.1641" gradientUnits="userSpaceOnUse">
<stop stop-color="#00D1FF"/>
<stop offset="1" stop-color="#A4EFFF"/>
</linearGradient>
<linearGradient id="paint15_linear_129_531" x1="4.44195" y1="-1.58666e-07" x2="20.919" y2="64.1641" gradientUnits="userSpaceOnUse">
<stop stop-color="#00D1FF"/>
<stop offset="1" stop-color="#A4EFFF"/>
</linearGradient>
<linearGradient id="paint16_linear_129_531" x1="4.44195" y1="-1.58666e-07" x2="20.919" y2="64.1641" gradientUnits="userSpaceOnUse">
<stop stop-color="#00D1FF"/>
<stop offset="1" stop-color="#A4EFFF"/>
</linearGradient>
<linearGradient id="paint17_linear_129_531" x1="4.44195" y1="-1.58666e-07" x2="20.919" y2="64.1641" gradientUnits="userSpaceOnUse">
<stop stop-color="#00D1FF"/>
<stop offset="1" stop-color="#A4EFFF"/>
</linearGradient>
</defs>
</svg>
