<svg preserveAspectRatio="none" width="100%" height="100%" overflow="visible" style="display: block;" viewBox="0 0 23 42" fill="none" xmlns="http://www.w3.org/2000/svg">
<path id="Vector" d="M7.66667 0H15.3333C16.7469 0 17.8889 1.04271 17.8889 2.33333C17.8889 3.62396 16.7469 4.66667 15.3333 4.66667H7.66667C6.25313 4.66667 5.11111 3.62396 5.11111 2.33333C5.11111 1.04271 6.25313 0 7.66667 0ZM0 12.8333C0 10.2594 2.29201 8.16667 5.11111 8.16667H17.8889C20.708 8.16667 23 10.2594 23 12.8333C23 14.5906 21.9378 16.1219 20.3646 16.9167C21.9378 17.7115 23 19.2427 23 21C23 22.7573 21.9378 24.2885 20.3646 25.0833C21.9378 25.8781 23 27.4094 23 29.1667C23 30.924 21.9378 32.4552 20.3646 33.25C21.9378 34.0448 23 35.576 23 37.3333C23 39.9073 20.708 42 17.8889 42H5.11111C2.29201 42 0 39.9073 0 37.3333C0 35.576 1.06215 34.0448 2.63542 33.25C1.06215 32.4552 0 30.924 0 29.1667C0 27.4094 1.06215 25.8781 2.63542 25.0833C1.06215 24.2885 0 22.7573 0 21C0 19.2427 1.06215 17.7115 2.63542 16.9167C1.06215 16.1219 0 14.5906 0 12.8333Z" fill="url(#paint0_linear_129_544)"/>
<defs>
<linearGradient id="paint0_linear_129_544" x1="16.56" y1="8.93617" x2="0.813387" y2="49.465" gradientUnits="userSpaceOnUse">
<stop stop-color="#00D1FF"/>
<stop offset="1" stop-color="white"/>
</linearGradient>
</defs>
</svg>
