<svg xmlns="http://www.w3.org/2000/svg" width="512" height="512"><path fill="#86C342" d="M8 116h14a7862 7862 0 0 0 23 0h19a28629 28629 0 0 1 66 0h2a653796 653796 0 0 0 250 0h2a46201 46201 0 0 0 118 0h2c6 0 6 0 8 2v34a8963 8963 0 0 1 0 172v3a13506 13506 0 0 0 0 56v9l-2 4h-20a7862 7862 0 0 0-23 0h-19a28629 28629 0 0 1-318 0h-2a46201 46201 0 0 0-118 0H8c-6 0-6 0-8-2v-34a8963 8963 0 0 1 0-36v-2a404837 404837 0 0 0 0-134v-3a13506 13506 0 0 0 0-56v-9c0-5 4-4 8-4Z"/><path fill="#87C443" d="M8 116h14a7862 7862 0 0 0 23 0h19a28629 28629 0 0 1 66 0h2a653796 653796 0 0 0 250 0h2a46201 46201 0 0 0 118 0h2c6 0 6 0 8 2v34a8963 8963 0 0 1 0 172v3a13506 13506 0 0 0 0 56v9l-2 4h-20a7862 7862 0 0 0-23 0h-19a28629 28629 0 0 1-318 0h-2a46201 46201 0 0 0-118 0H8c-6 0-6 0-8-2v-34a8963 8963 0 0 1 0-36v-2a404837 404837 0 0 0 0-134v-3a13506 13506 0 0 0 0-56v-9c0-5 4-4 8-4Zm22 30v220h452V146H30Z"/><path fill="#3D8033" d="M30 146h452v220H30V146Zm60 22v6c-1 9-4 16-8 23-8 7-17 9-27 9-3 0-3 0-5 2a124 124 0 0 0 0 12 1802 1802 0 0 0 0 74v3c0 5 0 5 2 9h6a324003357 324003357 0 0 0 25 9l1 3 3 6 3 15c0 4 0 4 2 7h13a3258 3258 0 0 1 15 0h12a12577 12577 0 0 0 43 0h2a567792 567792 0 0 1 159 0h3a18950 18950 0 0 1 71 0h7l5-2v-7c1-7 2-14 7-20l1-4 2-1 5-2c7-3 13-4 20-4h3c3-4 2-7 2-12v-3a1802 1802 0 0 0 0-74v-3l-2-8h-7c-7-1-13-3-20-6l-3-1-2-5-1-2c-4-7-4-14-5-21v-3c-3-2-5-2-8-2h-8a3269 3269 0 0 1-15 0h-12a12580 12580 0 0 0-43 0h-2a567992 567992 0 0 1-159 0h-3a18957 18957 0 0 1-71 0h-7l-4 2Z"/><path fill="#3D8033" d="m303 197 2 1c14 12 23 30 26 47 2 22-3 41-16 58l-2 2a75 75 0 0 1-105 9l-3-2a76 76 0 0 1-6-105l2-2c11-13 28-22 45-24 21-2 39 3 57 16Z"/><path fill="#85C242" d="M253 202h9v12l4 1c7 1 11 5 15 10 3 6 3 8 3 15h-19l-2-8v17l5 3c7 3 12 8 15 16 1 7 1 14-4 20-4 5-9 7-15 9h-3v11h-9v-11l-4-1c-9-1-14-5-19-12-2-5-2-8-2-14h18l3 8 4 4v-21l-9-3c-5-3-10-7-12-13s-3-14 1-20c4-5 8-9 14-11h7v-12Z"/><path fill="#3D8033" d="M410 234c5 4 10 9 11 16 1 8 1 15-4 22-6 6-12 9-20 10-8-1-15-4-20-10-5-7-6-13-5-22 1-7 5-11 10-15 9-6 19-6 28-1ZM129 234c5 4 10 9 11 16 1 8 1 15-4 22-6 6-12 9-20 10-8-1-15-4-20-10-5-7-6-13-5-22 1-7 5-11 10-15 9-6 19-6 28-1Z"/><path fill="#3F8233" d="M253 228v16c-4-3-4-3-4-5l1-10 3-1Z"/><path fill="#3E8133" d="m261 267 3 2v10l-3 2v-14Z"/></svg>