<svg xmlns="http://www.w3.org/2000/svg" width="1043" height="265"><path fill="#C4297F" d="m158 12 10 7 15 10a1554 1554 0 0 1 70 45 299 299 0 0 1-9 45 989 989 0 0 1-4 22c-2 14-2 14-7 18l-11 5-8 4-12 6a396 396 0 0 0-44 23 1485 1485 0 0 0-99 51l-16 8-3 2-3 1-3 2-6 3-7 1c0-7 2-13 4-20l1-3c3-9 8-18 13-27l1-2c7-12 15-23 25-32l2-2 3-3 2-2 2-2 2-2a170 170 0 0 1 52-32l2-1a329 329 0 0 0 33-17l8-5-8-6-3-1-12-8-21-14-17-12-21-13-23-15c2-15 10-26 21-35 24-16 48-13 71 1Z"/><path fill="#831B9F" d="m158 12 10 7 15 10a1554 1554 0 0 1 70 45v3l-3 1-18 10-7 3-7 4a293 293 0 0 1-36 18l-2 2-3 1-7 1 1-2-8-6-3-1-12-8-21-14-17-12-21-13-23-15c2-15 10-26 21-35 24-16 48-13 71 1Z"/><path fill="#3A4188" d="M738 53h28l-2 14v2l-1 2v3a5488 5488 0 0 1-7 43l1-1c11-9 24-12 37-11 8 1 16 5 21 11 4 7 6 14 6 23v2c0 9-2 18-3 26a3319 3319 0 0 0-6 35l-2 7h-28a520 520 0 0 1 7-43c3-13 3-13 1-25-3-4-6-6-11-8-8-1-16 1-22 6-7 7-8 15-10 23v4a2301 2301 0 0 0-6 33v2l-3 8h-27l3-22 1-3 1-9 6-35 8-41a799 799 0 0 0 8-46ZM433 113l3 3 3-9h27l-1 14v2l-2 6-1 7a5285 5285 0 0 1-4 22l-7 42-1 3-1 5-8 1h-20v-9l-2 1c-10 8-22 11-35 10-6-1-11-3-16-6l-2-1c-10-6-16-15-18-26a64 64 0 0 1 51-73c13-1 24 0 34 8Zm-51 32c-4 6-6 13-6 20 1 6 3 12 9 15 7 4 14 5 22 3s16-8 21-16c3-8 4-16 1-24-3-5-7-8-12-10-14-3-25 1-35 12Z"/><path fill="#394188" d="m964 53-4 27h-11c-6 1-10 2-14 6-5 7-5 12-7 20l21 1-4 23h-22v7l-1 4v3l-1 2v3l-1 6-3 14-1 3-5 30-1 7h-28l3-22v-3a3196 3196 0 0 1 10-53l-19-1 4-23 19-1 1-6c3-16 10-29 22-39 14-8 27-9 42-8Z"/><path fill="#3A4087" d="M359 53h10l-2 12v3l-1 3-1 3-1 6h-11c-5 1-9 1-13 5-5 6-6 14-7 21l20 1-2 15v3l-2 5h-21l-1 6a531 531 0 0 1-7 44l-1 2-1 10-1 4v3l-3 10h-28l5-31v-3l6-32v-3l1-3 1-3 1-4h-19l4-23h19l1-8c2-14 9-27 20-36 11-8 21-10 34-10Z"/><path fill="#3A4188" d="M702 112c5 5 8 11 9 18l-1 8h-26l-3-7c-4-3-9-2-14-2l-5 3-2 7a165082345 165082345 0 0 1 23 9c8 2 14 6 19 13 4 7 4 15 2 23-3 9-10 16-19 21-14 6-29 9-44 3-9-4-14-8-18-17l-1-9v-3l1-4h25l1 2 1 2 1 3 4 4c6 2 12 2 18 0 3-3 3-3 4-7v-6h-2l-9-3-2-1-8-2h-3c-8-3-14-7-19-14-3-7-3-15 0-23 5-12 15-18 26-23 14-5 30-3 42 5Z"/><path fill="#3A4088" d="M543 112c5 5 8 9 9 16v9l-4 1h-23l-1-3c-1-4-1-4-3-5-5-2-10-1-15 0-3 2-4 4-5 8 5 6 10 7 17 9 9 2 18 4 24 12l2 1c4 7 4 14 3 21-2 9-9 17-17 22-14 7-29 11-44 6-10-3-16-8-21-18l-1-9v-3l1-4h9a678225683 678225683 0 0 0 16 0l1 2v2l1 2 4 5c5 2 12 2 17 0l6-6v-5c-3-3-6-4-10-5l-3-1-7-1c-10-3-17-7-24-15-3-7-2-15 0-22 6-13 15-19 28-24s29-3 40 5Z"/><path fill="#394188" d="M589 69h27c2 3 0 6 0 10l-1 2a2018 2018 0 0 1-2 13l-2 12 20 1-4 23h-21l-1 9-1 7-1 2a2450 2450 0 0 1-6 35c-3 22-3 22-5 26h-27l3-21 3-21 7-36-18-1 4-23h19v-5l6-33Z"/><path fill="#394187" d="M981 69h28l-2 16-1 4-1 4v3l-2 10 19 1c0 8 0 15-2 23h-22v5l-4 21-1 9-1 2-2 16-1 2-1 10-1 3v3l-3 8h-27l5-35 1-3 5-31 1-2 2-8h-18c2-21 2-21 4-23h18v-2l4-23 2-13Z"/><path fill="#3A4188" d="M841 107h28l-2 14v2l-1 3v2l-2 9v3l-8 47-1 3-1 8-1 2-2 9h-27c1-9 1-17 3-25l1-3 1-7 3-18 1-4 7-38 1-7ZM872 54c4 3 6 6 8 11 0 5-1 10-5 14-6 5-10 7-18 7-5 0-7-3-11-6-2-5-2-9-1-15 3-5 7-8 12-11 6-2 10-2 15 0Z"/><path fill="#8E1F8D" d="M225 91c-7 5-14 8-22 12a284 284 0 0 0-23 12l-3 1-7 1 2-1 6-3 2-1 3-2 2-1a3999 3999 0 0 0 32-17l3-1h5Z"/><path fill="#7E1B8E" d="m252 74 1 3-3 1-3 2-2 1-13 7h-6l15-8 3-1c5-3 5-3 8-3v-2Z"/><path fill="#9E238C" d="M195 107a2804 2804 0 0 1-13 6l-2 2-3 1-7 1 2-1 6-3 2-1 5-3 2-1 2-1h6Z"/></svg>