<svg xmlns="http://www.w3.org/2000/svg" width="1043" height="265"><path fill="#F16F30" d="M374 99c12 11 17 26 18 42a379 379 0 0 1 0 24l-96-1 2 6 1 4c2 5 5 8 10 11 7 4 14 3 21 0 4-1 5-2 7-5 3-3 5-3 9-4h9a789 789 0 0 1 34 1l-1 5v3c-3 9-11 18-19 24-22 13-53 13-78 8-14-4-27-11-35-24a99 99 0 0 1-6-69c4-12 11-23 23-30 28-15 75-15 101 5Zm-73 25c-4 5-4 5-5 14h47c-1-9-2-13-9-18-11-6-25-4-33 4ZM743 97c12 11 18 23 20 39v28h-96c3 13 3 13 12 21 7 2 16 3 24 0l8-8h11a445146781 445146781 0 0 1 39 0l-1 4v3c-3 11-11 20-21 25-15 9-31 10-47 10h-4c-21 0-39-3-55-18-12-12-15-31-15-49 0-17 3-37 16-50 25-24 81-25 109-5Zm-71 27c-3 5-4 8-4 14h46c-1-9-2-13-9-18-10-6-25-5-33 4ZM105 44a102169 102169 0 0 1 158 1v13l-8-3-8-1h-4l2 1 7 3 3 1 3 1 2 1 3 2v7l-12-4a6172 6172 0 0 0-18-9l-2-1c-5-2-9-2-14-2a16011 16011 0 0 0 46 21v7l-12-5-3-1-4-2-28-13-2-1-2-1-4-2c-6-3-11-3-17-3l71 32v2h-49v127h-59V88h-49v-2a4439 4439 0 0 1 71-32c-7 0-11 1-17 4l-3 1a1113 1113 0 0 0-45 21l-6 3v-9l45-20c-7 0-11 1-17 4l-2 1a913 913 0 0 0-20 9l-6 3v-8l8-4 2-1 2-1 2-1 5-2c-6 0-10 1-15 3l-4 1V44ZM594 100c9 8 14 21 16 33v4l-6 1h-9a2243 2243 0 0 1-21 0h-8c-3 0-3-1-5-3l-2-5c-2-5-4-9-9-11-7-2-18-2-25 0-5 4-8 10-9 17-2 14-3 33 6 45 4 5 10 6 16 6s12-1 17-5l7-17h49c-2 16-7 30-20 41-19 15-49 15-72 12-15-2-31-7-41-20-14-19-14-45-10-67a56 56 0 0 1 6-19c7-12 17-19 30-23l9-2 3-1c25-4 56-3 78 14Z"/><path fill="#F26F30" d="M774 44h52v172h-52V44ZM839 44h51v171h-51V44ZM404 44h50v171h-50V44Z"/><path fill="#F16F30" d="M933 24c6 4 10 9 12 15 1 6 1 12-3 17-3 6-7 9-13 11-7 1-14 1-20-4-5-4-9-8-9-15-1-7 0-12 5-18 8-8 17-10 28-6Zm-25 9c-4 6-5 11-3 18 2 4 5 7 9 10 5 2 10 2 15 1 5-2 7-5 10-9 2-6 2-10 0-16-3-4-6-7-10-9-9-2-15-1-21 5Z"/><path fill="#F26F30" d="M913 32c12 0 12 0 17 3l1 8-3 5 2 3 2 5h-7c-2-2-3-4-3-7h-2l-1 7h-6V32Zm6 6v5h5l1-5h-6Z"/></svg>